<svg width="56" height="44" viewBox="0 0 56 44" fill="none" xmlns="http://www.w3.org/2000/svg">
<path d="M23.9825 32.59C20.4725 31.87 17.5425 30.14 15.1325 27.52C14.8325 27.2 14.5525 26.86 14.2625 26.53C13.5125 26 13.1325 25.18 12.7125 24.41C11.3725 21.99 10.7025 19.39 10.6725 16.63C10.6625 15.26 10.6725 13.9 10.6725 12.53C10.6725 12.22 10.6125 11.89 10.9125 11.66C11.0925 11.57 11.2725 11.56 11.4625 11.56C13.1025 11.56 14.7425 11.56 16.3825 11.56C16.5725 11.56 16.7625 11.58 16.9425 11.65C17.3025 11.9 17.2025 12.29 17.2025 12.63C17.2125 15.13 17.2025 17.64 17.2025 20.14C17.2125 24.01 20.3425 27.11 24.2125 27.1C27.9625 27.09 31.0825 23.98 31.1025 20.22C31.1225 17.68 31.1025 15.13 31.1025 12.59C31.1025 12.27 31.0225 11.9 31.3525 11.66C31.6325 11.54 31.9325 11.56 32.2225 11.56C35.7925 11.56 39.3625 11.56 42.9225 11.56C43.2125 11.56 43.5125 11.54 43.7925 11.65C44.0125 11.76 44.0625 11.97 44.0625 12.18C44.0425 15.05 44.3025 17.93 43.5125 20.75C42.9725 22.69 42.1325 24.48 40.9725 26.13C40.8125 26.36 40.5825 26.51 40.3725 26.67C38.1625 29.34 35.4525 31.27 32.1225 32.27C31.8425 32.35 31.5525 32.41 31.2725 32.48C31.0725 32.72 30.7925 32.82 30.5025 32.87C28.6025 33.22 26.7025 33.27 24.7925 32.96C24.4825 32.91 24.1525 32.89 23.9525 32.6L23.9825 32.59Z" fill="#FCBC0F"/>
<path d="M24.8625 0.0300098C26.9625 0.0300098 29.0625 0.0100098 31.1625 0.0100098C35.9725 0.0100098 40.7825 0.0100098 45.5925 0.0100098C46.4825 0.0100098 46.6925 0.23001 46.7025 1.12001C46.7025 1.83001 46.7125 2.55001 46.7225 3.26001C46.8625 3.46001 46.9025 3.68001 46.9025 3.92001C46.9025 4.91001 46.9225 5.89001 46.9025 6.88001C46.8725 7.77001 46.5125 8.12001 45.6125 8.15001C45.0425 8.17001 44.4825 8.17001 43.9125 8.15001C41.6625 8.19001 39.4225 8.16001 37.1725 8.17001C33.4125 8.17001 29.6525 8.17001 25.8925 8.17001C25.5425 8.17001 25.1725 8.22001 24.8525 8.01001C24.6425 7.76001 24.6625 7.46001 24.6625 7.17001C24.6625 5.07001 24.6625 2.97001 24.6625 0.87001C24.6625 0.58001 24.6325 0.27001 24.8625 0.0400098V0.0300098Z" fill="#FCBC0F"/>
<path d="M43.9425 7.98C44.4725 7.98 44.9925 7.98001 45.5225 7.97001C46.4925 7.97001 46.7125 7.75 46.7225 6.8C46.7225 5.62001 46.7325 4.45001 46.7425 3.27001C46.9425 3.24001 47.1525 3.21001 47.3525 3.17001C47.5725 3.40001 47.5125 3.68001 47.5125 3.95001C47.5125 5.19001 47.5225 6.43001 47.5125 7.67C47.5125 8.06 47.6025 8.16001 47.9825 7.97001C49.5625 7.20001 51.0125 6.24001 52.3325 5.08001C52.5525 4.89001 52.7625 4.67 52.9425 4.44C53.5925 3.59 53.4525 3.06 52.4925 2.63C52.3025 2.55 52.0825 2.50001 52.0125 2.27001C52.7525 2.05001 53.4725 2.14001 54.1625 2.43001C55.0725 2.80001 55.5025 3.62001 55.2625 4.58001C54.8525 6.21001 53.7725 7.37001 52.5625 8.44001C52.6325 8.75001 52.3525 8.81001 52.1825 8.94001C50.9825 9.90001 49.6725 10.7 48.2725 11.34C47.7225 11.59 47.4625 11.92 47.5125 12.55C47.5625 13.24 47.5125 13.93 47.5225 14.73C48.4925 14.11 49.3325 13.47 50.1725 12.83C51.3725 11.91 52.5125 10.93 53.6625 9.95C53.7725 9.86 53.8525 9.72 54.0325 9.75C53.8225 11.59 52.8825 13.09 51.7725 14.49C51.3825 14.98 50.9625 15.44 50.5525 15.91C49.9025 16.66 49.0625 17.14 48.2025 17.56C47.6925 17.81 47.4825 18.13 47.5125 18.69C47.5525 19.27 47.5125 19.86 47.5225 20.52C48.9525 19.45 50.1625 18.29 51.0325 16.8C51.3725 18.32 50.8925 19.62 49.9225 20.75C48.3925 22.55 46.4525 23.84 44.4025 24.98C43.1425 25.68 41.8525 26.35 40.4225 26.67C42.1425 24.37 43.3225 21.84 43.7425 18.98C43.8625 18.17 43.9525 17.37 43.9525 16.55C43.9325 14.96 43.9525 13.36 43.9425 11.77C43.8025 11.6 43.7625 11.4 43.7525 11.19C43.7425 10.31 43.7325 9.44001 43.7525 8.56001C43.7525 8.35001 43.7925 8.14 43.9525 7.98H43.9425Z" fill="#E26000"/>
<path d="M10.8625 11.76C10.8625 13.69 10.7725 15.63 10.8925 17.55C11.0925 20.78 12.2025 23.71 14.1325 26.32C14.1825 26.39 14.2225 26.46 14.2625 26.53C10.7725 25.29 7.67254 23.43 5.19254 20.64C4.23254 19.56 3.83254 18.26 4.16254 16.8C5.04254 18.28 6.25254 19.46 7.67254 20.52C7.67254 19.77 7.67254 19.06 7.67254 18.36C7.67254 17.95 7.41254 17.78 7.10254 17.62C6.21254 17.16 5.32254 16.68 4.64254 15.91C4.23254 15.44 3.81254 14.98 3.42254 14.49C2.31254 13.08 1.37254 11.59 1.16254 9.73998C2.08254 10.25 2.79254 11.03 3.60254 11.68C4.90254 12.71 6.22254 13.7 7.65254 14.75C7.67254 13.76 7.67254 12.87 7.65254 11.98C7.64254 11.59 7.31254 11.48 7.03254 11.34C5.53254 10.62 4.15254 9.69998 2.80254 8.72998C2.71254 8.66998 2.63254 8.60998 2.65254 8.47998C2.30254 7.88998 1.72254 7.50998 1.32254 6.95998C0.832543 6.29998 0.352543 5.63998 0.122543 4.83998C-0.267457 3.50998 0.282543 2.58998 1.64254 2.24998C2.19254 2.10998 2.75254 2.06998 3.31254 2.24998C3.14254 2.52998 2.82254 2.54998 2.56254 2.66998C1.75254 3.02998 1.61254 3.53998 2.12254 4.26998C2.51254 4.81998 3.03254 5.24998 3.55254 5.66998C4.65254 6.54998 5.83254 7.30998 7.10254 7.91998C7.62254 8.16998 7.64254 8.15998 7.64254 7.55998C7.64254 6.33998 7.64254 5.12998 7.64254 3.90998C7.64254 3.64998 7.58254 3.35998 7.81254 3.13998C8.10254 3.17998 8.39254 3.22998 8.67254 3.26998C8.90254 3.47998 8.87254 3.75998 8.87254 4.02998C8.88254 4.88998 8.87254 5.73998 8.87254 6.59998C8.88254 7.56998 9.05254 7.72998 9.99254 7.75998C10.3025 7.76998 10.6225 7.71998 10.8825 7.95998C11.1725 8.90998 10.9625 9.87998 11.0225 10.84C11.0425 11.15 11.0525 11.48 10.8325 11.74L10.8625 11.76Z" fill="#E26000"/>
<path d="M36.0025 39.39C36.5025 39.39 37.0125 39.39 37.5125 39.41C39.0625 39.44 40.3025 40.64 40.3925 42.19C40.4325 42.9 40.1725 43.19 39.4425 43.19C37.1325 43.19 34.8225 43.19 32.5025 43.19C26.9325 43.19 21.3625 43.19 15.7925 43.19C14.7825 43.19 14.4825 42.82 14.7025 41.82C15.0325 40.29 16.1325 39.41 17.7125 39.41C18.2825 39.41 18.8425 39.41 19.4125 39.4C19.6225 39.24 19.8725 39.21 20.1225 39.21C21.1125 39.21 22.1125 39.19 23.1025 39.22C25.9625 39.19 28.8225 39.19 31.6725 39.22C32.8725 39.19 34.0825 39.21 35.2825 39.21C35.5325 39.21 35.7825 39.24 35.9925 39.4L36.0025 39.39Z" fill="#FCBC0F"/>
<path d="M24.8626 0.0300293C24.8626 2.67003 24.8626 5.31003 24.8626 7.95003C24.6326 8.19003 24.3226 8.16003 24.0326 8.16003C21.2426 8.16003 18.4526 8.16003 15.6626 8.16003C15.3926 8.16003 15.1126 8.16003 14.8726 8.00003C14.6726 7.75003 14.6926 7.45003 14.6926 7.16003C14.6926 5.06003 14.6926 2.96003 14.6926 0.860029C14.6926 0.570029 14.6626 0.270029 14.8926 0.0300293C18.2126 0.0300293 21.5426 0.0300293 24.8626 0.0300293Z" fill="#FDDE19"/>
<path d="M23.0926 39.4C21.8626 39.4 20.6426 39.4 19.4126 39.39C20.4226 36.9 21.7226 34.61 23.8026 32.84C23.8726 32.78 23.9226 32.68 23.9826 32.6C26.4326 33.13 28.8726 33.12 31.3026 32.47C31.3026 32.59 31.3726 32.66 31.4526 32.73C33.6326 34.5 34.9526 36.85 35.9926 39.39C34.5526 39.39 33.1226 39.39 31.6826 39.4C31.4526 39.15 31.4626 38.82 31.3826 38.52C30.8826 36.66 29.2526 35.4 27.3526 35.41C25.4926 35.41 23.8826 36.69 23.3826 38.52C23.3026 38.82 23.3126 39.15 23.0826 39.4H23.0926Z" fill="#EF8000"/>
<path d="M14.8925 0.03C14.8925 2.67 14.8925 5.31 14.8925 7.95C14.8225 7.99 14.9225 7.98 14.8425 7.99C13.5025 8.26 12.1725 8.29 10.8325 7.97C10.4525 7.97 10.0825 7.97 9.70249 7.96C8.95249 7.95 8.70249 7.69 8.69249 6.92C8.69249 5.7 8.6825 4.49 8.6825 3.27C8.6825 2.49 8.68249 1.72 8.70249 0.94C8.70249 0.28 8.9625 0 9.6025 0C11.3625 0 13.1225 0.01 14.8925 0.02V0.03Z" fill="#FCBC0F"/>
<path d="M7.8326 3.15002V8.44002C6.2126 7.75002 4.8126 6.89002 3.5126 5.86002C2.9226 5.39002 2.3326 4.92002 1.9126 4.27002C1.4326 3.51002 1.5926 2.90002 2.4226 2.56002C2.7126 2.44002 3.0226 2.37002 3.3226 2.27002C4.8526 2.43002 6.3526 2.76002 7.8426 3.16002L7.8326 3.15002Z" fill="#EF8100"/>
<path d="M51.9825 2.26001C52.1225 2.31001 52.2525 2.37001 52.3925 2.42001C53.6525 2.85001 53.9025 3.65001 52.9925 4.63001C51.4925 6.25001 49.6325 7.37001 47.6525 8.31001C47.1925 8.53001 47.3525 8.12001 47.3525 7.95001C47.3425 6.36001 47.3525 4.76001 47.3525 3.17001C48.8825 2.77001 50.4225 2.42001 51.9925 2.26001H51.9825Z" fill="#EF8100"/>
<path d="M2.65258 8.49002C3.79258 9.14002 4.78258 10.02 5.97258 10.6C6.48258 10.85 6.97258 11.13 7.47258 11.39C7.66258 11.49 7.83258 11.59 7.82258 11.85C7.81258 12.87 7.82258 13.89 7.82258 14.99C6.75258 14.4 5.88258 13.65 4.97258 12.96C3.76258 12.04 2.60258 11.05 1.42258 10.08C1.31258 9.99002 1.24258 9.85002 1.15258 9.74002C1.13258 8.79002 1.52258 8.46002 2.64258 8.49002H2.65258Z" fill="#EF8100"/>
<path d="M54.0125 9.74C53.4725 10.41 52.7625 10.9 52.1125 11.45C50.7725 12.58 49.3825 13.65 47.9325 14.64C47.7625 14.75 47.6125 14.9 47.3525 14.93C47.3525 13.93 47.3525 12.95 47.3525 11.97C47.3525 11.62 47.5825 11.51 47.8325 11.39C49.3925 10.66 50.8625 9.78 52.2225 8.72C52.3325 8.63 52.4425 8.53 52.5525 8.44C53.7825 8.58 54.0525 8.81 54.0325 9.74H54.0125Z" fill="#EF8100"/>
<path d="M51.0125 16.79C51.0125 17.6 50.3425 18.02 49.9125 18.55C49.2125 19.41 48.3525 20.11 47.3525 20.82C47.3525 19.83 47.3525 18.93 47.3525 18.02C47.3525 17.93 47.4225 17.79 47.4925 17.76C48.5825 17.27 49.5125 16.51 50.5225 15.9C50.8325 16.12 50.9625 16.43 51.0025 16.79H51.0125Z" fill="#EF8100"/>
<path d="M4.63259 15.9C5.03259 15.93 5.21259 16.3 5.50259 16.49C6.12259 16.88 6.72259 17.3 7.40259 17.61C7.61259 17.71 7.82259 17.81 7.82259 18.1C7.82259 18.98 7.82259 19.85 7.82259 20.82C6.42259 19.82 5.25259 18.74 4.33259 17.39C4.21259 17.21 4.15259 17.01 4.15259 16.8C4.19259 16.44 4.32259 16.12 4.63259 15.91V15.9Z" fill="#EF8100"/>
<path d="M31.3025 11.76C31.3025 14.68 31.3725 17.6 31.2925 20.52C31.1925 23.89 28.5025 26.65 25.3925 27.17C21.9825 27.75 19.0025 25.84 17.7125 23.18C17.2725 22.27 17.0325 21.29 17.0425 20.27C17.0425 17.43 17.0425 14.6 17.0425 11.76C17.2725 11.52 17.5825 11.55 17.8725 11.55C22.0725 11.55 26.2725 11.55 30.4725 11.55C30.7625 11.55 31.0725 11.52 31.3025 11.76Z" fill="#FDDE19"/>
<path d="M31.3025 11.76C26.5525 11.76 21.8025 11.76 17.0425 11.76C14.9825 11.76 12.9225 11.76 10.8525 11.76C10.8525 10.5 10.8525 9.24001 10.8425 7.97001C12.1925 7.97001 13.5425 7.96001 14.8925 7.95001C18.2125 7.95001 21.5325 7.95001 24.8525 7.95001C30.5225 7.95001 36.1825 7.95001 41.8525 7.96001C42.5425 7.96001 43.2325 7.96001 43.9325 7.97001C43.9325 9.23001 43.9325 10.49 43.9225 11.76C39.7125 11.76 35.5025 11.76 31.3025 11.76Z" fill="#EF8000"/>
<path d="M39.1325 23.81C39.1325 25.38 37.8525 26.66 36.2825 26.65C34.7125 26.65 33.4425 25.35 33.4625 23.78C33.4725 22.24 34.7425 20.98 36.2825 20.97C37.8525 20.97 39.1425 22.24 39.1425 23.81H39.1325Z" fill="#FEFEFE"/>
<path d="M23.0925 39.4C23.1725 37.06 25.0725 35.23 27.4225 35.24C29.7125 35.24 31.6125 37.09 31.6925 39.4C28.8325 39.4 25.9625 39.4 23.1025 39.4H23.0925Z" fill="#F7A409"/>
</svg>
