<svg width="294" height="108" viewBox="0 0 294 108" fill="none" xmlns="http://www.w3.org/2000/svg">
<path d="M253.64 18.92H42.62C26.2613 18.92 13 32.1813 13 48.54V77.51C13 93.8687 26.2613 107.13 42.62 107.13H253.64C269.999 107.13 283.26 93.8687 283.26 77.51V48.54C283.26 32.1813 269.999 18.92 253.64 18.92Z" fill="#29CEFC"/>
<path d="M253.64 14.25H42.62C26.2613 14.25 13 27.5113 13 43.87V72.84C13 89.1987 26.2613 102.46 42.62 102.46H253.64C269.999 102.46 283.26 89.1987 283.26 72.84V43.87C283.26 27.5113 269.999 14.25 253.64 14.25Z" fill="url(#paint0_linear_4_1553)"/>
<path d="M253.65 15.42H42.62C26.9075 15.42 14.17 28.1575 14.17 43.87V72.85C14.17 88.5625 26.9075 101.3 42.62 101.3H253.65C269.363 101.3 282.1 88.5625 282.1 72.85V43.87C282.1 28.1575 269.363 15.42 253.65 15.42Z" fill="url(#paint1_linear_4_1553)"/>
<path d="M211.02 79.16C208.42 77.34 207.68 74.79 208.12 71.76C209.12 64.74 210.09 57.71 211.12 50.7C211.52 47.95 211.85 45.18 212.41 42.45C213.2 38.66 216.11 36.38 220.58 36.99C222.82 37.3 225.05 37.61 227.29 37.92C228.61 37.79 229.88 38.16 231.17 38.31C232.97 38.53 234.76 38.85 236.56 39.09C236.9 39.14 237.25 39.17 237.55 39.35C237.82 39.67 237.75 40.05 237.7 40.41C237.48 41.94 237.27 43.47 237.04 45C236.92 45.84 236.76 45.96 235.89 45.85C232.78 45.44 229.68 44.9 226.56 44.53C225.51 44.41 224.47 44.21 223.39 44.41C220.84 44.87 219.19 46.32 218.5 48.82C217.91 50.94 217.73 53.14 217.4 55.3C216.98 58.09 216.58 60.87 216.21 63.67C216.05 64.88 215.87 66.09 216.16 67.32C216.41 68.38 216.85 69.32 217.61 70.11C218.16 70.71 218.56 71.44 219.18 72C220.19 72.92 221.42 73.29 222.71 73.54C225.58 74.03 228.46 74.41 231.34 74.84C231.73 74.9 232.13 74.91 232.46 75.14C232.65 75.41 232.62 75.71 232.58 76.01C232.31 77.97 232 79.92 231.72 81.88C231.67 82.19 231.68 82.54 231.37 82.75C231.08 82.88 230.79 82.84 230.49 82.8C225.43 82.07 220.36 81.38 215.31 80.6C213.81 80.37 212.29 80.16 211.04 79.16H211.02Z" fill="#FEFEFE"/>
<path d="M217.6 70.31C216.59 69.5 216.16 68.39 215.92 67.17C215.56 65.34 216.04 63.56 216.26 61.77C216.52 59.66 216.82 57.54 217.17 55.44C217.6 52.85 217.65 50.17 218.68 47.7C219.49 45.76 221.03 44.68 223.05 44.27C224.94 43.89 226.79 44.39 228.65 44.62C230.7 44.88 232.73 45.21 234.77 45.51C235.22 45.58 235.71 45.54 236.13 45.69C236.67 45.88 236.75 45.56 236.81 45.22C236.98 44.16 237.13 43.09 237.25 42.02C237.35 41.16 237.6 40.31 237.53 39.42C237.96 39.19 238.39 39.4 238.82 39.39C242.2 39.88 245.58 40.37 248.96 40.86C249.33 40.91 249.68 40.99 250 41.19C252.19 41.54 254.41 41.73 256.56 42.32C258.07 42.74 259.3 43.56 260.23 44.82C261.25 45.78 261.52 47.04 261.56 48.35C261.63 50.37 261.24 52.35 260.95 54.33C260.21 59.33 259.52 64.34 258.77 69.33C258.72 69.69 258.7 70.07 258.52 70.4C258.29 70.6 258.04 70.48 257.8 70.42C255.41 69.81 253.11 70.04 250.87 71.05C250.67 71.14 250.46 71.28 250.23 71.11C250.08 70.87 250.15 70.62 250.19 70.37C250.94 65.56 251.64 60.75 252.27 55.92C252.3 55.69 252.3 55.46 252.3 55.23C252.3 54.76 252.37 54.29 252.23 53.82C251.78 51.35 250.34 49.77 247.95 49.07C245.75 48.43 243.46 48.26 241.2 47.92C236.84 47.26 232.48 46.66 228.12 46.04C226.84 45.86 225.56 45.68 224.27 45.95C221.9 46.45 220.41 47.92 219.73 50.21C219.12 52.3 218.94 54.47 218.63 56.62C218.17 59.77 217.68 62.92 217.31 66.08C217.17 67.26 217.19 68.43 217.57 69.57C217.65 69.8 217.77 70.05 217.6 70.3V70.31Z" fill="#C7E9F5"/>
<path d="M259.98 71.01C259.47 70.81 258.95 70.61 258.44 70.41C258.93 66.97 259.44 63.52 259.92 60.08C260.4 56.66 260.91 53.24 261.34 49.81C261.56 48.05 261.24 46.36 260.24 44.85C261.78 46.08 263.42 47.2 264.45 48.94C265.27 50.31 265.38 51.83 265.21 53.36C264.77 57.41 264.09 61.43 263.52 65.47C263.21 67.66 262.89 69.85 262.58 72.03C262.26 72.17 262.02 71.95 261.76 71.83C261.17 71.56 260.58 71.27 259.98 71.02V71.01Z" fill="#0BCEFB"/>
<path d="M245.95 84.84C246.59 86.06 247.43 87.11 248.42 88.06C246.27 87.77 244.13 87.48 241.98 87.17C236.66 86.41 231.34 85.65 226.03 84.86C223.14 84.43 220.22 84.12 217.36 83.5C215.93 83.19 214.67 82.59 213.61 81.56C212.77 80.74 211.89 79.96 211.02 79.16C213.6 80.41 216.44 80.53 219.2 80.96C222.99 81.55 226.8 82.07 230.6 82.61C230.83 82.64 231.06 82.65 231.29 82.67C232.46 82.52 233.58 82.85 234.71 83.01C238.19 83.48 241.66 83.99 245.13 84.51C245.44 84.56 245.71 84.63 245.95 84.83V84.84Z" fill="#0BCEFB"/>
<path d="M250.01 41.2C247.94 40.91 245.88 40.62 243.81 40.33C242.33 40.12 240.86 39.91 239.38 39.69C239.18 39.66 238.98 39.6 238.78 39.56C238.36 39.13 238.35 38.56 238.33 38.02C238.26 35.98 239.21 34.37 240.53 32.93C240.63 32.83 240.75 32.77 240.89 32.74C241.71 32.82 242.43 33.23 243.22 33.45C243.65 33.4 243.95 33.7 244.29 33.88C245.75 34.67 246.96 35.75 247.97 37.06C248.07 37.19 248.18 37.3 248.19 37.48C248.9 38.67 249.6 39.86 250.01 41.2Z" fill="#4D96EF"/>
<path d="M240.9 32.73C240.38 33.43 239.77 34.05 239.34 34.83C238.51 36.34 238.28 37.9 238.79 39.55C238.37 39.57 237.95 39.53 237.54 39.42C234.12 38.92 230.71 38.42 227.29 37.92C227.53 37.91 227.63 37.73 227.75 37.56C228.41 36.64 229.2 35.84 230.06 35.12C230.2 34.88 230.36 34.67 230.59 34.5C232.07 33.5 233.68 32.78 235.43 32.41C235.63 32.37 235.84 32.32 236.02 32.47C237.66 32.29 239.29 32.25 240.89 32.74L240.9 32.73Z" fill="#86C1F2"/>
<path d="M236.03 32.47C233.83 32.87 231.83 33.73 230.06 35.12C229.71 33.9 229.06 32.8 228.58 31.64C228.25 30.85 227.86 30.09 227.55 29.3C226.92 27.72 227.46 26.35 228.98 25.61C229.77 25.23 230.55 24.84 231.49 25.07C232.38 25.29 233.03 25.79 233.41 26.61C234.3 28.56 235.16 30.51 236.04 32.47H236.03Z" fill="#515475"/>
<path d="M248.19 37.48C247.15 36.32 246.12 35.15 244.76 34.34C244.25 34.04 243.74 33.74 243.22 33.45C244.61 31.82 245.99 30.18 247.39 28.56C248.29 27.52 249.82 27.33 250.97 28.09C251.47 28.42 251.92 28.83 252.3 29.29C253.08 30.2 253.18 31.62 252.42 32.56C251.05 34.24 249.6 35.84 248.18 37.48H248.19Z" fill="#515475"/>
<path d="M250.3 71.12C248.09 72.39 246.5 74.2 245.54 76.57C244.69 77.12 243.75 76.95 242.85 76.85C239.63 76.51 236.43 75.97 233.22 75.53C232.92 75.49 232.63 75.44 232.4 75.21C229.22 74.74 226.04 74.26 222.87 73.78C222.76 73.76 222.66 73.71 222.55 73.67C219.16 72.36 218.52 69.39 218.81 66.94C219.35 62.4 220.07 57.89 220.74 53.38C220.86 52.6 221.05 51.84 221.31 51.1C222.15 48.69 224.27 47.17 226.83 47.11C228.22 47.08 229.59 47.33 230.95 47.53C236.29 48.3 241.64 49.02 246.97 49.89C248.6 50.15 250.08 50.72 251.2 52.02C251.74 52.64 252.17 53.3 252.35 54.11C252.46 54.47 252.38 54.84 252.47 55.2C252.47 56.84 252.14 58.45 251.92 60.06C251.45 63.45 250.93 66.84 250.42 70.23C250.38 70.53 250.33 70.82 250.28 71.11L250.3 71.12Z" fill="#2195F2"/>
<path d="M232.4 75.21C235.86 75.69 239.32 76.18 242.78 76.65C243.7 76.77 244.62 76.71 245.53 76.57C244.54 79.38 244.68 82.14 245.94 84.84C242.19 84.3 238.43 83.76 234.68 83.21C233.55 83.04 232.41 82.86 231.28 82.68C231.62 82.04 231.56 81.31 231.69 80.63C231.97 79.06 232.17 77.48 232.4 75.9C232.43 75.68 232.4 75.44 232.4 75.21Z" fill="#C7E9F5"/>
<path d="M252.24 54.24C251.55 51.98 249.92 50.75 247.71 50.24C245.68 49.77 243.6 49.56 241.53 49.25C239.47 48.95 237.4 48.65 235.34 48.35C233.16 48.04 230.98 47.76 228.8 47.43C227.63 47.25 226.46 47.2 225.31 47.52C222.98 48.18 221.73 49.83 221.19 52.09C220.72 54.1 220.53 56.16 220.21 58.2C219.88 60.31 219.57 62.41 219.3 64.53C219.1 66.05 218.79 67.57 219.05 69.12C219.41 71.23 220.6 72.65 222.53 73.5C222.55 73.5 222.58 73.52 222.58 73.53C222.58 73.57 222.56 73.61 222.54 73.65C220.33 73.35 218.69 72.22 217.59 70.29C216.69 68.21 217.05 66.08 217.36 63.95C217.89 60.25 218.43 56.56 218.97 52.86C219.15 51.63 219.33 50.39 219.85 49.24C220.9 46.95 222.7 45.73 225.22 45.63C227.17 45.55 229.08 45.97 230.99 46.24C235.33 46.85 239.66 47.49 243.99 48.12C245.56 48.35 247.16 48.5 248.65 49.1C250.75 49.95 252.07 51.47 252.38 53.77C252.39 53.94 252.57 54.17 252.23 54.22L252.24 54.24Z" fill="#1A79D2"/>
<path d="M252.24 54.24C252.41 54.13 252.36 53.95 252.39 53.79C252.59 54.25 252.5 54.73 252.49 55.2C252.26 54.92 252.47 54.52 252.24 54.23V54.24Z" fill="#2786DC"/>
<path d="M248.68 62.51C248.46 64.12 248.26 65.74 248.03 67.35C247.84 68.66 247.62 69.97 247.39 71.28C247.03 73.34 245.34 74.51 243.26 74.19C241.11 73.85 238.96 73.55 236.8 73.23C236.39 73.17 235.98 73.1 235.59 72.97C234.73 72.68 234.48 71.8 235.12 71.17C237.36 68.98 239.64 66.83 241.89 64.65C243.02 63.56 244.12 62.43 245.23 61.33C245.46 61.1 245.71 60.91 245.96 60.7C247.28 59.56 248.45 60.64 248.62 61.9C248.65 62.1 248.62 62.32 248.62 62.52C248.64 62.52 248.65 62.52 248.67 62.52L248.68 62.51Z" fill="#2DAEF7"/>
<path d="M226.62 49.81C227.91 49.81 228.73 50.81 228.51 52.13C228.25 53.64 226.83 55.06 225.33 55.32C224.02 55.55 223 54.73 223 53.45C223 51.69 224.86 49.82 226.62 49.81Z" fill="#FEFEFE"/>
<path d="M247.25 67.58C250.33 66.04 253.52 65.73 256.83 66.74C257.55 66.6 258.09 67.05 258.69 67.29C261.18 68.67 263.08 70.61 264.29 73.2C265.59 76.14 265.79 79.14 264.75 82.2C263.39 85.99 260.81 88.57 257.04 89.98C255 90.67 252.93 90.95 250.83 90.26C248.68 89.8 246.76 88.85 245.04 87.48C244.07 87.12 243.62 86.22 243.02 85.48C242.58 84.94 242.24 84.33 241.93 83.7C240.4 80.54 240.24 77.31 241.43 74.01C242.44 71.46 244.03 69.38 246.37 67.9C246.64 67.73 246.88 67.48 247.24 67.57L247.25 67.58Z" fill="#E83323"/>
<path d="M257.16 89.77C259.73 88.69 261.88 87.09 263.36 84.68C263.83 83.92 264.18 83.11 264.53 82.29C265.46 82.16 266.21 82.59 266.93 83.09C265.53 86.95 262.85 89.48 258.96 90.74C258.49 90.56 258 90.43 257.55 90.2C257.37 90.11 257.12 90.07 257.16 89.77Z" fill="#6B1A3C"/>
<path d="M266.93 83.09C266.13 82.82 265.33 82.56 264.53 82.29C265.52 79.19 265.39 76.16 264.05 73.18C264.97 73.02 265.64 73.57 266.36 73.97C267.24 75.23 267.44 76.7 267.58 78.16C267.74 79.84 267.53 81.49 266.93 83.09Z" fill="#A4255B"/>
<path d="M266.36 73.97C265.54 73.85 264.85 73.37 264.05 73.18C262.89 70.66 260.98 68.85 258.64 67.45C259.76 67.58 260.69 68.2 261.7 68.63C263.47 69.82 265.01 71.25 266.05 73.15C266.19 73.41 266.37 73.65 266.36 73.97Z" fill="#F66C60"/>
<path d="M257.16 89.77C257.69 90.23 258.51 90.13 258.96 90.74C256.2 91.51 253.48 91.47 250.83 90.28C252.98 90.62 255.09 90.42 257.16 89.77Z" fill="#A3255A"/>
<path d="M248.88 71.69C247.77 71.69 246.94 70.96 246.92 69.95C246.89 68.7 248.22 67.48 249.65 67.46C250.77 67.45 251.64 68.19 251.65 69.16C251.66 70.48 250.35 71.69 248.89 71.7L248.88 71.69Z" fill="#F76C60"/>
<path d="M257.8 75.67C259.18 76.08 259.6 77.83 258.56 78.82L255.64 81.6L252.72 84.38C251.68 85.37 249.95 84.86 249.61 83.46L248.67 79.54L247.73 75.62C247.39 74.22 248.7 72.98 250.08 73.39L253.94 74.53L257.8 75.67Z" fill="white"/>
<path d="M59.447 39.2021C61.6854 40.9273 62.7991 43.2312 62.8756 46.0156C62.9411 48.1993 62.8865 50.394 62.8865 52.5887C62.8865 52.829 62.8865 53.0692 62.8865 53.4404C63.9675 52.5014 64.9393 51.6606 66.0748 51.0383C68.204 49.8809 68.2695 49.9464 69.3614 51.9118C71.4688 55.7116 71.9492 59.697 70.3223 63.8352C70.0821 64.0536 69.7763 64.0536 69.4815 64.0536C65.4634 63.9335 61.74 65.1237 58.0931 66.6305C57.7983 66.7506 57.5035 66.8925 57.1977 67.0017C56.761 67.1546 56.4662 67.0563 56.4116 66.5541C56.4225 65.2547 56.7282 64.0099 57.0558 62.7652C57.4925 61.6296 57.6127 60.4722 57.6017 59.2602C57.569 55.9518 57.5581 52.6433 57.6017 49.3349C57.6345 46.9327 56.9029 44.8909 55.0795 43.2749C54.9812 43.1876 54.9048 43.1002 54.8392 42.991C54.7082 42.7617 54.8392 42.6089 55.003 42.4887C56.3788 41.4078 57.7437 40.3159 59.1741 39.3004C59.2614 39.2458 59.3597 39.2349 59.458 39.2131L59.447 39.2021Z" fill="#F3BA48"/>
<path d="M7.84429 43.1657C8.43392 41.244 9.62408 39.759 11.3165 38.7436C17.8788 34.8018 24.4847 30.9147 31.0688 27.0166C31.9533 26.4925 32.9251 26.1759 33.9514 26.0885C34.3882 26.0012 34.5738 26.296 34.5957 26.6236C34.7267 28.3924 35.0542 30.1613 34.9232 31.9411C34.7704 32.3451 34.3773 32.3451 34.0497 32.3997C33.1325 32.5744 32.2808 32.9129 31.4838 33.3933C26.7449 36.2213 22.0171 39.0821 17.2455 41.8664C15.5967 42.8272 14.1991 43.9956 13.2273 45.6552C13.0308 45.7535 12.8342 45.7317 12.6486 45.6443C11.12 44.9237 9.55856 44.2576 8.08451 43.4387C7.97532 43.3732 7.88797 43.2968 7.83337 43.1767L7.84429 43.1657Z" fill="#FEFEFE"/>
<path d="M1.00913 63.8243C-0.72698 59.293 -0.0500068 55.0455 2.51594 51.0273C3.08372 50.1429 3.33486 50.1211 4.32848 50.5469C5.38762 50.9946 6.26113 51.748 7.24383 52.3158C8.2047 52.7744 8.89259 53.5933 9.58048 54.3467C10.7597 55.6351 11.7861 57.0328 12.605 58.5832C12.8125 59.02 13.0309 59.4458 13.2602 59.8717C14.1446 62.0118 14.8106 64.2174 14.9198 66.5541C14.7997 67.2965 14.3521 67.0782 13.9262 66.8925C12.1683 66.1282 10.3885 65.4403 8.53227 64.9271C6.5887 64.3812 4.60145 64.0536 2.58145 63.9553C2.05735 63.9335 1.50048 64.2502 0.99821 63.8352L1.00913 63.8243Z" fill="#F3BA48"/>
<path d="M34.7814 32.1158C34.7923 30.336 34.4975 28.5671 34.432 26.7983C34.4211 26.5035 34.4101 26.1322 33.9515 26.0995C35.9825 25.7719 37.8278 26.2742 39.5748 27.3005C44.7831 30.4015 50.0024 33.4807 55.1998 36.5926C56.6301 37.4442 58.1151 38.1976 59.4472 39.2131C57.9513 40.4578 56.4227 41.6698 54.8176 42.7617C54.5446 42.8818 54.3372 42.6962 54.1297 42.5761C49.0633 39.5188 43.9642 36.527 38.8978 33.4697C37.8168 32.8146 36.6594 32.3997 35.3928 32.3233C35.1745 32.3123 34.9342 32.3233 34.7814 32.1267V32.1158Z" fill="#F8E06F"/>
<path d="M10.6724 81.5348C5.25662 79.4712 1.41316 75.9334 0.157484 70.07C-0.202841 68.3775 -0.039057 68.2138 1.65338 68.1264C2.27575 68.0936 2.89813 68.0936 3.50959 68.1919C5.44224 68.8361 7.12376 69.9608 8.84895 70.9981C12.1683 72.9744 15.3239 75.2128 18.3157 77.6586C18.6105 77.8988 19.1127 78.0299 19.0363 78.5758C18.8507 78.7614 18.5995 78.8051 18.3593 78.8597C15.9462 79.3947 13.5987 80.1045 11.4476 81.3711C11.2074 81.513 10.9454 81.6004 10.6615 81.5458L10.6724 81.5348Z" fill="#F3BA48"/>
<path d="M67.68 68.181C68.6191 68.0499 69.569 68.0936 70.508 68.181C71.0431 68.2246 71.2942 68.4758 71.2833 69.0545C71.2396 70.3757 70.9011 71.6095 70.377 72.7997C68.5317 76.9925 65.3434 79.7441 61.1069 81.3601C60.8011 81.3929 60.5282 81.2727 60.2552 81.1526C57.7111 79.9734 55.0469 79.2746 52.2625 79.0016C52.0441 78.9798 51.8149 78.9798 51.662 78.7832C52.1097 78.2264 52.7539 77.9097 53.2998 77.462C57.4927 74.0772 61.9258 71.0636 66.7301 68.5959C67.0358 68.4321 67.3634 68.312 67.691 68.1919L67.68 68.181Z" fill="#F3BA48"/>
<path d="M55.2214 82.9761C56.7391 83.9697 58.0603 85.1599 58.9884 86.7322C59.6435 87.8459 59.5671 88.1298 58.4097 88.6758C55.8656 89.8769 53.1577 90.3136 50.3734 90.3355C48.9976 90.3464 47.6327 90.2809 46.2897 89.986C46.0822 89.8004 46.0932 89.5384 46.0495 89.2982C45.8639 88.3482 45.6673 87.3873 45.3179 86.4811C45.0886 85.8915 45.2196 85.4547 45.6782 85.0179C46.6391 84.1117 47.5781 83.1836 48.266 82.048C48.4626 81.7313 48.6373 81.4038 48.7028 81.0325C48.8229 80.2573 48.943 80.159 49.7292 80.3556C50.9412 80.6613 52.1095 81.0762 53.2341 81.6112C53.7473 81.8514 54.2496 82.1353 54.7409 82.4411C54.9484 82.5721 55.1777 82.6922 55.2214 82.9761Z" fill="#F3BA48"/>
<path d="M24.9105 90.0079C20.8705 90.7177 16.9288 90.3792 13.129 88.7959C12.9434 88.7195 12.7687 88.6212 12.6049 88.523C11.8515 88.0862 11.7751 87.8678 12.1791 87.0817C13.0744 85.3237 14.4939 84.0571 16.1208 82.9871C16.1754 82.7141 16.3938 82.5831 16.6012 82.452C18.1299 81.4693 19.8114 80.8579 21.5475 80.3884C22.2791 80.1918 22.4319 80.301 22.563 81.0326C22.6285 81.4147 22.7704 81.7532 22.9779 82.059C23.7094 83.129 24.5065 84.1554 25.5329 84.9634C26.0352 85.3565 26.188 85.7823 25.9587 86.3938C25.5875 87.3546 25.3473 88.3373 25.2381 89.3637C25.2053 89.6258 25.118 89.8441 24.9105 90.0188V90.0079Z" fill="#F3BA48"/>
<path d="M55.2216 82.9761C53.4855 81.7641 51.5419 81.0326 49.511 80.4975C49.0851 80.3883 48.9541 80.3883 48.8995 80.9889C48.8122 82.0917 47.9714 82.8779 47.2726 83.6859C46.7922 84.2536 46.2462 84.7777 45.6894 85.2691C45.329 85.5857 45.2963 85.8587 45.4491 86.2955C45.875 87.4856 46.2244 88.7086 46.279 89.9861C43.7021 89.5602 41.3 88.6976 39.1162 87.2454C38.9305 87.1253 38.7668 86.9615 38.5156 86.9724C38.6467 86.4811 39.0834 86.2409 39.4328 85.9461C40.0224 85.4547 40.6557 85.018 41.3327 84.6467C42.3154 84.1008 42.3154 83.3364 41.3327 82.725C40.8523 82.4193 40.3391 82.1572 39.9023 81.786C39.6949 81.6113 39.4328 81.4693 39.5202 81.1308C39.7713 80.8579 40.077 80.6831 40.4155 80.563C42.3591 79.9953 44.3245 79.6459 46.3663 79.755C46.8249 79.7769 47.1197 79.5148 47.3054 79.1436C47.6766 78.4339 48.2553 78.1827 49.0305 78.2591C49.9041 78.3356 50.8103 78.2482 51.6402 78.6413C53.0596 78.8706 54.4791 79.0235 55.8767 79.3729C57.6893 79.8315 59.4472 80.4211 61.096 81.3274C59.5018 82.0589 57.8094 82.3974 56.0842 82.6595C55.7784 82.7032 55.429 82.6267 55.2107 82.9434L55.2216 82.9761Z" fill="#D05528"/>
<path d="M24.9106 90.0079C25.1071 88.654 25.3473 87.3109 25.8496 86.0334C26.0352 85.5639 25.7295 85.3892 25.4674 85.1817C24.3974 84.3082 23.5239 83.26 22.7705 82.1135C22.5739 81.8296 22.3337 81.513 22.3665 81.1636C22.4429 80.3337 22.028 80.432 21.4711 80.5958C19.5712 81.1417 17.7478 81.8515 16.1209 82.987C15.6186 82.5285 14.9525 82.7032 14.3738 82.5721C13.1181 82.2992 11.8734 82.048 10.6832 81.5458C11.8843 80.9561 13.0308 80.2901 14.2974 79.8206C15.8588 79.2419 17.4639 78.8706 19.0799 78.4994C19.6695 78.0189 20.412 78.1827 21.078 78.0408C21.5803 77.9316 22.1153 77.9971 22.6285 77.9097C23.0871 77.8442 23.4147 78.0954 23.5894 78.4666C24.1135 79.6131 24.9979 79.9407 26.1772 79.7878C26.9197 79.6895 27.6512 79.8861 28.3937 79.9843C28.623 80.0499 28.8632 80.1045 29.1034 80.1372C29.7477 80.3774 30.5229 80.301 30.9706 80.967C30.8286 81.6877 30.1189 81.8406 29.6712 82.2446C29.3437 82.4739 28.9833 82.6376 28.6558 82.8669C27.9024 83.391 27.8914 84.1008 28.7104 84.5812C29.6385 85.1162 30.5011 85.7386 31.3091 86.4265C31.6366 86.6995 32.0734 86.9179 32.0843 87.4529C30.2063 88.4793 28.2736 89.3637 26.1663 89.8005C25.7513 89.8878 25.3364 89.9533 24.9324 90.0298L24.9106 90.0079Z" fill="#D05528"/>
<path d="M32.0624 87.431C31.1343 86.4156 30.0751 85.5748 28.874 84.8978C28.3936 84.6249 27.8913 84.3846 27.8804 83.7186C27.8695 83.0416 28.3609 82.7905 28.8304 82.5175C29.0706 82.3865 29.2999 82.2445 29.5401 82.1135C29.9113 82.2009 30.1843 82.4738 30.5119 82.6485C31.9859 83.4893 33.8968 83.129 34.9559 81.8078C36.0587 80.4211 36.0369 78.6194 34.8795 77.3092C34.7157 77.1236 34.5191 76.9707 34.4318 76.7196C34.7921 76.3046 35.3599 76.2391 35.8294 76.5776C36.0369 76.7196 36.1897 76.9161 36.3098 77.1345C36.9868 78.4447 37.9258 79.5476 38.985 80.5739C39.1597 80.7923 39.4108 80.9452 39.5418 81.1854C40.0659 81.8405 40.8193 82.1899 41.5182 82.6049C41.944 82.856 42.2825 83.129 42.2716 83.6967C42.2606 84.2427 41.9768 84.5484 41.5072 84.7777C40.3935 85.3455 39.4545 86.1426 38.5264 86.9724C37.5873 87.9333 36.7793 88.9924 36.1242 90.1717C35.5673 91.1653 34.6174 91.1762 34.0605 90.1826C33.4928 89.189 32.8485 88.2499 32.0733 87.4201L32.0624 87.431Z" fill="#F3BA48"/>
<path d="M51.6619 78.6631C50.7229 78.6086 49.773 78.5976 48.8449 78.4994C48.2116 78.4338 47.7966 78.6413 47.5564 79.22C47.2835 79.8861 46.8139 80.0608 46.1042 80.0171C44.379 79.8861 42.6975 80.1372 41.0488 80.6722C40.7976 80.7487 40.5574 80.7487 40.3172 80.7377C40.2953 80.3993 40.5902 80.3556 40.7867 80.2355C44.7939 77.8224 48.8339 75.4639 52.8303 73.029C53.9549 72.3411 55.1123 71.686 56.0404 70.736C56.2916 70.4739 56.6082 70.6159 56.8703 70.4958C59.9167 68.9562 63.2142 68.3775 66.5663 68.0281C66.7628 68.0063 66.9594 67.9954 67.1231 68.1482C67.3088 68.1591 67.4944 68.1701 67.68 68.181C66.1077 69.0872 64.5354 69.9826 62.974 70.8998C59.5563 72.898 56.368 75.2128 53.2779 77.6804C52.7866 78.0735 52.3935 78.6631 51.651 78.6522L51.6619 78.6631Z" fill="#F8E06F"/>
<path d="M28.4593 80.159C27.2254 80.0171 25.9916 79.9297 24.7577 80.0062C24.3974 80.028 24.2336 79.8533 24.0589 79.5803C22.9889 77.9207 22.978 77.9316 20.9798 78.2373C20.3465 78.3356 19.7023 78.4011 19.069 78.4884C15.5968 75.584 11.8953 72.9962 8.00812 70.6814C6.53406 69.8079 5.01633 69.0108 3.50952 68.181C3.73882 68.1701 3.97903 68.1591 4.20833 68.1482C4.7106 67.8425 5.23471 68.0827 5.72606 68.1482C8.99082 68.5304 12.1901 69.1855 15.1054 70.8343C16.2737 71.5877 17.4639 72.3083 18.5558 73.1709C19.8988 74.5249 21.5148 75.5076 23.1417 76.4575C24.7905 77.4184 26.4393 78.3902 28.0771 79.3838C28.361 79.5585 28.7213 79.6786 28.8305 80.0608C28.7541 80.2464 28.623 80.2464 28.4593 80.17V80.159Z" fill="#F8E06F"/>
<path d="M12.4629 58.5941C11.2946 56.7052 9.99522 54.9036 8.37922 53.364C8.00798 53.0146 7.49479 52.8071 7.24365 52.3158C7.24365 50.2521 7.24365 48.1884 7.24365 46.1247C7.24365 45.1093 7.37468 44.1047 7.83327 43.1657C9.36192 43.8864 10.8797 44.607 12.4083 45.3277C12.6485 45.4478 12.8778 45.6225 13.1726 45.5679C13.2818 45.7644 13.2272 45.961 13.1617 46.1466C12.7468 47.3477 12.6922 48.5815 12.7031 49.8372C12.725 52.3813 12.714 54.9145 12.7031 57.4586C12.7031 57.8407 12.7905 58.2666 12.4629 58.5832V58.5941Z" fill="#F8E06F"/>
<path d="M15.149 71.0417C11.7423 69.1855 7.99714 68.574 4.20828 68.1482C2.83249 66.9362 1.59865 65.615 1.00903 63.8243C5.69325 63.4858 9.98439 64.9271 14.1882 66.7833C14.5157 66.9253 14.756 67.0345 14.745 66.5213C15.0835 66.5868 15.0726 66.8707 15.0835 67.1C15.1272 68.4103 15.0835 69.7205 15.149 71.0308V71.0417Z" fill="#DA7332"/>
<path d="M67.1341 68.1482C63.5745 68.5522 60.0477 69.1091 56.7829 70.7251C56.1933 70.4739 56.3134 69.8952 56.2042 69.4257C56.2479 68.716 56.2261 68.0172 56.2479 67.3074C56.2588 67.0126 56.1715 66.6523 56.5864 66.5213C56.5864 67.0126 56.8157 66.9362 57.1542 66.7943C58.8138 66.0627 60.5063 65.4185 62.2424 64.8834C64.8848 64.0864 67.5708 63.6933 70.3224 63.8243C69.7219 65.6041 68.488 66.9253 67.1231 68.1482H67.1341Z" fill="#DA7332"/>
<path d="M56.5971 66.5213C56.346 67.1437 56.5207 67.7988 56.4661 68.4321C56.4334 68.8033 56.4989 69.1746 56.3351 69.524C55.9748 70.736 55.003 71.4239 54.0203 72.0353C51.8256 73.4111 49.5872 74.7214 47.3597 76.0426C44.8484 77.5276 42.348 79.0234 39.8475 80.5193C39.5745 80.6831 39.3234 80.9233 38.9631 80.7705C37.8057 79.7659 36.8994 78.5649 36.1569 77.2437C35.7311 76.4793 35.3489 76.3592 34.5191 76.6868C33.8421 78.1718 32.914 79.4602 31.702 80.5521C31.5491 80.6831 31.4072 80.8142 31.1888 80.8251C29.7803 80.2464 28.5464 79.3619 27.2471 78.5867C24.299 76.8397 21.3072 75.18 18.4683 73.2473C17.3655 72.5049 16.2626 71.7733 15.1598 71.0308C14.9196 70.7251 14.8759 70.3757 14.865 69.9935C14.8541 68.8361 15.007 67.6678 14.7449 66.5104C14.5921 64.4467 14.0679 62.4813 13.3255 60.5596C13.2272 60.3084 13.1398 60.0464 13.0525 59.7952C12.8996 59.3148 12.8669 58.8234 12.8669 58.3212C12.8669 55.2311 12.8996 52.1411 12.8669 49.051C12.8341 46.223 14.0352 44.0829 16.4046 42.6416C19.9096 40.5015 23.4473 38.4051 26.985 36.3195C28.4263 35.4679 29.8676 34.638 31.2762 33.7427C33.8312 32.1267 36.3644 32.1048 38.9412 33.699C42.0313 35.6098 45.1978 37.4114 48.3097 39.3004C50.1004 40.3814 51.9129 41.4405 53.7036 42.5106C55.6581 43.6789 56.9793 45.3277 57.3396 47.6315C57.4051 48.0246 57.4161 48.4286 57.4161 48.8217C57.4161 52.8617 57.4161 56.8908 57.4161 60.9308C57.4161 61.5532 57.3178 62.1646 57.2304 62.7761C56.9902 64.0099 56.6408 65.2329 56.5971 66.5104V66.5213Z" fill="#D05528"/>
<path d="M57.2305 62.787C57.2305 58.2557 57.1759 53.7243 57.2305 49.1821C57.2633 46.223 55.9967 44.0938 53.4963 42.6089C48.5718 39.6826 43.6474 36.7672 38.7448 33.8082C36.3317 32.356 33.9732 32.356 31.5602 33.8082C26.6576 36.7563 21.7331 39.6826 16.8087 42.6089C14.3083 44.0938 13.0307 46.223 13.0744 49.1821C13.129 52.7198 13.0744 56.2575 13.0635 59.7952C12.8014 59.424 12.594 59.02 12.4739 58.5832C12.4739 55.253 12.4739 51.9227 12.4957 48.5815C12.4957 47.5224 12.7359 46.5178 13.1945 45.5679C13.7841 44.2576 14.6904 43.2203 15.9243 42.4778C21.1981 39.3223 26.4719 36.1667 31.7567 33.022C32.6957 32.4652 33.7221 32.1922 34.8031 32.0939C37.0087 31.952 38.7448 33.0985 40.5137 34.1576C45.2852 37.0184 50.0677 39.8682 54.8393 42.7181C56.8593 44.3122 57.8529 46.3977 57.8311 48.9855C57.8092 52.5451 57.7983 56.1046 57.8311 59.6642C57.842 60.7561 57.6455 61.7716 57.2415 62.7652L57.2305 62.787Z" fill="#DB7A3A"/>
<path d="M38.9523 80.7705C40.9395 79.7441 42.8066 78.5103 44.7393 77.3747C47.7202 75.6277 50.6683 73.8151 53.6491 72.0681C54.7519 71.4239 55.6145 70.5613 56.3243 69.524C56.5863 69.8843 56.4007 70.4084 56.7719 70.7251C56.226 70.5504 56.0513 71.0745 55.7456 71.3038C54.2169 72.4612 52.5463 73.4002 50.9085 74.3829C47.3708 76.5012 43.8439 78.6085 40.3062 80.7268C40.0878 80.9343 39.8695 81.1636 39.5419 81.1854C39.258 81.1636 39.1051 80.967 38.9523 80.7705Z" fill="#DB793A"/>
<path d="M31.1999 80.7596C32.3682 79.8315 33.209 78.6413 33.9624 77.3638C34.1153 77.1127 34.1917 76.8069 34.5083 76.6759C36.2772 78.1936 36.4519 80.5412 34.9233 82.1463C33.4383 83.6968 31.0034 83.6749 29.5511 82.1026C29.9988 81.7532 30.4465 81.4038 30.8942 81.0435C30.9378 80.8906 31.0361 80.7814 31.1999 80.7596Z" fill="#FEFEFE"/>
<path d="M31.1998 80.7596C31.1015 80.8579 30.9923 80.9561 30.894 81.0435C30.4355 80.4539 29.6711 80.5958 29.0924 80.2792C28.9832 80.1918 28.8522 80.1263 28.7758 79.9953C26.1334 78.412 23.4801 76.8397 20.8377 75.2455C19.9424 74.7105 19.178 74.0008 18.4574 73.2365C19.724 73.7606 20.8268 74.5686 21.9951 75.2564C25.0743 77.069 28.1316 78.9143 31.1998 80.7487V80.7596Z" fill="#DB793A"/>
<path d="M28.776 80.0062C28.9289 80.0498 29.0381 80.1372 29.0926 80.2901C28.8743 80.2901 28.645 80.3228 28.4594 80.159C28.5685 80.1044 28.6668 80.0608 28.776 80.0062Z" fill="#F2C963"/>
<path d="M24.2782 48.38H31.1102V67H27.1902V51.88H24.2782V48.38ZM48.648 67H44.028L41.032 61.988L37.952 67H33.444L38.596 59.244L33.78 51.88H38.4L41.032 56.248L43.832 51.88H48.34L43.44 59.02L48.648 67Z" fill="white"/>
<path d="M272.25 42.24C283.914 42.24 293.37 32.7843 293.37 21.12C293.37 9.45575 283.914 0 272.25 0C260.586 0 251.13 9.45575 251.13 21.12C251.13 32.7843 260.586 42.24 272.25 42.24Z" fill="url(#paint2_linear_4_1553)"/>
<path d="M113.168 51H109.472L107.816 40.032L102.8 50.976H101.912L96.8963 40.032L95.2403 51H91.5203L94.1603 34.2H97.8083L102.344 44.496L106.904 34.2H110.552L113.168 51ZM125.812 49.776C124.709 50.832 123.237 51.36 121.397 51.36C119.573 51.36 118.101 50.824 116.98 49.752C115.877 48.68 115.325 47.272 115.325 45.528V38.04H118.829V45.12C118.829 46.048 119.053 46.776 119.501 47.304C119.965 47.816 120.597 48.072 121.397 48.072C122.213 48.072 122.845 47.816 123.293 47.304C123.757 46.776 123.989 46.048 123.989 45.12V38.04H127.493V45.528C127.493 47.288 126.933 48.704 125.812 49.776ZM130.68 51V33.36H134.184V51H130.68ZM143.883 47.88H145.467V51H142.995C142.051 51 141.227 50.816 140.523 50.448C139.835 50.08 139.307 49.552 138.939 48.864C138.571 48.16 138.387 47.328 138.387 46.368V40.848H136.035V40.104L141.171 34.656H141.819V38.04H145.395V40.848H141.891V45.912C141.891 46.536 142.059 47.024 142.395 47.376C142.747 47.712 143.243 47.88 143.883 47.88ZM147.86 36.312V33.048H151.364V36.312H147.86ZM147.86 51V38.04H151.364V51H147.86ZM161.807 37.68C163.759 37.68 165.375 38.328 166.655 39.624C167.951 40.92 168.599 42.552 168.599 44.52C168.599 46.488 167.951 48.128 166.655 49.44C165.359 50.736 163.743 51.384 161.807 51.384C160.479 51.384 159.287 51.024 158.231 50.304V55.68H154.727V38.04H157.055L157.655 39.216C158.807 38.192 160.191 37.68 161.807 37.68ZM158.975 47.064C159.647 47.736 160.487 48.072 161.495 48.072C162.519 48.072 163.367 47.736 164.039 47.064C164.711 46.392 165.047 45.544 165.047 44.52C165.047 43.848 164.895 43.24 164.591 42.696C164.287 42.152 163.863 41.728 163.319 41.424C162.791 41.12 162.191 40.968 161.519 40.968C160.847 40.968 160.239 41.12 159.695 41.424C159.151 41.728 158.727 42.152 158.423 42.696C158.135 43.24 157.991 43.848 157.991 44.52C157.991 45.544 158.319 46.392 158.975 47.064ZM171.086 51V33.36H174.59V51H171.086ZM190.529 44.472C190.529 44.808 190.505 45.152 190.457 45.504H180.665C180.809 46.384 181.153 47.064 181.697 47.544C182.257 48.008 182.969 48.24 183.833 48.24C184.425 48.24 184.961 48.112 185.441 47.856C185.921 47.584 186.297 47.216 186.569 46.752H190.265C189.785 48.16 188.969 49.28 187.817 50.112C186.665 50.944 185.337 51.36 183.833 51.36C181.913 51.36 180.313 50.704 179.033 49.392C177.753 48.08 177.113 46.456 177.113 44.52C177.113 43.752 177.217 43.016 177.425 42.312C177.649 41.608 177.961 40.976 178.361 40.416C178.777 39.856 179.257 39.376 179.801 38.976C180.345 38.56 180.961 38.24 181.649 38.016C182.337 37.792 183.065 37.68 183.833 37.68C185.129 37.68 186.289 37.984 187.313 38.592C188.353 39.2 189.145 40.024 189.689 41.064C190.249 42.104 190.529 43.24 190.529 44.472ZM183.833 40.656C183.049 40.656 182.385 40.872 181.841 41.304C181.313 41.736 180.953 42.336 180.761 43.104H187.025C186.865 42.576 186.633 42.136 186.329 41.784C186.025 41.416 185.657 41.136 185.225 40.944C184.809 40.752 184.345 40.656 183.833 40.656ZM99.3788 82L96.1148 76.264H93.7868V82H90.1388V65.2H96.9308C98.0348 65.2 99.0348 65.44 99.9308 65.92C100.827 66.384 101.523 67.04 102.019 67.888C102.531 68.736 102.787 69.696 102.787 70.768C102.787 71.84 102.515 72.808 101.971 73.672C101.427 74.536 100.683 75.192 99.7388 75.64L103.459 82H99.3788ZM93.7868 68.56V72.904H96.6908C97.4268 72.904 98.0108 72.704 98.4428 72.304C98.8908 71.904 99.1148 71.384 99.1148 70.744C99.1148 70.312 99.0188 69.936 98.8268 69.616C98.6348 69.28 98.3548 69.024 97.9868 68.848C97.6188 68.656 97.1868 68.56 96.6908 68.56H93.7868ZM118.037 75.472C118.037 75.808 118.013 76.152 117.965 76.504H108.173C108.317 77.384 108.661 78.064 109.205 78.544C109.765 79.008 110.477 79.24 111.341 79.24C111.933 79.24 112.469 79.112 112.949 78.856C113.429 78.584 113.805 78.216 114.077 77.752H117.773C117.293 79.16 116.477 80.28 115.325 81.112C114.173 81.944 112.845 82.36 111.341 82.36C109.421 82.36 107.821 81.704 106.541 80.392C105.261 79.08 104.621 77.456 104.621 75.52C104.621 74.752 104.725 74.016 104.933 73.312C105.157 72.608 105.469 71.976 105.869 71.416C106.285 70.856 106.765 70.376 107.309 69.976C107.853 69.56 108.469 69.24 109.157 69.016C109.845 68.792 110.573 68.68 111.341 68.68C112.637 68.68 113.797 68.984 114.821 69.592C115.861 70.2 116.653 71.024 117.197 72.064C117.757 73.104 118.037 74.24 118.037 75.472ZM111.341 71.656C110.557 71.656 109.893 71.872 109.349 72.304C108.821 72.736 108.461 73.336 108.269 74.104H114.533C114.373 73.576 114.141 73.136 113.837 72.784C113.533 72.416 113.165 72.136 112.733 71.944C112.317 71.752 111.853 71.656 111.341 71.656ZM135.298 69.04H138.778L134.53 82H131.722L128.77 75.304L125.89 82H123.082L118.786 69.04H122.362L124.906 76.768L128.29 69.136H129.274L132.754 76.792L135.298 69.04ZM150.991 69.016H153.607V81.976H150.847L150.559 80.824C149.375 81.848 147.975 82.36 146.359 82.36C144.407 82.36 142.783 81.712 141.487 80.416C140.207 79.104 139.567 77.464 139.567 75.496C139.567 73.544 140.207 71.92 141.487 70.624C142.783 69.328 144.407 68.68 146.359 68.68C148.007 68.68 149.423 69.208 150.607 70.264L150.991 69.016ZM144.103 78.04C144.775 78.712 145.615 79.048 146.623 79.048C147.647 79.048 148.495 78.712 149.167 78.04C149.839 77.368 150.175 76.52 150.175 75.496C150.175 74.472 149.839 73.624 149.167 72.952C148.495 72.28 147.655 71.944 146.647 71.944C145.975 71.944 145.367 72.104 144.823 72.424C144.295 72.728 143.879 73.152 143.575 73.696C143.271 74.224 143.119 74.824 143.119 75.496C143.119 76.52 143.447 77.368 144.103 78.04ZM163.601 68.968H164.753V72.28H163.241C162.249 72.28 161.537 72.512 161.105 72.976C160.689 73.44 160.481 74.2 160.481 75.256V82H156.977V69.04H159.233L159.857 70.624C160.737 69.52 161.985 68.968 163.601 68.968ZM175.997 64.36H179.501V82H176.909L176.501 80.92C175.349 81.896 173.997 82.384 172.445 82.384C171.149 82.384 169.981 82.088 168.941 81.496C167.901 80.904 167.085 80.088 166.493 79.048C165.917 77.992 165.629 76.816 165.629 75.52C165.629 74.224 165.917 73.056 166.493 72.016C167.085 70.976 167.901 70.16 168.941 69.568C169.981 68.976 171.149 68.68 172.445 68.68C173.757 68.68 174.941 69.032 175.997 69.736V64.36ZM170.189 78.064C170.861 78.736 171.701 79.072 172.709 79.072C173.733 79.072 174.581 78.736 175.253 78.064C175.925 77.376 176.261 76.528 176.261 75.52C176.261 74.496 175.925 73.648 175.253 72.976C174.581 72.304 173.733 71.968 172.709 71.968C171.701 71.968 170.861 72.304 170.189 72.976C169.517 73.648 169.181 74.496 169.181 75.52C169.181 76.544 169.517 77.392 170.189 78.064ZM187.46 82.36C186.388 82.36 185.436 82.168 184.604 81.784C183.788 81.4 183.148 80.856 182.684 80.152C182.236 79.448 182.012 78.64 182.012 77.728H185.42C185.436 78.112 185.532 78.44 185.708 78.712C185.9 78.968 186.156 79.16 186.476 79.288C186.796 79.4 187.164 79.456 187.58 79.456C187.916 79.456 188.22 79.408 188.492 79.312C188.764 79.216 188.988 79.072 189.164 78.88C189.34 78.672 189.428 78.432 189.428 78.16C189.428 77.76 189.22 77.464 188.804 77.272C188.388 77.08 187.764 76.912 186.932 76.768C186.404 76.688 185.964 76.608 185.612 76.528C185.276 76.448 184.868 76.312 184.388 76.12C183.924 75.912 183.548 75.68 183.26 75.424C182.988 75.168 182.748 74.816 182.54 74.368C182.332 73.92 182.228 73.4 182.228 72.808C182.228 71.592 182.708 70.6 183.668 69.832C184.628 69.064 185.884 68.68 187.436 68.68C189.004 68.68 190.26 69.08 191.204 69.88C192.164 70.664 192.644 71.704 192.644 73H189.308C189.308 71.976 188.66 71.464 187.364 71.464C186.82 71.464 186.396 71.576 186.092 71.8C185.788 72.024 185.636 72.328 185.636 72.712C185.636 72.872 185.676 73.024 185.756 73.168C185.852 73.296 185.956 73.4 186.068 73.48C186.196 73.56 186.388 73.64 186.644 73.72C186.9 73.784 187.116 73.832 187.292 73.864C187.468 73.896 187.732 73.944 188.084 74.008C188.388 74.072 188.604 74.12 188.732 74.152C188.86 74.168 189.076 74.208 189.38 74.272C189.684 74.336 189.908 74.4 190.052 74.464C190.212 74.512 190.42 74.584 190.676 74.68C190.948 74.776 191.148 74.88 191.276 74.992C191.42 75.088 191.588 75.208 191.78 75.352C191.988 75.496 192.148 75.656 192.26 75.832C192.372 76.008 192.484 76.2 192.596 76.408C192.708 76.616 192.78 76.856 192.812 77.128C192.86 77.4 192.884 77.688 192.884 77.992C192.884 79.32 192.388 80.384 191.396 81.184C190.404 81.968 189.092 82.36 187.46 82.36Z" fill="white"/>
<path d="M273.104 25.784H277.976V29H266.792V28.256C269.08 25.6 270.712 23.664 271.688 22.448C272.68 21.216 273.344 20.272 273.68 19.616C274.032 18.96 274.208 18.344 274.208 17.768C274.208 17.208 274.04 16.76 273.704 16.424C273.368 16.088 272.928 15.92 272.384 15.92C271.824 15.92 271.368 16.096 271.016 16.448C270.68 16.784 270.512 17.24 270.512 17.816V18.104H267.08V17.768C267.08 16.28 267.56 15.064 268.52 14.12C269.48 13.176 270.752 12.704 272.336 12.704C273.36 12.704 274.28 12.92 275.096 13.352C275.912 13.768 276.544 14.36 276.992 15.128C277.44 15.896 277.664 16.76 277.664 17.72C277.664 18.744 277.352 19.824 276.728 20.96C276.104 22.096 274.896 23.704 273.104 25.784Z" fill="white"/>
<defs>
<linearGradient id="paint0_linear_4_1553" x1="20.67" y1="38.42" x2="278.97" y2="78.83" gradientUnits="userSpaceOnUse">
<stop stop-color="#5B4EFF"/>
<stop offset="1" stop-color="#136FEA"/>
</linearGradient>
<linearGradient id="paint1_linear_4_1553" x1="20.78" y1="39.55" x2="277.29" y2="77.43" gradientUnits="userSpaceOnUse">
<stop stop-color="#2C52E5"/>
<stop offset="1" stop-color="#1473E7"/>
</linearGradient>
<linearGradient id="paint2_linear_4_1553" x1="258.81" y1="5.02" x2="286.73" y2="38.46" gradientUnits="userSpaceOnUse">
<stop stop-color="#EF6340"/>
<stop offset="1" stop-color="#EF785B"/>
</linearGradient>
</defs>
</svg>
