<svg width="30" height="30" viewBox="0 0 30 30" fill="none" xmlns="http://www.w3.org/2000/svg">
<path d="M29.1 15.41C29.1 7.37424 22.5857 0.859985 14.55 0.859985C6.51425 0.859985 0 7.37424 0 15.41C0 23.4457 6.51425 29.96 14.55 29.96C22.5857 29.96 29.1 23.4457 29.1 15.41Z" fill="#5C86FC"/>
<path d="M14.55 28.42C7.37003 28.42 1.54004 22.58 1.54004 15.41C1.54004 8.23996 7.38003 2.39996 14.55 2.39996C21.72 2.39996 27.56 8.23996 27.56 15.41C27.56 22.58 21.72 28.42 14.55 28.42Z" fill="white"/>
<path d="M9.41003 10.98C9.55003 10.65 9.80003 10.52 10.16 10.52C11.74 10.52 13.31 10.52 14.89 10.52C14.96 10.52 15.06 10.49 15.1 10.55C15.15 10.63 15.05 10.69 15.01 10.75C14.68 11.2 14.35 11.65 14.03 12.1C13.94 12.23 13.83 12.28 13.68 12.27C12.92 12.27 12.16 12.27 11.41 12.27C11.22 12.27 11.17 12.32 11.17 12.51C11.17 14.78 11.17 17.05 11.17 19.31C11.17 19.48 11.22 19.54 11.4 19.54C13.67 19.54 15.95 19.54 18.22 19.54C18.4 19.54 18.44 19.47 18.44 19.3C18.44 18.57 18.44 17.84 18.44 17.11C18.44 16.89 18.49 16.75 18.68 16.63C19.13 16.32 19.57 15.98 20.01 15.66C20.06 15.63 20.1 15.56 20.17 15.6C20.22 15.63 20.2 15.7 20.2 15.75C20.2 17.39 20.2 19.02 20.2 20.66C20.2 20.97 20.02 21.16 19.74 21.29C16.36 21.29 12.98 21.29 9.60004 21.29C9.45004 21.29 9.42002 21.26 9.43002 21.12C9.43002 17.74 9.43002 14.36 9.43002 10.98H9.41003ZM21.66 8.70998C21.66 8.60998 21.64 8.59998 21.55 8.59998C20.94 8.59998 20.34 8.59998 19.73 8.59998C19.49 8.61998 19.25 8.64998 19.01 8.66998C18.01 8.73998 17.03 8.90998 16.06 9.15998C15.87 9.20998 15.7 9.28998 15.65 9.49998C15.6 9.72998 15.72 9.87998 15.88 10.02C16.21 10.29 16.53 10.56 16.85 10.84C17.2 11.16 17.18 11.04 16.91 11.41C16.18 12.42 15.43 13.42 14.7 14.43C14.49 14.72 14.51 14.92 14.76 15.18C14.92 15.34 15.07 15.49 15.23 15.65C15.57 15.99 15.73 16 16.12 15.71C17.15 14.96 18.18 14.21 19.2 13.45C19.34 13.35 19.41 13.37 19.51 13.49C19.75 13.79 20.01 14.08 20.26 14.38C20.39 14.54 20.54 14.65 20.76 14.61C20.97 14.56 21.06 14.4 21.11 14.21C21.34 13.34 21.48 12.45 21.56 11.56C21.6 11.13 21.63 10.69 21.67 10.26C21.67 9.74998 21.67 9.22998 21.67 8.71998L21.66 8.70998Z" fill="#3D6AFF"/>
</svg>
