<svg width="229" height="102" viewBox="0 0 229 102" fill="none" xmlns="http://www.w3.org/2000/svg">
<path d="M121.108 84.3351C121.108 84.3351 125.429 89.5622 129.947 89.478C160.054 88.917 211.969 101 217.997 101C224.026 101 228.5 100.552 228.5 99.4796C228.5 98.4075 207.309 28.0994 207.309 28.0994L203.107 27.0273L217.539 95.6504C217.539 95.6504 199.636 93.5059 163.466 88.451C127.296 83.3961 128.78 79.1277 124.396 79.8936C120.011 80.6588 121.108 84.3351 121.108 84.3351Z" fill="#3AE3B9" stroke="#171717" stroke-miterlimit="10"/>
<path d="M222.289 99.173C216.078 98.8665 203.997 96.2289 174.191 91.0979C144.384 85.967 122.02 82.8572 122.02 82.8572L121.393 84.6602C122.424 85.799 126.114 89.5498 129.948 89.4784C160.055 88.9174 211.969 101 217.997 101C224.026 101 228.5 100.552 228.5 99.4799C228.5 99.3915 225.387 99.3259 222.289 99.173Z" fill="#171717" stroke="#171717" stroke-miterlimit="10"/>
<path d="M23.5569 25.3621C23.5569 25.3621 21.3649 25.9747 20.9994 27.3533C20.6338 28.7318 -0.374168 99.3461 1.63547 99.4994C3.64511 99.6526 114.348 100.265 115.627 99.1928C116.905 98.1208 121.107 84.3347 121.107 84.3347L111.79 94.9039L15.7016 92.9127L27.2101 27.0468L23.5569 25.3621Z" fill="#3AE3B9" stroke="#171717" stroke-miterlimit="10"/>
<path d="M115.627 99.1931C116.906 98.121 121.108 84.335 121.108 84.335L120.491 85.0345L114.714 97.5084L2.75302 98.7174L1.63599 99.4996C3.64516 99.6528 114.348 100.265 115.627 99.1931Z" fill="#171717" stroke="#171717" stroke-miterlimit="10"/>
<path d="M26.1143 24.4433L23.5567 25.3621L5.83691 97.202L114.714 97.5086L122.021 81.7313L19.7207 85.867L29.2201 24.29L26.1143 24.4433Z" fill="white" stroke="#171717" stroke-miterlimit="10"/>
<path d="M13.1444 88.1646L8.18065 95.0877L5.83691 97.202L114.714 97.5085L122.021 81.7312L19.7207 85.8669L13.1444 88.1646Z" fill="#F3F3F3" stroke="#171717" stroke-miterlimit="10"/>
<path d="M122.021 81.7311V67.6389L34.1525 75.7571L27.5762 85.4074L122.021 81.7311Z" fill="#B0B0B0" stroke="#171717" stroke-miterlimit="10"/>
<path d="M30.1337 16.6314L27.5762 16.9379L13.1445 88.1648C13.1445 88.1648 25.0187 87.3989 41.0944 84.1824C57.1702 80.9655 89.8695 76.0638 100.83 77.4424C111.791 78.821 121.108 84.3353 121.108 84.3353C121.108 84.3353 134.785 86.6124 150.13 89.2163C165.476 91.8202 188.31 95.803 203.473 97.9475C218.635 100.092 222.289 99.1728 222.289 99.1728L203.473 25.801L201.646 25.3416L211.693 91.8202C211.693 91.8202 148.326 77.1355 139.923 77.1355C131.52 77.1355 126.953 69.63 110.146 66.8725C93.34 64.1153 74.524 69.6296 58.631 71.9274C42.738 74.2251 29.2198 78.0543 29.2198 78.0543L33.4214 16.6306H30.1337V16.6314Z" fill="#F3F3F3" stroke="#171717" stroke-miterlimit="10"/>
<path d="M19.7209 85.867L13.1445 88.1648L27.5762 16.9375L33.4219 16.6313L19.7209 85.867Z" fill="white" stroke="#171717" stroke-miterlimit="10"/>
<path d="M119.828 7.13398C119.828 7.13398 121.472 4.68298 136.452 7.89989C151.432 11.1168 167.119 19.2144 179.907 20.7462C192.694 22.2781 201.097 23.8099 201.097 23.8099L218.452 97.641C218.452 97.641 190.137 94.4245 163.466 88.4505C136.795 82.4768 125.491 78.5145 122.021 81.7311L119.828 7.13398Z" fill="white" stroke="#171717" stroke-miterlimit="10"/>
<path d="M165.08 27.3044C165.08 27.3044 166.003 27.3044 196.436 32.9107" stroke="#171717" stroke-miterlimit="10"/>
<path d="M165.383 30.4097C165.383 30.4097 166.235 30.4442 176.736 32.3307C181.568 33.1994 188.56 34.5302 197.084 36.1005" stroke="#171717" stroke-miterlimit="10"/>
<path d="M165.686 33.5151C165.686 33.5151 166.937 33.5846 177.173 35.4241C182.252 36.3382 189.777 37.825 197.733 39.2905" stroke="#171717" stroke-miterlimit="10"/>
<path d="M165.988 36.6204C165.988 36.6204 167.638 36.7243 177.61 38.5173C182.936 39.4764 190.993 41.1196 198.381 42.4803" stroke="#171717" stroke-miterlimit="10"/>
<path d="M166.291 39.7256C166.291 39.7256 168.34 39.8641 178.048 41.6105C183.62 42.615 192.21 44.4142 199.03 45.6702" stroke="#171717" stroke-miterlimit="10"/>
<path d="M166.594 42.8308C166.594 42.8308 169.04 43.0042 178.485 44.7037C184.304 45.7532 193.427 47.7088 199.678 48.86" stroke="#171717" stroke-miterlimit="10"/>
<path d="M166.896 45.936C166.896 45.936 169.742 46.144 178.922 47.7969C184.988 48.8918 194.644 51.0033 200.327 52.0502" stroke="#171717" stroke-miterlimit="10"/>
<path d="M167.199 49.041C167.199 49.041 170.443 49.2835 179.359 50.8895C185.671 52.0294 195.861 54.2969 200.975 55.2393" stroke="#171717" stroke-miterlimit="10"/>
<path d="M167.501 52.1462C167.501 52.1462 171.145 52.4233 179.796 53.9826C186.355 55.1676 197.077 57.5914 201.623 58.4291" stroke="#171717" stroke-miterlimit="10"/>
<path d="M167.804 55.2515C167.804 55.2515 171.846 55.5634 180.234 57.0758C187.039 58.3062 198.294 60.886 202.272 61.6189" stroke="#171717" stroke-miterlimit="10"/>
<path d="M168.107 58.3569C168.107 58.3569 172.548 58.7034 180.671 60.1693C187.723 61.4446 199.511 64.1808 202.921 64.809" stroke="#171717" stroke-miterlimit="10"/>
<path d="M168.409 61.4622C168.409 61.4622 173.249 61.8432 181.109 63.2625C188.407 64.5832 200.728 67.4754 203.569 67.9988" stroke="#171717" stroke-miterlimit="10"/>
<path d="M168.711 64.5674C168.711 64.5674 173.95 64.9833 181.545 66.3557C189.09 67.7214 201.944 70.77 204.217 71.1886" stroke="#171717" stroke-miterlimit="10"/>
<path d="M169.014 67.6724C169.014 67.6724 174.651 68.1228 181.983 69.4486C189.774 70.8598 203.161 74.0643 204.866 74.3782" stroke="#171717" stroke-miterlimit="10"/>
<path d="M169.317 70.7776C169.317 70.7776 175.353 71.2626 182.419 72.5418C190.457 73.998 204.377 77.3589 205.514 77.568" stroke="#171717" stroke-miterlimit="10"/>
<path d="M169.619 73.8828C169.619 73.8828 176.054 74.4027 182.857 75.6346C191.141 77.1362 205.594 80.6531 206.163 80.7578" stroke="#171717" stroke-miterlimit="10"/>
<path d="M169.922 76.988C169.922 76.988 176.755 77.5425 183.294 78.7278C191.824 80.2744 206.81 83.9476 206.81 83.9476" stroke="#171717" stroke-miterlimit="10"/>
<path d="M125.555 14.9648C125.555 14.9648 132.161 15.1449 138.443 16.8443C144.234 18.4107 148.716 21.6998 160.484 26.2417" stroke="#171717" stroke-miterlimit="10"/>
<path d="M160.776 29.3936C149.744 25.1353 145.308 21.9541 139.085 20.2605C132.402 18.4423 125.835 18.2242 125.578 18.2929" stroke="#171717" stroke-miterlimit="10"/>
<path d="M161.068 32.5457C150.771 28.5714 146.381 25.4976 139.727 23.6771C132.642 21.7398 126.115 21.4845 125.602 21.6215" stroke="#171717" stroke-miterlimit="10"/>
<path d="M161.36 35.6977C151.799 32.0074 147.455 29.0412 140.37 27.0934C132.884 25.0374 126.396 24.7441 125.625 24.9497" stroke="#171717" stroke-miterlimit="10"/>
<path d="M161.651 38.8493C152.825 35.4427 148.529 32.5847 141.011 30.5093C133.124 28.3341 126.675 28.0035 125.648 28.2775" stroke="#171717" stroke-miterlimit="10"/>
<path d="M161.943 42.0017C153.853 38.879 149.603 36.1285 141.653 33.9258C133.365 31.6319 126.955 31.2633 125.671 31.6059" stroke="#171717" stroke-miterlimit="10"/>
<path d="M162.235 45.1536C154.88 42.315 150.677 39.6719 142.296 37.342C133.606 34.929 127.236 34.5228 125.695 34.934" stroke="#171717" stroke-miterlimit="10"/>
<path d="M162.527 48.3054C155.907 45.7504 151.751 43.2152 142.937 40.758C133.847 38.2263 127.516 37.7824 125.718 38.262" stroke="#171717" stroke-miterlimit="10"/>
<path d="M162.819 51.4576C156.935 49.1867 152.826 46.7589 143.58 44.1749C134.088 41.524 127.796 41.0425 125.741 41.5908" stroke="#171717" stroke-miterlimit="10"/>
<path d="M163.111 54.6097C157.962 52.6227 153.899 50.3025 144.222 47.5911C134.329 44.8216 128.077 44.302 125.765 44.919" stroke="#171717" stroke-miterlimit="10"/>
<path d="M163.403 57.7614C158.99 56.0581 154.974 53.8461 144.864 51.0071C134.57 48.1184 128.357 47.5616 125.789 48.2465" stroke="#171717" stroke-miterlimit="10"/>
<path d="M163.694 60.9136C160.017 59.4943 156.047 57.3898 145.506 54.4235C134.81 51.4161 128.636 50.8213 125.812 51.5748" stroke="#171717" stroke-miterlimit="10"/>
<path d="M163.986 64.0656C161.044 62.93 157.121 60.9333 146.148 57.8398C135.051 54.7133 128.917 54.0808 125.835 54.903" stroke="#171717" stroke-miterlimit="10"/>
<path d="M164.278 67.2175C162.072 66.3658 158.196 64.4766 146.79 61.2562C135.292 58.0106 129.197 57.3405 125.858 58.2314" stroke="#171717" stroke-miterlimit="10"/>
<path d="M164.57 70.3694C163.099 69.8018 159.269 68.0201 147.432 64.6724C135.533 61.308 129.477 60.6003 125.882 61.5594" stroke="#171717" stroke-miterlimit="10"/>
<path d="M164.861 73.5217C164.126 73.2377 160.343 71.5639 148.074 68.0889C135.774 64.6054 129.757 63.8601 125.905 64.8879" stroke="#171717" stroke-miterlimit="10"/>
<path d="M165.154 76.6737C165.154 76.6737 161.418 75.1073 148.717 71.5051C136.015 67.9029 130.038 67.1199 125.928 68.216" stroke="#171717" stroke-miterlimit="10"/>
<path d="M119.829 7.13402L122.021 81.7311C122.021 81.7311 115.444 70.396 97.9072 70.8554C80.3702 71.3148 41.6424 82.6499 35.4311 83.7223C29.2199 84.7947 19.7209 85.8668 19.7209 85.8668L30.1338 14.6395C30.1338 14.6395 76.169 7.5934 85.8508 5.1424C95.5329 2.6914 103.936 0.0875263 110.147 1.31283C116.358 2.53892 119.829 3.45771 119.829 7.13402Z" fill="white" stroke="#171717" stroke-miterlimit="10"/>
<path d="M40.155 23.2294L74.2773 16.8499" stroke="#171717" stroke-miterlimit="10"/>
<path d="M39.7803 26.4191C39.7803 26.4191 61.4444 22.3237 61.9488 22.1906C62.4124 22.0684 74.1903 19.8704 74.1903 19.8704" stroke="#171717" stroke-miterlimit="10"/>
<path d="M39.4058 29.6095C39.4058 29.6095 60.7478 25.5292 61.7566 25.2635C62.6839 25.019 74.1046 22.8916 74.1046 22.8916" stroke="#171717" stroke-miterlimit="10"/>
<path d="M39.031 32.7991C39.031 32.7991 60.051 28.734 61.5637 28.3356C62.9551 27.9689 74.0176 25.9121 74.0176 25.9121" stroke="#171717" stroke-miterlimit="10"/>
<path d="M38.6562 35.9888C38.6562 35.9888 59.3537 31.9392 61.3713 31.4077C63.2263 30.9188 73.9312 28.9326 73.9312 28.9326" stroke="#171717" stroke-miterlimit="10"/>
<path d="M38.282 39.1786C38.282 39.1786 58.6574 35.1442 61.1788 34.4795C63.4976 33.8684 73.8447 31.9529 73.8447 31.9529" stroke="#171717" stroke-miterlimit="10"/>
<path d="M37.9072 42.3684C37.9072 42.3684 57.9601 38.3495 60.9864 37.5517C63.7688 36.8184 73.7587 34.9739 73.7587 34.9739" stroke="#171717" stroke-miterlimit="10"/>
<path d="M37.5322 45.5581C37.5322 45.5581 57.2631 41.5543 60.7932 40.6239C64.0393 39.7683 73.6715 37.9944 73.6715 37.9944" stroke="#171717" stroke-miterlimit="10"/>
<path d="M37.158 48.748C37.158 48.748 56.5668 44.7593 60.6013 43.6962C64.311 42.7185 73.5855 41.0151 73.5855 41.0151" stroke="#171717" stroke-miterlimit="10"/>
<path d="M36.7832 51.9377C36.7832 51.9377 55.8695 47.9645 60.4084 46.7683C64.5822 45.6684 73.4991 44.0356 73.4991 44.0356" stroke="#171717" stroke-miterlimit="10"/>
<path d="M36.4082 55.1274C36.4082 55.1274 55.1724 51.1694 60.2157 49.8405C64.8532 48.6183 73.4123 47.0566 73.4123 47.0566" stroke="#171717" stroke-miterlimit="10"/>
<path d="M36.0339 58.3173C36.0339 58.3173 54.4756 54.3744 60.0233 52.9124C65.1244 51.568 73.3259 50.0769 73.3259 50.0769" stroke="#171717" stroke-miterlimit="10"/>
<path d="M35.6592 61.5074C35.6592 61.5074 53.7788 57.5801 59.8309 55.985C65.3957 54.5184 73.2399 53.0979 73.2399 53.0979" stroke="#171717" stroke-miterlimit="10"/>
<path d="M35.2844 64.6971C35.2844 64.6971 53.0815 60.7849 59.638 59.0571C65.6664 57.4683 73.1529 56.1184 73.1529 56.1184" stroke="#171717" stroke-miterlimit="10"/>
<path d="M34.9099 67.8866C34.9099 67.8866 52.385 63.9896 59.4458 62.1291C65.9379 60.418 73.0667 59.1392 73.0667 59.1392" stroke="#171717" stroke-miterlimit="10"/>
<path d="M34.5352 71.0767C34.5352 71.0767 51.6877 67.1952 59.2529 65.2012C66.2091 63.3683 72.9802 62.1597 72.9802 62.1597" stroke="#171717" stroke-miterlimit="10"/>
<path d="M34.1606 74.2664C34.1606 74.2664 50.9911 70.4 59.0607 68.2733C66.4806 66.3182 72.894 65.1802 72.894 65.1802" stroke="#171717" stroke-miterlimit="10"/>
<path d="M79.1187 15.6899C79.1187 15.6899 110.935 7.18374 115.546 11.4366" stroke="#171717" stroke-miterlimit="10"/>
<path d="M79.0181 18.7831C79.0181 18.7831 89.8154 15.8657 99.5323 14.3319C106.944 13.1757 113.734 12.9289 115.561 14.6144" stroke="#171717" stroke-miterlimit="10"/>
<path d="M78.917 21.8763C78.917 21.8763 89.9101 18.8755 99.4932 17.3868C107.102 16.2305 113.87 16.2189 115.575 17.7922" stroke="#171717" stroke-miterlimit="10"/>
<path d="M78.8162 24.9693C78.8162 24.9693 90.0004 21.8641 99.454 20.4413C107.257 19.2669 114.006 19.509 115.589 20.9698" stroke="#171717" stroke-miterlimit="10"/>
<path d="M78.7153 28.0624C78.7153 28.0624 90.0944 24.8699 99.4151 23.4964C107.415 22.3173 114.142 22.7992 115.604 24.1479" stroke="#171717" stroke-miterlimit="10"/>
<path d="M78.6145 31.1551C78.6145 31.1551 90.1883 27.8765 99.3763 26.5507C107.573 25.3681 114.279 26.089 115.619 27.3251" stroke="#171717" stroke-miterlimit="10"/>
<path d="M78.5134 34.249C78.5134 34.249 90.283 30.885 99.3368 29.6062C107.731 28.4204 114.414 29.3796 115.633 30.5036" stroke="#171717" stroke-miterlimit="10"/>
<path d="M78.4126 37.3418C78.4126 37.3418 90.3774 33.894 99.298 32.6605C107.889 31.4725 114.551 32.6695 115.647 33.6806" stroke="#171717" stroke-miterlimit="10"/>
<path d="M78.3118 40.4347C78.3118 40.4347 90.4728 36.9039 99.2587 35.7151C108.047 34.5258 114.687 35.9591 115.662 36.8581" stroke="#171717" stroke-miterlimit="10"/>
<path d="M78.2112 43.5279C78.2112 43.5279 90.5679 39.9153 99.2201 38.7699C108.206 37.5803 114.823 39.2495 115.676 40.0359" stroke="#171717" stroke-miterlimit="10"/>
<path d="M78.1099 46.6211C78.1099 46.6211 90.6628 42.9273 99.1803 41.825C108.365 40.6362 114.959 42.5397 115.69 43.214" stroke="#171717" stroke-miterlimit="10"/>
<path d="M78.0093 49.7143C78.0093 49.7143 90.7584 45.9402 99.1417 44.8798C108.524 43.6929 115.096 45.8296 115.705 46.3918" stroke="#171717" stroke-miterlimit="10"/>
<path d="M77.9084 52.8073C77.9084 52.8073 90.8543 48.9537 99.1029 47.9344C108.683 46.7502 115.232 49.1197 115.72 49.5694" stroke="#171717" stroke-miterlimit="10"/>
<path d="M77.8074 55.9004C77.8074 55.9004 90.9499 51.968 99.0634 50.9891C108.842 49.8092 115.368 52.4096 115.734 52.7467" stroke="#171717" stroke-miterlimit="10"/>
<path d="M77.7065 58.9935C77.7065 58.9935 91.0475 54.9952 99.0245 54.0438C109.004 52.8845 115.505 55.6998 115.748 55.9244" stroke="#171717" stroke-miterlimit="10"/>
<path d="M77.6057 62.0867C77.6057 62.0867 91.1424 58.0053 98.9857 57.0985C109.163 55.9388 115.641 58.9896 115.763 59.1022" stroke="#171717" stroke-miterlimit="10"/>
<path d="M77.5049 65.1799C77.5049 65.1799 91.2374 61.0155 98.9465 60.1538C109.321 58.9936 115.777 62.2804 115.777 62.2804" stroke="#171717" stroke-miterlimit="10"/>
<path d="M153.88 88.0708C156.143 88.4681 157.556 88.7642 157.556 88.7642" stroke="#171717" stroke-miterlimit="10"/>
<path d="M118.747 81.7224C120.29 83.2236 121.108 84.3352 121.108 84.3352C121.108 84.3352 129.359 81.5432 139.336 81.7891C145.066 81.9304 147.883 87.071 152.218 87.7872" stroke="#171717" stroke-miterlimit="10"/>
<path d="M113.811 77.8105C115.254 78.7278 116.5 79.6986 117.533 80.603" stroke="#171717" stroke-miterlimit="10"/>
<path d="M86.2236 74.4078C89.4512 73.6699 99.1348 72.1935 107.644 74.8998C109.977 75.6417 112.042 76.6854 113.811 77.8102" stroke="#171717" stroke-miterlimit="10"/>
<path d="M108.753 77.1397C105.949 76.2822 101.76 75.3972 96.2181 75.2866C85.1348 75.0655 59.2732 79.9333 59.2732 79.9333" stroke="#171717" stroke-miterlimit="10"/>
<path d="M112.975 78.8266C112.975 78.8266 112.248 78.4014 110.806 77.845" stroke="#171717" stroke-miterlimit="10"/>
<path d="M111.35 85.1101L41.4275 87.9289" stroke="#171717" stroke-miterlimit="10"/>
<path d="M117.929 84.845L114.111 84.9986" stroke="#171717" stroke-miterlimit="10"/>
<path d="M59.1738 90.6883L63.25 90.6018" stroke="#171717" stroke-miterlimit="10"/>
<path d="M24.5085 91.424L56.8331 90.738" stroke="#171717" stroke-miterlimit="10"/>
<path d="M104.775 92.3457L108.366 92.2463" stroke="#171717" stroke-miterlimit="10"/>
<path d="M56.3843 93.6856L101.894 92.4258" stroke="#171717" stroke-miterlimit="10"/>
<path d="M88.9688 89.5051L79.4324 89.7791" stroke="#171717" stroke-miterlimit="10"/>
<path d="M115.231 88.7512L91.5801 89.4302" stroke="#171717" stroke-miterlimit="10"/>
<path d="M44.7476 93.9664L48.0473 93.8911" stroke="#171717" stroke-miterlimit="10"/>
<path d="M12.0039 94.7134L42.689 94.0134" stroke="#171717" stroke-miterlimit="10"/>
</svg>
