<svg width="244" height="74" viewBox="0 0 244 74" fill="none" xmlns="http://www.w3.org/2000/svg">
<path d="M233.537 73.2459H6.25553C3.35267 73.2459 1 71.2764 1 68.8474V8.27105C1 5.84157 3.35328 3.87256 6.25553 3.87256H233.537C236.44 3.87256 238.792 5.84157 238.792 8.27105V68.8474C238.792 71.2764 236.44 73.2459 233.537 73.2459Z" fill="#171717" stroke="#171717" stroke-miterlimit="10" stroke-linecap="round" stroke-linejoin="round"/>
<path d="M237.29 70.628H10.0092C7.10633 70.628 4.75366 68.6585 4.75366 66.2295V5.65314C4.75366 3.22366 7.10694 1.25464 10.0092 1.25464H237.29C240.193 1.25464 242.546 3.22416 242.546 5.65314V66.2295C242.546 68.6585 240.193 70.628 237.29 70.628Z" fill="white" stroke="#171717" stroke-miterlimit="10"/>
<path d="M83.1511 29.4394C83.1511 29.1311 83.483 28.7373 84.0874 28.7373C84.6914 28.7373 85.0237 29.1312 85.0237 29.4394V40.8583C85.0237 41.1665 84.6914 41.5604 84.0874 41.5604C83.483 41.5604 83.1511 41.1666 83.1511 40.8583V29.4394Z" fill="#E3B700" stroke="#E3B700"/>
<path d="M100.682 29.4394C100.682 29.1312 101.014 28.7373 101.618 28.7373C102.222 28.7373 102.554 29.1311 102.554 29.4394V40.8583C102.554 41.1666 102.222 41.5604 101.618 41.5604C101.014 41.5604 100.682 41.1666 100.682 40.8583V29.4394Z" fill="#E3B700" stroke="#E3B700"/>
<path d="M113.83 29.4394C113.83 29.1312 114.162 28.7373 114.766 28.7373C115.37 28.7373 115.702 29.1312 115.702 29.4394V40.8583C115.702 41.1666 115.37 41.5604 114.766 41.5604C114.161 41.5604 113.83 41.1666 113.83 40.8583V29.4394Z" fill="#E3B700" stroke="#E3B700"/>
<path d="M122.595 29.4394C122.595 29.1312 122.928 28.7373 123.532 28.7373C124.135 28.7373 124.467 29.1308 124.468 29.4396C124.468 29.4397 124.468 29.4398 124.468 29.4398L124.468 40.8583C124.468 41.1665 124.135 41.5604 123.532 41.5604C122.927 41.5604 122.595 41.1666 122.595 40.8583V29.4394Z" fill="#E3B700" stroke="#E3B700"/>
<path d="M126.977 29.4394C126.977 29.1311 127.309 28.7373 127.914 28.7373C128.518 28.7373 128.85 29.1311 128.85 29.4394V40.8583C128.85 41.1665 128.518 41.5604 127.914 41.5604C127.309 41.5604 126.977 41.1666 126.977 40.8583V29.4394Z" fill="#E3B700" stroke="#E3B700"/>
<path d="M148.891 29.4394C148.891 29.1311 149.223 28.7373 149.827 28.7373C150.431 28.7373 150.763 29.1312 150.763 29.4394V40.8583C150.763 41.1665 150.431 41.5604 149.827 41.5604C149.223 41.5604 148.891 41.1666 148.891 40.8583V29.4394Z" fill="#E3B700" stroke="#E3B700"/>
<path d="M175.187 29.4394C175.187 29.1311 175.519 28.7373 176.123 28.7373C176.727 28.7373 177.059 29.1312 177.059 29.4394V40.8583C177.059 41.1665 176.727 41.5604 176.123 41.5604C175.519 41.5604 175.187 41.1666 175.187 40.8583V29.4394Z" fill="#E3B700" stroke="#E3B700"/>
<path d="M188.334 29.4394C188.334 29.1311 188.666 28.7373 189.271 28.7373C189.875 28.7373 190.207 29.1311 190.207 29.4394V40.8583C190.207 41.1665 189.874 41.5604 189.271 41.5604C188.666 41.5604 188.334 41.1666 188.334 40.8583V29.4394Z" fill="#E3B700" stroke="#E3B700"/>
<path d="M192.717 29.4394C192.717 29.1312 193.049 28.7373 193.653 28.7373C194.258 28.7373 194.59 29.1311 194.59 29.4394V40.8583C194.59 41.1666 194.258 41.5604 193.653 41.5604C193.049 41.5604 192.717 41.1666 192.717 40.8583V29.4394Z" fill="#E3B700" stroke="#E3B700"/>
<path d="M210.248 29.4394C210.248 29.1312 210.58 28.7373 211.184 28.7373C211.788 28.7373 212.12 29.1308 212.121 29.4396C212.121 29.4397 212.121 29.4398 212.121 29.4398L212.121 40.8583C212.121 41.1666 211.789 41.5604 211.184 41.5604C210.58 41.5604 210.248 41.1666 210.248 40.8583V29.4394Z" fill="#E3B700" stroke="#E3B700"/>
<path d="M214.63 29.4394C214.63 29.1312 214.962 28.7373 215.566 28.7373C216.171 28.7373 216.503 29.1311 216.503 29.4394V40.8583C216.503 41.1665 216.17 41.5604 215.566 41.5604C214.962 41.5604 214.63 41.1666 214.63 40.8583V29.4394Z" fill="#E3B700" stroke="#E3B700"/>
<path d="M219.013 29.4394C219.013 29.1312 219.345 28.7373 219.949 28.7373C220.554 28.7373 220.886 29.1311 220.886 29.4394V40.8583C220.886 41.1666 220.554 41.5604 219.949 41.5604C219.345 41.5604 219.013 41.1666 219.013 40.8583V29.4394Z" fill="#E3B700" stroke="#E3B700"/>
<path d="M223.396 29.4394C223.396 29.1312 223.728 28.7373 224.332 28.7373C224.936 28.7373 225.268 29.1311 225.268 29.4394V40.8583C225.268 41.1665 224.936 41.5604 224.332 41.5604C223.727 41.5604 223.396 41.1666 223.396 40.8583V29.4394Z" fill="#E3B700" stroke="#E3B700"/>
<path d="M70.1306 29.4394C70.1306 29.1311 70.4625 28.7373 71.0669 28.7373C71.6703 28.7373 72.0028 29.1308 72.0032 29.4396C72.0032 29.4397 72.0032 29.4398 72.0032 29.4398L72.0032 40.8583C72.0032 41.1665 71.6709 41.5604 71.0669 41.5604C70.4625 41.5604 70.1306 41.1666 70.1306 40.8583V29.4394Z" fill="#E3B700" stroke="#E3B700"/>
<path d="M74.5127 29.4394C74.5127 29.1312 74.845 28.7373 75.449 28.7373C76.0534 28.7373 76.3853 29.1311 76.3853 29.4394V40.8583C76.3853 41.1666 76.0534 41.5604 75.449 41.5604C74.8446 41.5604 74.5127 41.1666 74.5127 40.8583V29.4394Z" fill="#E3B700" stroke="#E3B700"/>
<path d="M78.8955 29.4394C78.8955 29.1312 79.2278 28.7373 79.8318 28.7373C80.4362 28.7373 80.7681 29.1311 80.7681 29.4394V40.8583C80.7681 41.1665 80.4358 41.5604 79.8318 41.5604C79.2274 41.5604 78.8955 41.1666 78.8955 40.8583V29.4394Z" fill="#E3B700" stroke="#E3B700"/>
<path d="M153.273 29.4394C153.273 29.1312 153.605 28.7373 154.209 28.7373C154.814 28.7373 155.146 29.1311 155.146 29.4394V40.8583C155.146 41.1666 154.814 41.5604 154.209 41.5604C153.605 41.5604 153.273 41.1666 153.273 40.8583V29.4394Z" fill="#E3B700" stroke="#E3B700"/>
<path d="M131.36 29.4394C131.36 29.1312 131.692 28.7373 132.296 28.7373C132.901 28.7373 133.232 29.1311 133.232 29.4394V40.8583C133.232 41.1666 132.901 41.5604 132.296 41.5604C131.692 41.5604 131.36 41.1666 131.36 40.8583V29.4394Z" fill="#E3B700" stroke="#E3B700"/>
<path d="M87.5339 24.3737C87.5339 24.0655 87.8663 23.6716 88.4702 23.6716C89.0742 23.6716 89.4065 24.0655 89.4065 24.3737V45.9239C89.4065 46.2321 89.0742 46.626 88.4702 46.626C87.8658 46.626 87.5339 46.2322 87.5339 45.9239V24.3737Z" fill="#E3B700" stroke="#E3B700"/>
<path d="M96.2993 24.3737C96.2993 24.0654 96.6312 23.6716 97.2356 23.6716C97.839 23.6716 98.1715 24.0651 98.1719 24.3739C98.1719 24.374 98.1719 24.3741 98.1719 24.3742L98.1719 45.9239C98.1719 46.2321 97.8396 46.626 97.2356 46.626C96.6312 46.626 96.2993 46.2322 96.2993 45.9239V24.3737Z" fill="#E3B700" stroke="#E3B700"/>
<path d="M109.447 24.3737C109.447 24.0654 109.779 23.6716 110.383 23.6716C110.987 23.6716 111.32 24.0655 111.32 24.3737V45.9239C111.32 46.2321 110.987 46.626 110.383 46.626C109.779 46.626 109.447 46.2322 109.447 45.9239V24.3737Z" fill="#E3B700" stroke="#E3B700"/>
<path d="M118.212 24.3737C118.212 24.0655 118.545 23.6716 119.149 23.6716C119.752 23.6716 120.085 24.0651 120.085 24.3739C120.085 24.374 120.085 24.3741 120.085 24.3742L120.085 45.9239C120.085 46.2321 119.753 46.626 119.149 46.626C118.544 46.626 118.212 46.2322 118.212 45.9239V24.3737Z" fill="#E3B700" stroke="#E3B700"/>
<path d="M135.743 24.3737C135.743 24.0654 136.075 23.6716 136.679 23.6716C137.283 23.6716 137.615 24.0654 137.615 24.3737V45.9239C137.615 46.2321 137.283 46.626 136.679 46.626C136.075 46.626 135.743 46.2322 135.743 45.9239V24.3737Z" fill="#E3B700" stroke="#E3B700"/>
<path d="M157.656 24.3737C157.656 24.0655 157.988 23.6716 158.592 23.6716C159.197 23.6716 159.529 24.0654 159.529 24.3737V45.9239C159.529 46.2321 159.196 46.626 158.592 46.626C157.988 46.626 157.656 46.2322 157.656 45.9239V24.3737Z" fill="#E3B700" stroke="#E3B700"/>
<path d="M162.039 24.3737C162.039 24.0654 162.37 23.6716 162.975 23.6716C163.579 23.6716 163.911 24.0654 163.911 24.3737V45.9239C163.911 46.2321 163.579 46.626 162.975 46.626C162.37 46.626 162.039 46.2322 162.039 45.9239V24.3737Z" fill="#E3B700" stroke="#E3B700"/>
<path d="M166.421 24.3737C166.421 24.0655 166.754 23.6716 167.358 23.6716C167.962 23.6716 168.294 24.0654 168.294 24.3737V45.9239C168.294 46.2321 167.962 46.626 167.358 46.626C166.753 46.626 166.421 46.2322 166.421 45.9239V24.3737Z" fill="#E3B700" stroke="#E3B700"/>
<path d="M170.804 24.3737C170.804 24.0655 171.136 23.6716 171.74 23.6716C172.344 23.6716 172.677 24.0655 172.677 24.3737V45.9239C172.677 46.2322 172.345 46.626 171.74 46.626C171.136 46.626 170.804 46.2322 170.804 45.9239V24.3737Z" fill="#E3B700" stroke="#E3B700"/>
<path d="M197.1 24.3737C197.1 24.0654 197.432 23.6716 198.036 23.6716C198.64 23.6716 198.972 24.0655 198.972 24.3737V45.9239C198.972 46.2321 198.64 46.626 198.036 46.626C197.432 46.626 197.1 46.2322 197.1 45.9239V24.3737Z" fill="#E3B700" stroke="#E3B700"/>
<path d="M205.865 24.3737C205.865 24.0655 206.198 23.6716 206.802 23.6716C207.405 23.6716 207.738 24.0655 207.738 24.3737V45.9239C207.738 46.2321 207.405 46.626 206.802 46.626C206.197 46.626 205.865 46.2322 205.865 45.9239V24.3737Z" fill="#E3B700" stroke="#E3B700"/>
<path d="M91.9165 19.308C91.9165 18.9999 92.2488 18.606 92.8528 18.606C93.4562 18.606 93.7887 18.9994 93.7891 19.3083C93.7891 19.3083 93.7891 19.3084 93.7891 19.3085L93.7891 50.9895C93.7891 51.2977 93.4568 51.6916 92.8528 51.6916C92.2484 51.6916 91.9165 51.2978 91.9165 50.9895V19.308Z" fill="#E3B700" stroke="#E3B700"/>
<path d="M105.064 19.308C105.064 18.9999 105.397 18.606 106.001 18.606C106.605 18.606 106.937 18.9997 106.937 19.308V50.9895C106.937 51.2977 106.604 51.6916 106.001 51.6916C105.396 51.6916 105.064 51.2978 105.064 50.9895V19.308Z" fill="#E3B700" stroke="#E3B700"/>
<path d="M140.125 19.308C140.125 18.9999 140.458 18.606 141.062 18.606C141.666 18.606 141.998 18.9999 141.998 19.308V50.9895C141.998 51.2978 141.666 51.6916 141.062 51.6916C140.457 51.6916 140.125 51.2978 140.125 50.9895V19.308Z" fill="#E3B700" stroke="#E3B700"/>
<path d="M144.508 19.308C144.508 18.9999 144.841 18.606 145.445 18.606C146.049 18.606 146.381 18.9999 146.381 19.308V50.9895C146.381 51.2978 146.049 51.6916 145.445 51.6916C144.84 51.6916 144.508 51.2978 144.508 50.9895V19.308Z" fill="#E3B700" stroke="#E3B700"/>
<path d="M179.57 19.308C179.57 18.9999 179.902 18.606 180.506 18.606C181.109 18.606 181.442 18.9994 181.442 19.3083C181.442 19.3083 181.442 19.3084 181.442 19.3085L181.442 50.9895C181.442 51.2978 181.11 51.6916 180.506 51.6916C179.901 51.6916 179.57 51.2978 179.57 50.9895V19.308Z" fill="#E3B700" stroke="#E3B700"/>
<path d="M183.952 19.308C183.952 18.9999 184.284 18.606 184.888 18.606C185.492 18.606 185.824 18.9997 185.824 19.308V50.9895C185.824 51.2978 185.492 51.6916 184.888 51.6916C184.284 51.6916 183.952 51.2978 183.952 50.9895V19.308Z" fill="#E3B700" stroke="#E3B700"/>
<path d="M201.483 19.308C201.483 18.9999 201.815 18.606 202.419 18.606C203.023 18.606 203.355 18.9999 203.355 19.308V50.9895C203.355 51.2977 203.023 51.6916 202.419 51.6916C201.815 51.6916 201.483 51.2978 201.483 50.9895V19.308Z" fill="#E3B700" stroke="#E3B700"/>
<path d="M53.0646 24.1586C61.2489 31.0083 61.249 42.1138 53.0646 48.9634C44.8803 55.8131 31.611 55.8131 23.4267 48.9634C15.2424 42.1138 15.2424 31.0083 23.4267 24.1586C31.611 17.309 44.8803 17.309 53.0646 24.1586Z" fill="#171717" stroke="#171717"/>
<path d="M54.1795 36.5611L28.4727 24.1396V48.9825L54.1795 36.5611Z" fill="#E3B700" stroke="#171717" stroke-miterlimit="10"/>
</svg>
