<svg width="228" height="126" viewBox="0 0 228 126" fill="none" xmlns="http://www.w3.org/2000/svg">
<path d="M200.912 113.934H127.699C121.79 113.934 117 109.144 117 103.235V87.699C117 81.79 121.79 77 127.699 77H200.912C206.821 77 211.611 81.79 211.611 87.699V103.235C211.612 109.144 206.822 113.934 200.912 113.934Z" fill="#7DBCF9" stroke="#171717" stroke-miterlimit="10"/>
<path d="M126.405 117.114H202.933C209.532 117.114 214.882 111.764 214.882 105.165V87.111" stroke="#171717" stroke-miterlimit="10" stroke-linecap="round" stroke-linejoin="round"/>
<path d="M96.912 113.934H23.699C17.79 113.934 13 109.144 13 103.235V87.699C13 81.79 17.79 77 23.699 77H96.912C102.821 77 107.611 81.79 107.611 87.699V103.235C107.612 109.144 102.822 113.934 96.912 113.934Z" fill="#7DBCF9" stroke="#171717" stroke-miterlimit="10"/>
<path d="M22.405 117.114H98.933C105.532 117.114 110.882 111.764 110.882 105.165V87.111" stroke="#171717" stroke-miterlimit="10" stroke-linecap="round" stroke-linejoin="round"/>
<path d="M192.11 115.785L197.15 121.91L193.432 125.045L188.305 118.819L182.338 123.577L175.572 98.8721L198.24 110.897L192.11 115.785Z" fill="white" stroke="#171717" stroke-miterlimit="10" stroke-linecap="round" stroke-linejoin="round"/>
<path d="M167.278 90.2729L170.292 93.287" stroke="#171717" stroke-miterlimit="10" stroke-linecap="round" stroke-linejoin="round"/>
<path d="M164 98.174H168.254" stroke="#171717" stroke-miterlimit="10" stroke-linecap="round" stroke-linejoin="round"/>
<path d="M180.062 93.292L183.081 90.2729" stroke="#171717" stroke-miterlimit="10" stroke-linecap="round" stroke-linejoin="round"/>
<path d="M167.278 106.076L170.281 103.073" stroke="#171717" stroke-miterlimit="10" stroke-linecap="round" stroke-linejoin="round"/>
<path d="M175.174 91.265V87" stroke="#171717" stroke-miterlimit="10" stroke-linecap="round" stroke-linejoin="round"/>
<path d="M180.799 9.75178C171.968 8.17624 164.195 9.61595 159.086 11.1747C156.367 14.3132 154.759 18.172 154.759 22.3486C154.759 32.8617 164.923 41.3843 177.461 41.3843C189.999 41.3843 200.162 32.8617 200.162 22.3486C200.162 19.7056 199.518 17.1885 198.357 14.9002C194.315 13.6156 191.28 11.6216 180.799 9.75178Z" fill="#7DBCF9" stroke="#171717" stroke-miterlimit="10" stroke-linecap="round" stroke-linejoin="round"/>
<path d="M177.46 34.1053C185.204 34.1053 191.481 28.8417 191.481 22.3487C191.481 15.8557 185.204 10.592 177.46 10.592C169.717 10.592 163.439 15.8557 163.439 22.3487C163.439 28.8417 169.717 34.1053 177.46 34.1053Z" fill="#171717" stroke="#171717" stroke-miterlimit="10" stroke-linecap="round" stroke-linejoin="round"/>
<path d="M190.375 27.8366C193.458 27.8366 195.958 25.7407 195.958 23.1552C195.958 20.5698 193.458 18.4739 190.375 18.4739C187.291 18.4739 184.792 20.5698 184.792 23.1552C184.792 25.7407 187.291 27.8366 190.375 27.8366Z" fill="white"/>
<path d="M135.73 43.6231C135.73 43.6231 135.062 29.6268 147.415 16.4698C162.803 0.0796408 182.135 6.67195 188.812 9.19165C195.489 11.7114 207.507 19.5488 207.507 19.5488L210.511 19.8289C210.511 19.8289 206.412 24.0985 200.162 31.5855C193.151 39.9831 189.146 45.3018 165.777 46.422" stroke="#171717" stroke-miterlimit="10" stroke-linecap="round" stroke-linejoin="round"/>
<path d="M136.73 45.0234C136.73 45.0234 138.065 51.7415 140.069 49.2227C142.072 46.703 143.074 46.1437 143.074 46.1437L149.417 45.8636" stroke="#171717" stroke-miterlimit="10" stroke-linecap="round" stroke-linejoin="round"/>
<path d="M213.849 16.75C211.846 17.03 208.174 16.1898 208.174 16.1898C208.174 16.1898 213.182 14.2303 214.517 12.8308C215.852 11.4313 216.186 8.35152 216.186 8.35152C216.186 8.35152 213.181 11.4305 209.175 11.9906C205.169 12.5507 198.826 11.4305 198.826 11.4305C198.826 11.4305 204.501 9.19086 205.503 8.35152C206.505 7.51218 208.508 3.59302 208.508 3.59302C208.508 3.59302 201.831 7.51218 196.823 8.35152C191.815 9.1917 192.483 5.83182 175.123 4.71242C157.763 3.59302 141.738 14.7895 136.731 37.4643C136.731 37.4643 144.743 14.5103 164.774 12.8308C184.805 11.1513 196.823 16.75 202.832 18.7095C203.389 18.8907 203.904 19.0407 204.401 19.1757C204.138 21.8757 203.158 27.5842 199.493 32.7058C195.924 37.6932 193.042 39.9714 191.675 40.8737C194.766 38.9912 205.284 32.0803 207.839 23.7481C208.35 22.0812 208.586 20.81 208.633 19.8373C210.893 19.8449 212.53 19.1489 214.516 18.1494C217.854 16.4699 219.857 13.671 219.857 13.671C219.857 13.671 215.852 16.4699 213.849 16.75Z" fill="#171717" stroke="#171717" stroke-miterlimit="10" stroke-linecap="round" stroke-linejoin="round"/>
<path d="M191.676 40.8737C191.132 41.2049 190.814 41.3835 190.814 41.3835C190.814 41.3835 191.125 41.2376 191.676 40.8737Z" fill="#171717" stroke="#171717" stroke-miterlimit="10" stroke-linecap="round" stroke-linejoin="round"/>
<path d="M142.406 21.5093C142.406 21.5093 147.414 7.79307 160.768 3.31379C174.122 -1.16549 187.142 3.31379 187.142 3.31379" stroke="#171717" stroke-miterlimit="10" stroke-linecap="round" stroke-linejoin="round"/>
<path d="M72.7229 48.904C72.7229 48.904 65.9129 33.8126 56.1839 26.0632C46.4549 18.3137 33.8079 20.3529 28.4579 28.5107C23.1069 36.6685 23.1069 42.3779 23.1069 42.3779C23.1069 42.3779 25.5389 47.2722 36.2409 53.3908C46.9419 59.5085 59.1029 57.4693 64.9399 55.8384" stroke="#171717" stroke-miterlimit="10" stroke-linecap="round" stroke-linejoin="round"/>
<path d="M45.434 22.4073C40.532 25.6088 37.366 30.592 37.366 36.2057C37.366 45.8686 46.708 53.7011 58.231 53.7011C63.829 53.7011 68.901 51.8421 72.649 48.8328C63.841 31.2158 50.99 24.5564 45.434 22.4073Z" fill="#7DBCF9" stroke="#171717" stroke-miterlimit="10" stroke-linecap="round" stroke-linejoin="round"/>
<path d="M54.9149 27.5842C50.3059 29.1329 47.0469 32.907 47.0469 37.3251C47.0469 43.1225 52.6519 47.8223 59.5659 47.8223C63.7259 47.8223 67.4009 46.1143 69.6779 43.4965C64.9899 35.9734 59.6229 30.9223 54.9149 27.5842Z" fill="#171717" stroke="#171717" stroke-miterlimit="10" stroke-linecap="round" stroke-linejoin="round"/>
<path d="M46.456 20.353C33.809 17.9054 31.863 22.3923 27.485 23.2081C23.107 24.024 18.729 22.8006 18.729 22.8006C18.729 22.8006 19.215 25.6557 21.161 26.4716C23.107 27.2874 26.025 27.6949 26.025 27.6949C26.025 27.6949 22.134 29.7342 18.729 29.7342C15.324 29.7342 12.892 28.5108 12.892 28.5108C12.892 28.5108 15.811 32.1818 17.756 32.9976C19.702 33.8135 22.62 33.4051 22.62 33.4051C22.62 33.4051 21.647 35.8527 16.783 35.8527C11.919 35.8527 9 34.6294 9 34.6294C9 34.6294 15.324 38.3003 17.756 39.5237C18.806 40.052 19.945 40.3513 20.903 40.5224C20.076 40.9123 18.246 41.7004 16.59 41.8992C14.367 42.1658 14.367 42.1658 14.367 42.1658C14.367 42.1658 18.813 45.0947 24.212 48.0244C29.611 50.9533 34.057 52.2849 34.057 52.2849C34.057 52.2849 26.235 47.5666 23.458 43.0102C23.33 42.7997 23.212 42.5893 23.107 42.3805L24.032 37.9666C25.69 33.5653 29.673 25.2809 36.727 23.2106C46.456 20.3555 59.589 29.3283 69.318 43.1963C69.318 43.1938 59.103 22.7998 46.456 20.353Z" fill="#171717" stroke="#171717" stroke-miterlimit="10" stroke-linecap="round" stroke-linejoin="round"/>
<path d="M67.0779 36.905C67.0779 36.905 59.733 24.8683 52.389 18.9896C45.044 13.1108 34.5599 15.3312 31.0229 19.2696" stroke="#171717" stroke-miterlimit="10" stroke-linecap="round" stroke-linejoin="round"/>
<path d="M68.004 44.5908C68.004 46.36 66.294 47.7938 64.184 47.7938C62.074 47.7938 60.364 46.36 60.364 44.5908C60.364 42.8215 62.074 41.3877 64.184 41.3877C66.294 41.3877 68.004 42.8215 68.004 44.5908Z" fill="white"/>
</svg>
