<svg width="228" height="123" viewBox="0 0 228 123" fill="none" xmlns="http://www.w3.org/2000/svg">
<path d="M187.144 50.1469H39.416C37.5292 50.1469 36 48.8668 36 47.288V7.91459C36 6.33548 37.5296 5.05566 39.416 5.05566H187.144C189.031 5.05566 190.56 6.33548 190.56 7.91459V47.288C190.56 48.8668 189.031 50.1469 187.144 50.1469Z" fill="#171717" stroke="#171717" stroke-miterlimit="10" stroke-linecap="round" stroke-linejoin="round"/>
<path d="M189.584 48.4453H41.8557C39.9689 48.4453 38.4397 47.1651 38.4397 45.5863V6.21294C38.4397 4.63383 39.9693 3.354 41.8557 3.354H189.584C191.471 3.354 193 4.63415 193 6.21294V45.5863C193 47.1651 191.47 48.4453 189.584 48.4453Z" fill="white" stroke="#171717" stroke-miterlimit="10"/>
<path d="M89.5715 21.6734C89.5715 21.6275 89.5924 21.5657 89.6658 21.5043C89.7403 21.442 89.8586 21.3921 90.0051 21.3921C90.1513 21.3921 90.2697 21.4419 90.3443 21.5044C90.4178 21.5659 90.4387 21.6277 90.4387 21.6734V29.0955C90.4387 29.1412 90.4178 29.203 90.3443 29.2645C90.2697 29.327 90.1513 29.3768 90.0051 29.3768C89.8586 29.3768 89.7403 29.3269 89.6658 29.2646C89.5924 29.2032 89.5715 29.1414 89.5715 29.0955V21.6734Z" fill="#171717" stroke="#171717"/>
<path d="M100.966 21.6734C100.966 21.6277 100.987 21.5659 101.06 21.5044C101.135 21.4419 101.253 21.3921 101.4 21.3921C101.546 21.3921 101.664 21.442 101.739 21.5043C101.812 21.5657 101.833 21.6275 101.833 21.6734V29.0955C101.833 29.1414 101.812 29.2032 101.739 29.2646C101.664 29.3269 101.546 29.3768 101.4 29.3768C101.253 29.3768 101.135 29.3269 101.06 29.2646C100.987 29.2032 100.966 29.1414 100.966 29.0955V21.6734Z" fill="#171717" stroke="#171717"/>
<path d="M109.512 21.6734C109.512 21.6277 109.533 21.5659 109.606 21.5044C109.681 21.4419 109.799 21.3921 109.946 21.3921C110.092 21.3921 110.21 21.4419 110.285 21.5044C110.358 21.5659 110.379 21.6277 110.379 21.6734V29.0955C110.379 29.1414 110.358 29.2032 110.285 29.2646C110.21 29.3269 110.092 29.3768 109.946 29.3768C109.799 29.3768 109.681 29.3269 109.606 29.2646C109.533 29.2032 109.512 29.1414 109.512 29.0955V21.6734Z" fill="#171717" stroke="#171717"/>
<path d="M115.209 21.6734C115.209 21.6277 115.23 21.5659 115.304 21.5044C115.378 21.4419 115.497 21.3921 115.643 21.3921C115.789 21.3921 115.907 21.4419 115.982 21.5043C116.055 21.5657 116.076 21.6277 116.076 21.6737V29.0955C116.076 29.1412 116.056 29.203 115.982 29.2645C115.907 29.327 115.789 29.3768 115.643 29.3768C115.496 29.3768 115.378 29.3269 115.304 29.2646C115.23 29.2032 115.209 29.1414 115.209 29.0955V21.6734Z" fill="#171717" stroke="#171717"/>
<path d="M118.058 21.6734C118.058 21.6275 118.079 21.5657 118.152 21.5043C118.226 21.442 118.345 21.3921 118.491 21.3921C118.638 21.3921 118.756 21.442 118.83 21.5043C118.904 21.5657 118.925 21.6275 118.925 21.6734V29.0955C118.925 29.1412 118.904 29.203 118.83 29.2645C118.756 29.327 118.637 29.3768 118.491 29.3768C118.345 29.3768 118.226 29.3269 118.152 29.2646C118.079 29.2032 118.058 29.1414 118.058 29.0955V21.6734Z" fill="#171717" stroke="#171717"/>
<path d="M132.301 21.6734C132.301 21.6275 132.322 21.5657 132.395 21.5043C132.47 21.442 132.588 21.3921 132.735 21.3921C132.881 21.3921 132.999 21.4419 133.074 21.5044C133.147 21.5659 133.168 21.6277 133.168 21.6734V29.0955C133.168 29.1412 133.147 29.203 133.074 29.2646C132.999 29.327 132.881 29.3768 132.735 29.3768C132.588 29.3768 132.47 29.3269 132.395 29.2646C132.322 29.2032 132.301 29.1414 132.301 29.0955V21.6734Z" fill="#171717" stroke="#171717"/>
<path d="M149.393 21.6734C149.393 21.6275 149.414 21.5657 149.487 21.5043C149.562 21.442 149.68 21.3921 149.826 21.3921C149.973 21.3921 150.091 21.4419 150.166 21.5044C150.239 21.5659 150.26 21.6277 150.26 21.6734V29.0955C150.26 29.1412 150.239 29.203 150.166 29.2646C150.091 29.327 149.973 29.3768 149.826 29.3768C149.68 29.3768 149.562 29.3269 149.487 29.2646C149.414 29.2032 149.393 29.1414 149.393 29.0955V21.6734Z" fill="#171717" stroke="#171717"/>
<path d="M157.938 21.6734C157.938 21.6275 157.959 21.5657 158.033 21.5043C158.107 21.442 158.226 21.3921 158.372 21.3921C158.519 21.3921 158.637 21.442 158.711 21.5043C158.785 21.5657 158.806 21.6275 158.806 21.6734V29.0955C158.806 29.1412 158.785 29.203 158.711 29.2645C158.637 29.327 158.518 29.3768 158.372 29.3768C158.226 29.3768 158.107 29.3269 158.033 29.2646C157.959 29.2032 157.938 29.1414 157.938 29.0955V21.6734Z" fill="#171717" stroke="#171717"/>
<path d="M160.787 21.6734C160.787 21.6277 160.808 21.5659 160.881 21.5044C160.956 21.4419 161.074 21.3921 161.221 21.3921C161.367 21.3921 161.485 21.442 161.56 21.5043C161.633 21.5657 161.654 21.6275 161.654 21.6734V29.0955C161.654 29.1414 161.633 29.2032 161.56 29.2646C161.485 29.3269 161.367 29.3768 161.221 29.3768C161.074 29.3768 160.956 29.3269 160.881 29.2646C160.808 29.2032 160.787 29.1414 160.787 29.0955V21.6734Z" fill="#171717" stroke="#171717"/>
<path d="M172.182 21.6734C172.182 21.6277 172.203 21.5659 172.276 21.5044C172.351 21.4419 172.469 21.3921 172.615 21.3921C172.762 21.3921 172.88 21.4419 172.954 21.5043C173.028 21.5657 173.049 21.6277 173.049 21.6737V29.0955C173.049 29.1414 173.028 29.2032 172.955 29.2646C172.88 29.3269 172.762 29.3768 172.615 29.3768C172.469 29.3768 172.351 29.3269 172.276 29.2646C172.203 29.2032 172.182 29.1414 172.182 29.0955V21.6734Z" fill="#171717" stroke="#171717"/>
<path d="M175.03 21.6734C175.03 21.6277 175.051 21.5659 175.125 21.5044C175.199 21.4419 175.318 21.3921 175.464 21.3921C175.61 21.3921 175.729 21.442 175.803 21.5043C175.876 21.5657 175.897 21.6275 175.897 21.6734V29.0955C175.897 29.1412 175.877 29.203 175.803 29.2646C175.728 29.327 175.61 29.3768 175.464 29.3768C175.317 29.3768 175.199 29.3269 175.125 29.2646C175.051 29.2032 175.03 29.1414 175.03 29.0955V21.6734Z" fill="#171717" stroke="#171717"/>
<path d="M177.879 21.6734C177.879 21.6277 177.9 21.5659 177.973 21.5044C178.048 21.4419 178.166 21.3921 178.312 21.3921C178.459 21.3921 178.577 21.442 178.652 21.5043C178.725 21.5657 178.746 21.6275 178.746 21.6734V29.0955C178.746 29.1414 178.725 29.2032 178.652 29.2646C178.577 29.3269 178.459 29.3768 178.312 29.3768C178.166 29.3768 178.048 29.3269 177.973 29.2646C177.9 29.2032 177.879 29.1414 177.879 29.0955V21.6734Z" fill="#171717" stroke="#171717"/>
<path d="M180.728 21.6734C180.728 21.6277 180.748 21.5659 180.822 21.5044C180.896 21.4419 181.015 21.3921 181.161 21.3921C181.308 21.3921 181.426 21.442 181.5 21.5043C181.574 21.5657 181.595 21.6275 181.595 21.6734V29.0955C181.595 29.1412 181.574 29.203 181.5 29.2646C181.426 29.327 181.307 29.3768 181.161 29.3768C181.015 29.3768 180.896 29.3269 180.822 29.2646C180.748 29.2032 180.728 29.1414 180.728 29.0955V21.6734Z" fill="#171717" stroke="#171717"/>
<path d="M81.1086 21.6734C81.1086 21.6275 81.1295 21.5657 81.2029 21.5043C81.2774 21.442 81.3957 21.3921 81.5422 21.3921C81.6884 21.3921 81.8067 21.4419 81.8812 21.5043C81.9546 21.5657 81.9757 21.6277 81.9758 21.6737V29.0955C81.9758 29.1412 81.9549 29.203 81.8814 29.2646C81.8068 29.327 81.6885 29.3768 81.5422 29.3768C81.3957 29.3768 81.2774 29.3269 81.2029 29.2646C81.1295 29.2032 81.1086 29.1414 81.1086 29.0955V21.6734Z" fill="#171717" stroke="#171717"/>
<path d="M83.9565 21.6734C83.9565 21.6277 83.9774 21.5659 84.0509 21.5044C84.1255 21.4419 84.2438 21.3921 84.3901 21.3921C84.5366 21.3921 84.6549 21.442 84.7294 21.5043C84.8028 21.5657 84.8237 21.6275 84.8237 21.6734V29.0955C84.8237 29.1414 84.8028 29.2032 84.7294 29.2646C84.6549 29.3269 84.5366 29.3768 84.3901 29.3768C84.2436 29.3768 84.1253 29.3269 84.0508 29.2646C83.9774 29.2032 83.9565 29.1414 83.9565 29.0955V21.6734Z" fill="#171717" stroke="#171717"/>
<path d="M86.8054 21.6734C86.8054 21.6277 86.8263 21.5659 86.8998 21.5044C86.9744 21.4419 87.0927 21.3921 87.239 21.3921C87.3855 21.3921 87.5038 21.442 87.5783 21.5043C87.6517 21.5657 87.6725 21.6275 87.6725 21.6734V29.0955C87.6725 29.1412 87.6517 29.203 87.5782 29.2645C87.5036 29.327 87.3852 29.3768 87.239 29.3768C87.0925 29.3768 86.9742 29.3269 86.8997 29.2646C86.8263 29.2032 86.8054 29.1414 86.8054 29.0955V21.6734Z" fill="#171717" stroke="#171717"/>
<path d="M135.149 21.6734C135.149 21.6277 135.17 21.5659 135.244 21.5044C135.318 21.4419 135.437 21.3921 135.583 21.3921C135.729 21.3921 135.848 21.442 135.922 21.5043C135.996 21.5657 136.017 21.6275 136.017 21.6734V29.0955C136.017 29.1414 135.996 29.2032 135.922 29.2646C135.848 29.3269 135.729 29.3768 135.583 29.3768C135.436 29.3768 135.318 29.3269 135.244 29.2646C135.17 29.2032 135.149 29.1414 135.149 29.0955V21.6734Z" fill="#171717" stroke="#171717"/>
<path d="M120.906 21.6734C120.906 21.6277 120.927 21.5659 121.001 21.5044C121.075 21.4419 121.194 21.3921 121.34 21.3921C121.486 21.3921 121.605 21.442 121.679 21.5043C121.752 21.5657 121.773 21.6275 121.773 21.6734V29.0955C121.773 29.1414 121.752 29.2032 121.679 29.2646C121.605 29.3269 121.486 29.3768 121.34 29.3768C121.193 29.3768 121.075 29.3269 121.001 29.2646C120.927 29.2032 120.906 29.1414 120.906 29.0955V21.6734Z" fill="#171717" stroke="#171717"/>
<path d="M92.4202 18.3808C92.4202 18.3351 92.441 18.2733 92.5145 18.2118C92.5891 18.1493 92.7075 18.0995 92.8537 18.0995C93 18.0995 93.1183 18.1493 93.1929 18.2118C93.2664 18.2733 93.2873 18.3351 93.2873 18.3808V32.388C93.2873 32.4337 93.2664 32.4956 93.1929 32.5571C93.1183 32.6195 93 32.6693 92.8537 32.6693C92.7072 32.6693 92.5889 32.6194 92.5144 32.5571C92.4411 32.4957 92.4202 32.4339 92.4202 32.388V18.3808Z" fill="#171717" stroke="#171717"/>
<path d="M98.1177 18.3808C98.1177 18.3349 98.1386 18.2731 98.2119 18.2117C98.2864 18.1494 98.4047 18.0995 98.5512 18.0995C98.6975 18.0995 98.8157 18.1493 98.8902 18.2117C98.9636 18.2731 98.9847 18.3351 98.9848 18.3811V32.388C98.9848 32.4337 98.9639 32.4956 98.8904 32.5571C98.8158 32.6195 98.6975 32.6693 98.5512 32.6693C98.4047 32.6693 98.2864 32.6194 98.2119 32.5571C98.1386 32.4957 98.1177 32.4339 98.1177 32.388V18.3808Z" fill="#171717" stroke="#171717"/>
<path d="M106.663 18.3808C106.663 18.3349 106.684 18.2731 106.758 18.2117C106.832 18.1494 106.95 18.0995 107.097 18.0995C107.243 18.0995 107.361 18.1493 107.436 18.2118C107.51 18.2733 107.53 18.3351 107.53 18.3808V32.388C107.53 32.4337 107.51 32.4956 107.436 32.5571C107.361 32.6195 107.243 32.6693 107.097 32.6693C106.95 32.6693 106.832 32.6194 106.758 32.5571C106.684 32.4957 106.663 32.4339 106.663 32.388V18.3808Z" fill="#171717" stroke="#171717"/>
<path d="M112.361 18.3808C112.361 18.3351 112.381 18.2733 112.455 18.2118C112.53 18.1493 112.648 18.0995 112.794 18.0995C112.94 18.0995 113.059 18.1493 113.133 18.2117C113.207 18.2731 113.228 18.335 113.228 18.3811V32.388C113.228 32.4337 113.207 32.4956 113.133 32.5571C113.059 32.6195 112.94 32.6693 112.794 32.6693C112.648 32.6693 112.529 32.6194 112.455 32.5571C112.381 32.4957 112.361 32.4339 112.361 32.388V18.3808Z" fill="#171717" stroke="#171717"/>
<path d="M123.755 18.3808C123.755 18.3349 123.776 18.2731 123.849 18.2117C123.924 18.1494 124.042 18.0995 124.188 18.0995C124.335 18.0995 124.453 18.1494 124.528 18.2117C124.601 18.2731 124.622 18.3349 124.622 18.3808V32.388C124.622 32.4337 124.601 32.4956 124.528 32.5571C124.453 32.6195 124.335 32.6693 124.188 32.6693C124.042 32.6693 123.924 32.6194 123.849 32.5571C123.776 32.4957 123.755 32.4339 123.755 32.388V18.3808Z" fill="#171717" stroke="#171717"/>
<path d="M137.998 18.3808C137.998 18.3351 138.019 18.2733 138.092 18.2118C138.167 18.1493 138.285 18.0995 138.432 18.0995C138.578 18.0995 138.696 18.1494 138.771 18.2117C138.844 18.2731 138.865 18.3349 138.865 18.3808V32.388C138.865 32.4337 138.844 32.4956 138.771 32.5571C138.696 32.6195 138.578 32.6693 138.432 32.6693C138.285 32.6693 138.167 32.6194 138.092 32.5571C138.019 32.4957 137.998 32.4339 137.998 32.388V18.3808Z" fill="#171717" stroke="#171717"/>
<path d="M140.847 18.3808C140.847 18.3349 140.868 18.2731 140.941 18.2117C141.015 18.1494 141.134 18.0995 141.28 18.0995C141.427 18.0995 141.545 18.1494 141.62 18.2117C141.693 18.2731 141.714 18.3349 141.714 18.3808V32.388C141.714 32.4337 141.693 32.4956 141.619 32.5571C141.545 32.6195 141.426 32.6693 141.28 32.6693C141.134 32.6693 141.015 32.6194 140.941 32.5571C140.868 32.4957 140.847 32.4339 140.847 32.388V18.3808Z" fill="#171717" stroke="#171717"/>
<path d="M143.696 18.3808C143.696 18.3351 143.716 18.2733 143.79 18.2118C143.865 18.1493 143.983 18.0995 144.129 18.0995C144.276 18.0995 144.394 18.1494 144.468 18.2117C144.542 18.2731 144.563 18.3349 144.563 18.3808V32.388C144.563 32.4337 144.542 32.4956 144.468 32.5571C144.394 32.6195 144.275 32.6693 144.129 32.6693C143.983 32.6693 143.864 32.6194 143.79 32.5571C143.716 32.4957 143.696 32.4339 143.696 32.388V18.3808Z" fill="#171717" stroke="#171717"/>
<path d="M146.544 18.3808C146.544 18.3351 146.565 18.2733 146.638 18.2118C146.713 18.1493 146.831 18.0995 146.978 18.0995C147.124 18.0995 147.242 18.1493 147.317 18.2118C147.39 18.2733 147.411 18.3351 147.411 18.3808V32.388C147.411 32.4339 147.39 32.4957 147.317 32.5571C147.242 32.6194 147.124 32.6693 146.978 32.6693C146.831 32.6693 146.713 32.6194 146.638 32.5571C146.565 32.4957 146.544 32.4339 146.544 32.388V18.3808Z" fill="#171717" stroke="#171717"/>
<path d="M163.636 18.3808C163.636 18.3349 163.657 18.2731 163.73 18.2117C163.804 18.1494 163.923 18.0995 164.069 18.0995C164.216 18.0995 164.334 18.1493 164.408 18.2118C164.482 18.2733 164.503 18.3351 164.503 18.3808V32.388C164.503 32.4337 164.482 32.4956 164.408 32.5571C164.334 32.6195 164.216 32.6693 164.069 32.6693C163.923 32.6693 163.804 32.6194 163.73 32.5571C163.657 32.4957 163.636 32.4339 163.636 32.388V18.3808Z" fill="#171717" stroke="#171717"/>
<path d="M169.333 18.3808C169.333 18.3351 169.354 18.2733 169.428 18.2118C169.502 18.1493 169.621 18.0995 169.767 18.0995C169.913 18.0995 170.031 18.1493 170.106 18.2118C170.18 18.2733 170.2 18.3351 170.2 18.3808V32.388C170.2 32.4337 170.18 32.4956 170.106 32.5571C170.031 32.6195 169.913 32.6693 169.767 32.6693C169.62 32.6693 169.502 32.6194 169.428 32.5571C169.354 32.4957 169.333 32.4339 169.333 32.388V18.3808Z" fill="#171717" stroke="#171717"/>
<path d="M95.2688 15.0883C95.2688 15.0426 95.2897 14.9808 95.3632 14.9193C95.4378 14.8569 95.5561 14.807 95.7024 14.807C95.8486 14.807 95.9668 14.8568 96.0414 14.9192C96.1147 14.9807 96.1358 15.0426 96.1359 15.0886V35.6806C96.1359 35.7264 96.1151 35.7882 96.0416 35.8497C95.967 35.9121 95.8486 35.962 95.7024 35.962C95.5558 35.962 95.4375 35.9121 95.3631 35.8497C95.2897 35.7883 95.2688 35.7265 95.2688 35.6806V15.0883Z" fill="#171717" stroke="#171717"/>
<path d="M103.815 15.0883C103.815 15.0426 103.836 14.9808 103.909 14.9193C103.984 14.8569 104.102 14.807 104.248 14.807C104.395 14.807 104.513 14.8569 104.588 14.9192C104.661 14.9806 104.682 15.0424 104.682 15.0883V35.6806C104.682 35.7264 104.661 35.7882 104.587 35.8497C104.513 35.9121 104.395 35.962 104.248 35.962C104.102 35.962 103.983 35.9121 103.909 35.8497C103.836 35.7883 103.815 35.7265 103.815 35.6806V15.0883Z" fill="#171717" stroke="#171717"/>
<path d="M126.604 15.0883C126.604 15.0426 126.625 14.9808 126.698 14.9193C126.773 14.8569 126.891 14.807 127.037 14.807C127.184 14.807 127.302 14.8569 127.377 14.9193C127.45 14.9808 127.471 15.0426 127.471 15.0883V35.6806C127.471 35.7265 127.45 35.7883 127.377 35.8497C127.302 35.9121 127.184 35.962 127.037 35.962C126.891 35.962 126.773 35.9121 126.698 35.8497C126.625 35.7883 126.604 35.7265 126.604 35.6806V15.0883Z" fill="#171717" stroke="#171717"/>
<path d="M129.452 15.0883C129.452 15.0426 129.473 14.9808 129.547 14.9193C129.621 14.8569 129.74 14.807 129.886 14.807C130.032 14.807 130.151 14.8569 130.225 14.9193C130.299 14.9808 130.32 15.0426 130.32 15.0883V35.6806C130.32 35.7265 130.299 35.7883 130.225 35.8497C130.151 35.9121 130.032 35.962 129.886 35.962C129.739 35.962 129.621 35.9121 129.547 35.8497C129.473 35.7883 129.452 35.7265 129.452 35.6806V15.0883Z" fill="#171717" stroke="#171717"/>
<path d="M152.241 15.0883C152.241 15.0426 152.262 14.9808 152.336 14.9193C152.41 14.8569 152.529 14.807 152.675 14.807C152.821 14.807 152.939 14.8568 153.014 14.9192C153.087 14.9806 153.108 15.0426 153.109 15.0886V35.6806C153.109 35.7265 153.088 35.7883 153.014 35.8497C152.94 35.9121 152.822 35.962 152.675 35.962C152.529 35.962 152.41 35.9121 152.336 35.8497C152.262 35.7883 152.241 35.7265 152.241 35.6806V15.0883Z" fill="#171717" stroke="#171717"/>
<path d="M155.09 15.0883C155.09 15.0426 155.111 14.9808 155.184 14.9193C155.259 14.8569 155.377 14.807 155.523 14.807C155.67 14.807 155.788 14.8569 155.863 14.9192C155.936 14.9806 155.957 15.0424 155.957 15.0883V35.6806C155.957 35.7265 155.936 35.7883 155.863 35.8497C155.788 35.9121 155.67 35.962 155.523 35.962C155.377 35.962 155.259 35.9121 155.184 35.8497C155.111 35.7883 155.09 35.7265 155.09 35.6806V15.0883Z" fill="#171717" stroke="#171717"/>
<path d="M166.485 15.0883C166.485 15.0426 166.505 14.9808 166.579 14.9193C166.654 14.8569 166.772 14.807 166.918 14.807C167.064 14.807 167.183 14.8569 167.257 14.9193C167.331 14.9808 167.352 15.0426 167.352 15.0883V35.6806C167.352 35.7264 167.331 35.7882 167.257 35.8497C167.183 35.9121 167.064 35.962 166.918 35.962C166.772 35.962 166.653 35.9121 166.579 35.8497C166.506 35.7883 166.485 35.7265 166.485 35.6806V15.0883Z" fill="#171717" stroke="#171717"/>
<path d="M69.7066 18.3533C74.9521 22.7434 74.9521 29.8611 69.7066 34.2512C64.4611 38.6413 55.9565 38.6413 50.711 34.2512C45.4655 29.8611 45.4655 22.7434 50.711 18.3533C55.9565 13.9632 64.4611 13.9632 69.7066 18.3533Z" fill="#171717" stroke="#171717"/>
<path d="M70.5656 26.3023L53.8567 18.2286V34.376L70.5656 26.3023Z" fill="#D680FF" stroke="#171717" stroke-miterlimit="10"/>
<path d="M200.912 110.934H127.699C121.79 110.934 117 106.144 117 100.235V84.699C117 78.79 121.79 74 127.699 74H200.912C206.821 74 211.611 78.79 211.611 84.699V100.235C211.612 106.144 206.822 110.934 200.912 110.934Z" fill="#D680FF" stroke="#171717" stroke-miterlimit="10"/>
<path d="M126.405 114.114H202.933C209.532 114.114 214.882 108.764 214.882 102.165V84.111" stroke="#171717" stroke-miterlimit="10" stroke-linecap="round" stroke-linejoin="round"/>
<path d="M96.912 110.934H23.699C17.79 110.934 13 106.144 13 100.235V84.699C13 78.79 17.79 74 23.699 74H96.912C102.821 74 107.611 78.79 107.611 84.699V100.235C107.612 106.144 102.822 110.934 96.912 110.934Z" fill="#D680FF" stroke="#171717" stroke-miterlimit="10"/>
<path d="M22.405 114.114H98.933C105.532 114.114 110.882 108.764 110.882 102.165V84.111" stroke="#171717" stroke-miterlimit="10" stroke-linecap="round" stroke-linejoin="round"/>
<path d="M192.11 112.785L197.15 118.91L193.432 122.045L188.305 115.819L182.338 120.577L175.572 95.8721L198.24 107.897L192.11 112.785Z" fill="white" stroke="#171717" stroke-miterlimit="10" stroke-linecap="round" stroke-linejoin="round"/>
<path d="M167.278 87.2729L170.292 90.287" stroke="#171717" stroke-miterlimit="10" stroke-linecap="round" stroke-linejoin="round"/>
<path d="M164 95.174H168.254" stroke="#171717" stroke-miterlimit="10" stroke-linecap="round" stroke-linejoin="round"/>
<path d="M180.062 90.292L183.081 87.2729" stroke="#171717" stroke-miterlimit="10" stroke-linecap="round" stroke-linejoin="round"/>
<path d="M167.278 103.076L170.281 100.073" stroke="#171717" stroke-miterlimit="10" stroke-linecap="round" stroke-linejoin="round"/>
<path d="M175.174 88.265V84" stroke="#171717" stroke-miterlimit="10" stroke-linecap="round" stroke-linejoin="round"/>
</svg>
