<svg width="44" height="44" viewBox="0 0 44 44" fill="currentColor" xmlns="http://www.w3.org/2000/svg">
<path d="M17.38 6.35938C14.2751 4.87696 9.93524 4.15079 4.125 4.125C3.57704 4.11756 3.03983 4.27734 2.585 4.58305C2.21168 4.83539 1.90609 5.1756 1.6951 5.57375C1.4841 5.97191 1.37419 6.41581 1.375 6.86641V31.4531C1.375 33.1152 2.5575 34.369 4.125 34.369C10.2326 34.369 16.3591 34.9396 20.0286 38.4081C20.0788 38.4557 20.1419 38.4876 20.21 38.4997C20.2782 38.5118 20.3484 38.5036 20.412 38.4761C20.4755 38.4487 20.5296 38.4031 20.5674 38.3452C20.6053 38.2873 20.6253 38.2195 20.625 38.1502V9.17985C20.6252 8.98439 20.5833 8.79117 20.5024 8.61326C20.4214 8.43535 20.3032 8.2769 20.1558 8.1486C19.3152 7.43002 18.3815 6.82818 17.38 6.35938Z" fill="currentColor"/>
<path d="M41.415 4.58042C40.96 4.27547 40.4227 4.11658 39.875 4.12495C34.0648 4.15073 29.7249 4.87346 26.62 6.35932C25.6185 6.82727 24.6846 7.42793 23.8434 8.1451C23.6962 8.27363 23.5783 8.43215 23.4975 8.61002C23.4167 8.78789 23.375 8.981 23.375 9.17635V38.1485C23.375 38.215 23.3946 38.28 23.4313 38.3354C23.4681 38.3909 23.5205 38.4342 23.5818 38.46C23.6431 38.4858 23.7107 38.4929 23.776 38.4804C23.8413 38.468 23.9015 38.4365 23.9491 38.3899C26.1551 36.1985 30.0266 34.3664 39.8784 34.3672C40.6078 34.3672 41.3073 34.0775 41.823 33.5618C42.3387 33.046 42.6284 32.3466 42.6284 31.6172V6.86721C42.6294 6.41572 42.5193 5.97092 42.3076 5.5721C42.096 5.17327 41.7894 4.83269 41.415 4.58042Z" fill="currentColor"/>
</svg>
