<svg width="56" height="56" viewBox="0 0 56 56" fill="none" xmlns="http://www.w3.org/2000/svg">
<g clip-path="url(#clip0_223_859)">
<path d="M0 14.0918V20.2223H8.75467L0 14.0918ZM7.25511 48.2223H20.2222V39.1425L7.25511 48.2223ZM35.7778 39.144V48.2223H48.7433L35.7778 39.144ZM0 35.7778V41.9083L8.75778 35.7778H0ZM48.7464 7.77783H35.7778V16.8576L48.7464 7.77783ZM56 41.9098V35.7778H47.2407L56 41.9098ZM56 20.2223V14.0918L47.2438 20.2223H56ZM20.2222 7.77783H7.25511L20.2222 16.8576V7.77783Z" fill="#00247D"/>
<path d="M39.1066 35.7778L54.2141 46.3571C54.9519 45.597 55.4822 44.6602 55.7541 43.6364L44.5308 35.7778H39.1066ZM20.2221 35.7778H16.8917L1.7857 46.3555C2.59614 47.18 3.63525 47.7695 4.80036 48.0433L20.2221 37.2447V35.7778ZM35.7777 20.2222H39.1081L54.2141 9.64444C53.3898 8.80798 52.3449 8.22271 51.201 7.95667L35.7777 18.7553V20.2222ZM16.8917 20.2222L1.7857 9.64444C1.04829 10.4051 0.51763 11.3416 0.244141 12.3651L11.4675 20.2222H16.8917Z" fill="#CF1B2B"/>
<path d="M56 32.6667H32.6667V48.2223H35.7778V39.144L48.7433 48.2223H49.7778C50.6042 48.2224 51.4223 48.0575 52.1841 47.7372C52.946 47.4169 53.6362 46.9477 54.2142 46.3571L39.1067 35.7778H44.5309L55.7542 43.6365C55.8989 43.1123 56 42.5694 56 42V41.9098L47.2407 35.7778H56V32.6667ZM0 32.6667V35.7778H8.75778L0 41.9083V42C0 43.6971 0.682889 45.2325 1.78578 46.3556L16.8918 35.7778H20.2222V37.2447L4.80044 48.0418C5.25778 48.1507 5.73067 48.2223 6.22222 48.2223H7.25511L20.2222 39.1425V48.2223H23.3333V32.6667H0ZM56 14.0001C56.0009 12.3698 55.3593 10.8049 54.2142 9.6445L39.1082 20.2223H35.7778V18.7554L51.2011 7.95672C50.7351 7.84243 50.2575 7.7824 49.7778 7.77783H48.7464L35.7778 16.8576V7.77783H32.6667V23.3334H56V20.2223H47.2438L56 14.0918V14.0001ZM20.2222 7.77783V16.8576L7.25511 7.77783H6.22222C5.39564 7.77747 4.57732 7.94243 3.81543 8.263C3.05354 8.58357 2.36346 9.05328 1.78578 9.6445L16.8918 20.2223H11.4676L0.244222 12.3652C0.0898803 12.8967 0.00773642 13.4466 0 14.0001L0 14.0918L8.75467 20.2223H0V23.3334H23.3333V7.77783H20.2222Z" fill="#EEEEEE"/>
<path d="M32.6667 23.3334V7.77783H23.3333V23.3334H0V32.6667H23.3333V48.2223H32.6667V32.6667H56V23.3334H32.6667Z" fill="#CF1B2B"/>
</g>
<defs>
<clipPath id="clip0_223_859">
<rect width="56" height="56" fill="white"/>
</clipPath>
</defs>
</svg>
