<svg width="44" height="44" viewBox="0 0 44 44" fill="none" xmlns="http://www.w3.org/2000/svg">
<path d="M19.9375 35.75C19.4982 35.7501 19.0704 35.6091 18.7172 35.3479C18.6976 35.3342 18.6786 35.3196 18.6605 35.304L10.8075 28.875H4.8125C4.26549 28.875 3.74089 28.6577 3.35409 28.271C2.9673 27.8842 2.75 27.3596 2.75 26.8125V17.1875C2.75 16.6405 2.9673 16.1159 3.35409 15.7291C3.74089 15.3423 4.26549 15.125 4.8125 15.125H10.8066L18.6587 8.69606C18.6769 8.68051 18.6958 8.66588 18.7155 8.65223C19.0226 8.42632 19.3864 8.28997 19.7664 8.25833C20.1464 8.2267 20.5277 8.30101 20.868 8.47303C21.2083 8.64504 21.4942 8.90802 21.694 9.23275C21.8939 9.55748 21.9998 9.93125 22 10.3125V33.6875C22 34.2346 21.7827 34.7592 21.3959 35.146C21.0091 35.5327 20.4845 35.75 19.9375 35.75Z" fill="white"/>
<path d="M27.5002 28.875C27.2656 28.8749 27.0348 28.8148 26.83 28.7004C26.6251 28.586 26.453 28.421 26.3299 28.2213C26.2068 28.0215 26.1369 27.7936 26.1268 27.5592C26.1167 27.3248 26.1667 27.0917 26.2721 26.8821C27.0877 25.2604 27.501 23.6164 27.501 22C27.501 20.3345 27.1006 18.7395 26.2764 17.1247C26.1185 16.8008 26.0941 16.4279 26.2084 16.0861C26.3227 15.7444 26.5666 15.4612 26.8875 15.2974C27.2085 15.1336 27.581 15.1024 27.9247 15.2105C28.2685 15.3185 28.5561 15.5572 28.7257 15.8752C29.7509 17.8853 30.2502 19.8893 30.2502 22C30.2502 24.0504 29.7346 26.1086 28.7291 28.1178C28.6146 28.3455 28.439 28.5369 28.222 28.6706C28.005 28.8043 27.7551 28.8751 27.5002 28.875Z" fill="white"/>
<path d="M31.6248 33.0001C31.3834 33.0001 31.1463 32.9366 30.9372 32.816C30.7281 32.6953 30.5545 32.5217 30.4338 32.3127C30.3131 32.1037 30.2495 31.8665 30.2495 31.6251C30.2495 31.3837 30.313 31.1466 30.4337 30.9376C32.0588 28.1094 32.9998 25.7392 32.9998 22.0001C32.9998 18.2042 32.0605 15.8504 30.4372 13.0677C30.2591 12.753 30.2122 12.3809 30.3065 12.0319C30.4009 11.6828 30.6289 11.385 30.9412 11.2029C31.2535 11.0207 31.625 10.9689 31.9752 11.0587C32.3255 11.1484 32.6263 11.3725 32.8125 11.6824C34.6258 14.7908 35.7498 17.6009 35.7498 22.0001C35.7498 26.3339 34.6275 29.1578 32.8168 32.3126C32.696 32.5218 32.5222 32.6954 32.313 32.8161C32.1037 32.9368 31.8664 33.0003 31.6248 33.0001Z" fill="white"/>
<path d="M35.7502 37.125C35.5026 37.1249 35.2596 37.0578 35.0469 36.931C34.8343 36.8042 34.6598 36.6223 34.5419 36.4045C34.4241 36.1868 34.3672 35.9412 34.3773 35.6938C34.3875 35.4464 34.4642 35.2064 34.5995 34.999C36.9404 31.4076 38.5002 27.8232 38.5002 22C38.5002 16.2852 36.9378 12.6655 34.5909 8.98997C34.4937 8.83762 34.4275 8.66762 34.396 8.48968C34.3646 8.31173 34.3684 8.12934 34.4075 7.9529C34.4465 7.77646 34.5199 7.60944 34.6235 7.46136C34.727 7.31329 34.8587 7.18706 35.0111 7.08989C35.1635 6.99273 35.3335 6.92652 35.5114 6.89505C35.6893 6.86358 35.8717 6.86747 36.0482 6.90649C36.2246 6.94551 36.3916 7.01891 36.5397 7.12248C36.6878 7.22605 36.814 7.35777 36.9112 7.51013C39.5151 11.5922 41.2502 15.6183 41.2502 22C41.2502 27.5645 39.9903 31.7651 36.9017 36.5011C36.7768 36.6927 36.6061 36.8501 36.405 36.959C36.2039 37.068 35.9789 37.125 35.7502 37.125Z" fill="white"/>
</svg>
