<svg width="44" height="44" viewBox="0 0 44 44" fill="currentColor" xmlns="http://www.w3.org/2000/svg">
<path d="M28.5863 5.54984C26.914 3.7443 24.5782 2.75 22.0001 2.75C19.4082 2.75 17.0647 3.73828 15.4001 5.53266C13.7174 7.3468 12.8976 9.81234 13.0901 12.4747C13.4716 17.7272 17.4686 22 22.0001 22C26.5316 22 30.5216 17.728 30.9092 12.4764C31.1043 9.83812 30.2793 7.37773 28.5863 5.54984Z" fill="currentColor"/>
<path d="M37.125 41.25H6.875C6.47906 41.2551 6.08694 41.172 5.72719 41.0065C5.36744 40.8411 5.04909 40.5975 4.79532 40.2935C4.23672 39.6258 4.01157 38.714 4.17828 37.7919C4.9036 33.7683 7.16719 30.3884 10.725 28.0156C13.8858 25.9093 17.8896 24.75 22 24.75C26.1104 24.75 30.1142 25.9102 33.275 28.0156C36.8328 30.3875 39.0964 33.7674 39.8217 37.791C39.9884 38.7131 39.7633 39.6249 39.2047 40.2927C38.951 40.5968 38.6327 40.8405 38.2729 41.0061C37.9132 41.1717 37.521 41.255 37.125 41.25Z" fill="currentColor"/>
</svg>
