<svg width="56" height="56" viewBox="0 0 56 56" fill="none" xmlns="http://www.w3.org/2000/svg">
<path fill-rule="evenodd" clip-rule="evenodd" d="M19.25 49C19.25 48.0335 20.0335 47.25 21 47.25H35C35.9665 47.25 36.75 48.0335 36.75 49C36.75 49.9665 35.9665 50.75 35 50.75H21C20.0335 50.75 19.25 49.9665 19.25 49Z" fill="white"/>
<path fill-rule="evenodd" clip-rule="evenodd" d="M14 21C14.9665 21 15.75 21.7835 15.75 22.75V26.25C15.75 32.9835 21.2665 38.5 28 38.5C34.7335 38.5 40.25 32.9835 40.25 26.25V22.75C40.25 21.7835 41.0335 21 42 21C42.9665 21 43.75 21.7835 43.75 22.75V26.25C43.75 34.9165 36.6665 42 28 42C19.3335 42 12.25 34.9165 12.25 26.25V22.75C12.25 21.7835 13.0335 21 14 21Z" fill="white"/>
<path fill-rule="evenodd" clip-rule="evenodd" d="M28 38.5C28.9665 38.5 29.75 39.2835 29.75 40.25V49C29.75 49.9665 28.9665 50.75 28 50.75C27.0335 50.75 26.25 49.9665 26.25 49V40.25C26.25 39.2835 27.0335 38.5 28 38.5Z" fill="white"/>
<path d="M28.0001 34.9999C26.8451 34.9972 25.7025 34.7625 24.64 34.3097C23.5775 33.8569 22.6168 33.1952 21.8149 32.364C20.1734 30.7085 19.2516 28.472 19.2501 26.1406V13.9999C19.2456 12.8496 19.4688 11.7098 19.907 10.6462C20.3451 9.58254 20.9895 8.61617 21.8029 7.80276C22.6163 6.98936 23.5827 6.34501 24.6463 5.90687C25.7099 5.46873 26.8497 5.24546 28.0001 5.24994C32.9066 5.24994 36.7501 9.09338 36.7501 13.9999V26.1406C36.7501 31.0253 32.8246 34.9999 28.0001 34.9999Z" fill="white"/>
</svg>
