<svg width="175" height="170" viewBox="0 0 175 170" fill="none" xmlns="http://www.w3.org/2000/svg">
<path d="M100.17 100.915L99.4214 100.545C99.2696 99.4934 99.1465 96.5791 94.4986 95.9927C89.8507 95.4063 84.8352 101.584 84.8352 101.584L84.2476 101.178L80.895 87.6095L78.686 87.0797L78.6982 87.0096C78.3038 86.9487 77.924 86.8725 77.54 86.8042L76.7037 86.6043L76.6372 86.6451C51.8214 81.9625 40.8823 66.6778 40.8823 66.6778C40.8823 66.6778 32.1729 64.857 26.6509 65.8055C21.1289 66.754 14.6815 80.6178 14.6815 80.6178C14.6815 80.6178 9.68619 83.6101 4.43422 95.0089C-0.817751 106.408 -0.747044 115.831 7.30403 120.112C12.1196 122.673 16.6138 124.457 19.5501 124.968C21.5251 125.311 22.6229 125.905 22.6229 125.905C21.6982 130.488 16.9845 142.665 15.652 147.989C14.3195 153.314 17.9914 166.223 26.24 168.218C34.4886 170.212 36.4855 159.182 36.4855 159.182C36.4855 159.182 37.4986 161.765 43.0639 161.781C48.6292 161.797 50.5822 152.576 50.5822 152.576C50.5822 152.576 56.6266 151.351 61.6152 146.309C66.6039 141.267 68.6325 130.419 69.6279 126.991C70.2801 124.743 71.7827 121.343 72.7403 119.267C73.665 120.625 76.0106 123.351 80.1818 123.829C85.7776 124.468 89.6818 121.62 89.6818 121.62C89.6818 121.62 93.1362 121.526 96.2297 120.401C99.3232 119.277 104.093 117.174 105.674 109.73C107.254 102.286 100.17 100.915 100.17 100.915Z" fill="white"/>
<g opacity="0.3">
<path d="M77.0452 113.424C77.0452 113.424 80.1271 115.84 85.4151 116.082C90.703 116.324 93.9221 112.594 93.9221 112.594C93.9221 112.594 93.9337 111.199 93.9221 110.289C93.9105 109.38 94.7017 113.935 94.7017 113.935C94.7017 113.935 98.2938 114.362 99.872 113.552C103.249 111.817 105.735 109.411 105.735 109.411C105.735 109.411 104.221 118.05 97.7824 119.787C91.3436 121.525 90.0672 121.595 90.0672 121.595C90.0672 121.595 85.0652 124.79 79.8028 123.776C74.5405 122.763 73.7737 119.564 73.7737 119.564L73.1995 118.278C73.1995 118.278 73.3299 117.816 73.5945 117.773C73.859 117.731 75.1354 117.638 75.3085 117.45C75.4817 117.263 75.7779 116.665 75.7779 116.665L77.0452 113.424Z" fill="#393939"/>
</g>
<g opacity="0.3">
<path d="M22.9795 123.145L16.7864 121.595C16.7864 121.595 17.8665 120.132 18.0939 119.792C18.3213 119.452 18.9028 117.207 18.9003 116.996C18.8979 116.784 19.1173 115.072 19.1173 115.072L20.9966 114.768C20.9966 114.768 21.8719 115.393 21.8268 115.775C21.7817 116.156 21.636 119.296 21.8268 119.317C22.0176 119.339 22.9795 123.145 22.9795 123.145Z" fill="#393939"/>
</g>
<path d="M67.297 110.758C67.9434 108.711 67.3375 106.695 65.9437 106.255C64.5499 105.815 62.8961 107.117 62.2497 109.164C61.6033 111.211 62.2092 113.227 63.603 113.667C64.9968 114.107 66.6506 112.805 67.297 110.758Z" fill="#CCDFF6"/>
<path d="M27.3215 95.605C27.1536 95.605 26.9896 95.5544 26.8508 95.4598C26.7121 95.3652 26.6051 95.231 26.5437 95.0747C22.9162 85.8521 11.9521 84.28 11.8417 84.2672C11.6244 84.2354 11.4284 84.1192 11.296 83.944C11.1636 83.7687 11.1056 83.5483 11.1344 83.3306C11.1633 83.1129 11.2767 82.9152 11.4501 82.7805C11.6235 82.6457 11.843 82.5846 12.0612 82.6104C12.5488 82.675 24.1061 84.3105 28.0969 94.4651C28.1461 94.5916 28.1639 94.7281 28.1486 94.863C28.1333 94.9978 28.0854 95.1269 28.0091 95.2391C27.9328 95.3513 27.8303 95.4432 27.7105 95.507C27.5907 95.5707 27.4572 95.6044 27.3215 95.605Z" fill="#393939"/>
<path d="M40.7537 111.75C40.6974 111.75 40.6412 111.744 40.586 111.733C40.0771 111.629 28.0504 109.092 22.6589 101.393C22.596 101.304 22.5514 101.202 22.5276 101.095C22.5039 100.988 22.5015 100.877 22.5205 100.769C22.559 100.551 22.6825 100.357 22.864 100.23C23.0455 100.103 23.27 100.053 23.4882 100.092C23.7063 100.13 23.9003 100.254 24.0273 100.435C28.6216 106.994 38.9085 109.629 40.6647 110.038C41.7875 109.509 42.4873 108.808 42.7463 107.952C43.1047 106.768 42.5689 105.507 42.2959 104.978C27.9011 100.965 26.248 96.0336 26.1059 95.4801C26.0543 95.268 26.0878 95.0441 26.1992 94.8563C26.3105 94.6686 26.4909 94.5318 26.7018 94.4753C26.9127 94.4189 27.1373 94.4472 27.3276 94.5542C27.5179 94.6612 27.6588 94.8384 27.7201 95.048C27.7585 95.1632 29.3939 99.7099 43.0731 103.46C43.2701 103.514 43.4405 103.638 43.5522 103.809C43.6131 103.903 45.0431 106.133 44.3446 108.437C43.9179 109.846 42.8207 110.936 41.081 111.683C40.9775 111.727 40.8661 111.75 40.7537 111.75Z" fill="#393939"/>
<path d="M65.8609 122.431C65.8133 122.431 65.7664 122.431 65.7183 122.427C63.7847 122.333 44.6275 117.621 41.8845 116.406C38.6398 114.971 38.402 113.64 39.359 110.608C39.3903 110.501 39.4426 110.401 39.5128 110.315C39.583 110.229 39.6697 110.157 39.7678 110.105C39.866 110.053 39.9736 110.021 40.0843 110.01C40.1951 110 40.3068 110.012 40.4128 110.046C40.5189 110.079 40.6172 110.134 40.7019 110.206C40.7867 110.278 40.8563 110.366 40.9065 110.465C40.9568 110.564 40.9867 110.672 40.9946 110.783C41.0025 110.894 40.9882 111.006 40.9524 111.111C40.2015 113.488 40.2429 113.854 42.5605 114.878C45.3772 116.124 64.554 120.698 65.8012 120.758C66.6643 120.793 67.4915 119.914 67.8127 119.468C68.1583 118.276 70.7642 109.263 71.3317 106.957C71.7328 105.328 70.8507 104.275 70.5319 103.96C68.5551 103.381 51.3918 98.3548 48.4049 97.4935C46.1118 96.8321 45.0987 98.2573 44.9091 98.5669L43.0804 104.358C43.0137 104.569 42.8658 104.745 42.6692 104.848C42.4726 104.95 42.2433 104.97 42.032 104.903C41.8206 104.837 41.6444 104.689 41.542 104.492C41.4397 104.295 41.4197 104.066 41.4864 103.855L43.3413 97.9787C43.3575 97.9301 43.3779 97.883 43.4023 97.8379C43.9643 96.7797 45.8295 95.0101 48.8694 95.8873C52.0257 96.798 70.9964 102.353 71.186 102.41C71.2901 102.44 71.3873 102.49 71.4719 102.558C71.5627 102.63 73.6901 104.367 72.9543 107.356C72.3411 109.847 69.5012 119.647 69.3805 120.063C69.3576 120.141 69.3235 120.216 69.2793 120.284C69.2214 120.374 67.8682 122.43 65.8609 122.431Z" fill="#393939"/>
<path d="M44.2251 117.162C44.0971 117.162 43.9709 117.133 43.8561 117.076C43.7412 117.02 43.6409 116.937 43.5628 116.836C43.4848 116.735 43.431 116.617 43.4057 116.491C43.3804 116.366 43.3842 116.236 43.4168 116.112C43.5741 115.518 47.2729 101.547 47.7868 100.203C48.3354 98.7613 50.0775 96.9582 50.2738 96.7577C50.3505 96.6793 50.4419 96.6168 50.5428 96.5737C50.6437 96.5306 50.7521 96.5078 50.8618 96.5066C50.9715 96.5055 51.0803 96.5259 51.1821 96.5668C51.2839 96.6076 51.3767 96.6682 51.4551 96.7449C51.5335 96.8216 51.596 96.913 51.6391 97.0139C51.6822 97.1148 51.705 97.2232 51.7062 97.3329C51.7073 97.4426 51.6869 97.5515 51.646 97.6533C51.6052 97.7551 51.5446 97.8478 51.4679 97.9262C51.001 98.4041 49.7093 99.8518 49.3485 100.799C48.948 101.848 46.0971 112.519 45.0322 116.542C44.9847 116.72 44.8799 116.877 44.734 116.989C44.588 117.101 44.4091 117.162 44.2251 117.162Z" fill="#393939"/>
<path d="M55.5105 120.151C55.3824 120.151 55.2562 120.121 55.1414 120.064C55.0266 120.008 54.9264 119.925 54.8484 119.824C54.7704 119.722 54.7167 119.604 54.6915 119.478C54.6663 119.353 54.6702 119.223 54.7028 119.099L57.0509 110.35L54.1908 107.209C54.0984 107.108 54.0324 106.985 53.9987 106.852C53.965 106.719 53.9646 106.579 53.9976 106.446L55.8799 98.8356C55.9375 98.6253 56.075 98.4459 56.2631 98.3356C56.4511 98.2252 56.6749 98.1928 56.8865 98.2451C57.0982 98.2975 57.281 98.4305 57.396 98.6157C57.511 98.801 57.549 99.0238 57.5019 99.2367L55.7269 106.414L58.5918 109.562C58.686 109.666 58.7527 109.791 58.7858 109.927C58.8189 110.064 58.8174 110.206 58.7814 110.341L56.3151 119.531C56.2677 119.709 56.1632 119.866 56.0178 119.978C55.8724 120.09 55.6941 120.151 55.5105 120.151Z" fill="#393939"/>
<path d="M64.7912 114.372C64.5179 114.373 64.2462 114.332 63.9854 114.25C63.0509 113.955 62.3237 113.149 61.9897 112.039C61.6849 111.026 61.7184 109.834 62.0817 108.682C62.8809 106.149 64.9698 104.626 66.8363 105.216C68.7028 105.805 69.5403 108.252 68.7406 110.784C68.3748 111.936 67.7195 112.931 66.8887 113.588C66.2328 114.101 65.4995 114.372 64.7912 114.372ZM66.025 106.76C65.1496 106.76 64.114 107.793 63.6751 109.182C63.4154 110.005 63.3844 110.87 63.5904 111.555C63.6916 111.891 63.9427 112.481 64.4883 112.652C65.0338 112.823 65.5794 112.485 65.8555 112.268C66.4169 111.825 66.8881 111.099 67.1478 110.276C67.6391 108.719 67.2593 107.096 66.3346 106.802C66.2341 106.772 66.1297 106.758 66.025 106.76Z" fill="#393939"/>
<path d="M59.4563 141.924C53.2132 141.924 48.4842 138.962 47.12 138.004C41.5608 140.082 35.4469 139.26 29.4068 135.616C24.7839 132.827 21.8635 129.416 21.741 129.272C21.5975 129.103 21.527 128.884 21.545 128.663C21.563 128.442 21.668 128.238 21.837 128.094C22.0059 127.951 22.2249 127.88 22.4458 127.898C22.6668 127.916 22.8715 128.021 23.0149 128.19C23.1271 128.323 34.3942 141.34 46.9316 136.285C47.0677 136.23 47.2157 136.212 47.3609 136.232C47.5061 136.253 47.6433 136.311 47.7588 136.402C47.8375 136.463 55.7825 142.526 65.3075 139.273C65.5171 139.202 65.7465 139.216 65.9454 139.314C66.1442 139.411 66.2962 139.584 66.3678 139.794C66.4394 140.003 66.4248 140.233 66.3273 140.431C66.2297 140.63 66.0571 140.782 65.8475 140.854C63.791 141.562 61.6312 141.923 59.4563 141.924Z" fill="#393939"/>
<g opacity="0.3">
<path d="M0.650107 105.625C0.650107 105.625 4.31174 113.396 8.75726 113.29C13.2028 113.184 17.4862 96.6674 26.2285 89.5605C34.9708 82.4537 42.0819 84.1909 42.3538 85.1687C42.6256 86.1464 32.4301 93.3148 36.2929 102.087C36.2929 102.087 32.0303 100.699 29.1001 98.0218C29.1001 98.0218 28.9044 104.991 43.5363 108.22L43.2547 109.121C43.2547 109.121 43.9252 111.218 44.9468 111.947C45.9685 112.676 63.5342 117.611 65.6298 117.867C67.7255 118.122 68.9666 117.498 68.9666 117.498L70.1564 113.268C70.1564 113.268 74.0387 114.022 74.1472 114.23C74.2557 114.439 73.5047 117.278 73.5047 117.278L72.1753 117.261L70.1229 117.023L69.3274 117.236L68.4338 120.29C68.4338 120.29 67.8651 122.031 65.4836 121.562C63.102 121.094 44.5013 116.677 41.5498 115.327C38.5983 113.977 40.074 111.6 40.074 111.6L39.6601 110.704C39.6601 110.704 35.1378 109.795 30.0437 106.758C30.0437 106.758 30.5637 117.737 29.8316 124.47C29.0995 131.203 21.3246 145.17 20.5449 150.03C19.7653 154.89 22.5656 162.564 27.5817 164.321C32.5978 166.079 35.3932 162.624 35.3932 162.624C35.3932 162.624 33.0543 170.33 25.8067 168.107C18.559 165.883 15.1186 155.46 15.3905 150.003C15.6624 144.545 21.9408 130.483 22.6711 125.62C23.4013 120.757 22.2352 118.571 22.2352 118.571C22.2352 118.571 22.3681 116.083 21.4068 115.131C20.4456 114.179 20.1938 114.456 19.3453 114.765C17.9281 115.286 19.8647 118.849 17.3338 120.462C17.0991 120.612 14.1458 123.227 9.18334 120.938C4.22091 118.648 -0.61534 114.162 0.650107 105.625Z" fill="#393939"/>
</g>
<g opacity="0.3">
<path d="M47.315 158.421C47.315 158.421 43.996 160.043 41.0073 156.952C38.0186 153.862 46.92 147.351 50.2007 142.108C53.4813 136.866 53.983 128.104 53.983 128.104L50.3256 127.434L49.3503 128.074C49.3503 128.074 48.65 134.525 46.1075 139.729C43.565 144.933 36.9836 152.272 36.9836 152.272C36.9836 152.272 35.5871 153.118 35.8559 154.279C36.1247 155.441 36.4088 158.039 36.4088 158.039C36.4088 158.039 36.8105 160.14 38.0235 160.682C39.2365 161.224 45.8722 163.362 47.315 158.421Z" fill="#393939"/>
</g>
<g opacity="0.3">
<path d="M40.5105 67.8389C40.5105 67.8389 45.387 80.1416 58.4822 86.8273C71.5773 93.5129 79.217 88.2091 79.217 88.2091L78.6958 87.0095C78.6958 87.0095 53.9153 82.6969 43.2517 69.4335L40.5105 67.8389Z" fill="#393939"/>
</g>
<path d="M28.1661 169.463C27.4356 169.459 26.7082 169.368 25.9991 169.192C22.8398 168.429 20.0328 166.145 17.8816 162.59C15.0898 157.976 13.7104 151.595 14.6735 147.746C15.3038 145.228 16.6296 141.346 18.0322 137.235C19.5665 132.741 21.1531 128.092 21.6341 125.708C22.4777 121.525 20.8715 118.428 20.8551 118.397C20.7305 118.162 20.7044 117.887 20.7826 117.633C20.8607 117.379 21.0366 117.166 21.2717 117.041C21.5068 116.917 21.7817 116.891 22.036 116.969C22.2903 117.047 22.5031 117.223 22.6277 117.458C22.7081 117.609 24.585 121.226 23.603 126.104C23.0958 128.618 21.4884 133.328 19.9334 137.883C18.6052 141.773 17.2318 145.796 16.6223 148.233C15.8908 151.153 16.8051 156.934 19.6 161.552C20.9032 163.705 23.1531 166.441 26.4734 167.244C28.2649 167.676 29.7961 167.458 31.1542 166.576C34.472 164.422 35.4924 159.055 35.5022 159.001C35.5851 158.549 35.9545 158.183 36.4123 158.153C36.87 158.122 37.2803 158.378 37.4217 158.815C37.4217 158.815 38.3909 160.765 43.0699 160.777H43.0815C47.7562 160.777 49.5867 152.451 49.6038 152.368C49.6445 152.177 49.7402 152.002 49.879 151.864C50.0178 151.726 50.1937 151.632 50.3852 151.593C50.4419 151.582 56.2059 150.352 60.902 145.604C64.9049 141.556 66.9811 133.312 68.0948 128.883C68.313 128.018 68.5007 127.272 68.6635 126.712C69.6711 123.24 72.5708 117.263 72.6939 117.012C72.7863 116.821 72.9371 116.664 73.1244 116.565C73.3116 116.465 73.5257 116.428 73.7356 116.458C74.0721 116.504 74.4125 116.515 74.7512 116.49C75.0413 115.716 75.6564 113.362 76.1214 111.365C76.1458 111.232 76.197 111.104 76.2721 110.991C76.3471 110.878 76.4443 110.781 76.5579 110.707C76.6715 110.632 76.799 110.581 76.9327 110.558C77.0665 110.534 77.2036 110.538 77.3359 110.568C77.4682 110.599 77.5928 110.657 77.7022 110.737C77.8116 110.818 77.9035 110.92 77.9723 111.037C78.0412 111.154 78.0855 111.284 78.1026 111.418C78.1198 111.553 78.1094 111.69 78.072 111.821C76.781 117.36 76.3884 117.766 76.2001 117.96C75.7429 118.432 74.9493 118.54 74.1965 118.512C73.4241 120.143 71.3638 124.594 70.5866 127.27C70.4343 127.797 70.2502 128.527 70.038 129.373C68.8756 133.987 66.7129 142.577 62.3247 147.014C58.076 151.31 53.1423 152.94 51.4135 153.405C50.8332 155.607 48.5242 162.782 43.0802 162.782H43.0626C39.9428 162.773 38.0806 162.006 36.9901 161.218C36.3379 163.27 34.9371 166.505 32.252 168.254C31.0393 169.051 29.6176 169.472 28.1661 169.463Z" fill="#393939"/>
<path d="M81.4827 124.89C78.1838 124.89 74.6069 123.671 72.0284 119.481C71.8978 119.255 71.8604 118.987 71.9243 118.734C71.9882 118.481 72.1483 118.263 72.3706 118.126C72.5929 117.989 72.8598 117.944 73.1146 118.001C73.3694 118.058 73.5921 118.212 73.7352 118.43C75.8778 121.909 79.0902 123.373 83.284 122.777C86.5311 122.316 89.1357 120.776 89.165 120.76C89.3032 120.677 89.4591 120.629 89.6197 120.619C100.845 119.955 104.952 113.638 105.052 107.948C105.148 102.501 99.5714 101.935 99.3343 101.913C99.201 101.901 99.0714 101.863 98.9531 101.8C98.8349 101.738 98.7303 101.652 98.6456 101.548C98.5609 101.445 98.4977 101.325 98.4598 101.197C98.4219 101.068 98.41 100.934 98.4248 100.801C98.459 100.465 98.6565 97.4537 95.0192 97.0216C91.5319 96.604 86.742 100.954 85.1913 102.665C85.0691 102.799 84.9127 102.898 84.7387 102.951C84.5647 103.003 84.3797 103.008 84.2034 102.963C84.0272 102.919 83.8663 102.828 83.7379 102.699C83.6096 102.57 83.5186 102.409 83.4747 102.233L80.0612 88.4231L78.4843 87.9922C64.7387 85.788 55.0485 80.2983 49.3369 76.0783C44.0435 72.1674 41.1347 68.6569 40.3069 67.5883C38.6178 67.2647 31.4585 65.9968 26.8155 66.7959C22.7144 67.5 17.3186 77.3194 15.5856 81.0438C15.5274 81.1687 15.4445 81.2805 15.3418 81.3723C15.2753 81.4333 8.70975 87.2973 5.35717 95.3922C0.208821 107.827 0.998813 115.624 7.77103 119.226C10.461 120.657 12.9438 120.975 15.5844 120.227C15.711 120.191 15.8436 120.18 15.9744 120.195C16.1052 120.211 16.2318 120.251 16.3468 120.315C16.4619 120.38 16.5631 120.466 16.6449 120.569C16.7267 120.672 16.7873 120.791 16.8233 120.917C16.8593 121.044 16.87 121.176 16.8548 121.307C16.8396 121.438 16.7988 121.565 16.7347 121.68C16.6706 121.795 16.5845 121.896 16.4812 121.978C16.378 122.06 16.2597 122.12 16.133 122.156C13.0065 123.042 9.96422 122.663 6.83108 120.998C2.68181 118.791 0.400225 115.217 0.0485085 110.376C-0.256272 106.14 0.872633 100.989 3.50654 94.626C6.78598 86.7017 12.7822 80.9926 13.8575 80.0094C14.8669 77.8728 20.8065 65.7908 26.4796 64.8167C32.1248 63.8481 40.7226 65.6207 41.0859 65.6963C41.3317 65.7481 41.5492 65.8901 41.6955 66.0943C41.8083 66.2516 53.3381 81.9465 78.8567 86.019C78.8925 86.0249 78.9279 86.0326 78.9628 86.0422L81.1572 86.642C81.3294 86.6891 81.4859 86.7812 81.6106 86.9089C81.7353 87.0367 81.8237 87.1953 81.8667 87.3686L84.9956 100.022C87.0986 98.0468 91.4057 94.5693 95.2575 95.0289C99.1094 95.4885 100.282 98.131 100.431 100.05C103.175 100.607 107.15 102.742 107.058 107.983C106.948 114.231 102.402 121.782 89.9696 122.607C89.0528 123.103 85.4735 124.89 81.4827 124.89Z" fill="#393939"/>
<path d="M15.8556 122.196C15.6153 122.195 15.3833 122.108 15.2017 121.951C15.0201 121.793 14.901 121.576 14.8661 121.338C14.8312 121.101 14.8828 120.858 15.0115 120.655C15.1401 120.452 15.3374 120.302 15.5673 120.232C16.4957 119.953 17.1284 119.471 17.5008 118.76C18.3103 117.216 17.6404 115.099 17.6337 115.077C17.5796 114.911 17.57 114.733 17.6061 114.561C17.6422 114.389 17.7225 114.23 17.8393 114.099C17.956 113.968 18.1049 113.87 18.2713 113.815C18.4377 113.759 18.6157 113.749 18.7876 113.783C20.1988 114.067 21.5105 112.976 21.7787 112.735C23.5099 110.284 20.8376 106.672 20.8101 106.636C20.6554 106.43 20.5853 106.173 20.6145 105.917C20.6474 105.63 21.5136 98.8143 29.3995 90.9985C29.5884 90.8113 29.8439 90.7068 30.1099 90.708C30.3758 90.7092 30.6304 90.816 30.8176 91.0049C31.0048 91.1938 31.1093 91.4494 31.1081 91.7153C31.1069 91.9813 31.0001 92.2359 30.8112 92.4231C24.4517 98.7259 22.9588 104.358 22.6681 105.796C23.4666 107.005 25.6629 110.885 23.3386 114.002C23.3094 114.041 23.2774 114.078 23.2429 114.112C23.171 114.184 21.7647 115.562 19.8324 115.801C19.9708 116.852 19.9799 118.348 19.2881 119.678C18.6621 120.882 17.6057 121.714 16.1494 122.153C16.0542 122.182 15.9552 122.196 15.8556 122.196Z" fill="#393939"/>
<path d="M29.4512 90.9486C30.9416 89.6386 32.5508 88.5244 34.2606 87.5351C36.0052 86.6207 37.801 85.4497 39.8832 85.6692C39.9006 85.6718 39.9168 85.6793 39.9299 85.691C39.943 85.7026 39.9525 85.7177 39.9572 85.7346C39.9619 85.7515 39.9616 85.7694 39.9564 85.7861C39.9512 85.8028 39.9412 85.8177 39.9277 85.8289C38.3703 87.0687 36.7678 87.8368 35.2207 89.0224C34.6514 89.4369 33.52 90.2927 32.9653 90.7291L30.7386 92.4841C29.7133 93.257 28.5119 91.8245 29.4506 90.948L29.4512 90.9486Z" fill="#393939"/>
<path d="M14.6766 81.6212C14.4672 81.621 14.2631 81.5552 14.0929 81.4331C13.9228 81.311 13.7951 81.1387 13.7279 80.9403C13.6606 80.742 13.6572 80.5276 13.718 80.3272C13.7789 80.1268 13.9009 79.9505 14.0671 79.8229C14.6339 79.3877 28.0924 69.1258 40.6146 65.7104C40.8712 65.6404 41.1451 65.6752 41.376 65.8071C41.6069 65.939 41.7759 66.1573 41.8459 66.4138C41.9159 66.6704 41.8812 66.9443 41.7492 67.1752C41.6173 67.4061 41.3991 67.5752 41.1425 67.6452C28.997 70.9575 15.4239 81.3097 15.288 81.4139C15.1128 81.5488 14.8977 81.6217 14.6766 81.6212Z" fill="#393939"/>
<path d="M24.8934 65.7505C26.165 66.1675 27.2762 66.8709 28.2996 67.7145C28.6398 67.9913 28.9415 68.3491 29.0524 68.9263C29.0582 68.9565 29.0517 68.9877 29.0344 69.013C29.0172 69.0384 28.9905 69.0559 28.9604 69.0617C28.5002 69.1483 28.0247 69.0983 27.5925 68.9178C26.4953 68.5106 25.2232 68.1034 24.1693 67.6176C23.0538 67.069 23.7096 65.4012 24.8934 65.7505Z" fill="#393939"/>
<path d="M73.5954 118.453C73.5403 118.453 73.4852 118.449 73.4308 118.44L70.0027 117.873C69.8722 117.852 69.7472 117.805 69.6347 117.736C69.5222 117.667 69.4246 117.576 69.3474 117.469C69.2701 117.362 69.2149 117.24 69.1847 117.112C69.1545 116.983 69.1501 116.85 69.1716 116.719C69.1931 116.589 69.2402 116.464 69.3101 116.352C69.38 116.24 69.4714 116.143 69.579 116.066C69.6866 115.989 69.8083 115.935 69.937 115.905C70.0658 115.876 70.1992 115.872 70.3294 115.894L73.7576 116.461C74.0058 116.502 74.2296 116.635 74.3845 116.833C74.5393 117.032 74.614 117.281 74.5935 117.532C74.5731 117.782 74.4592 118.016 74.2743 118.187C74.0894 118.358 73.8471 118.453 73.5954 118.453Z" fill="#393939"/>
<path d="M77.0981 112.595C77.0202 112.595 76.9424 112.586 76.8665 112.568L71.3585 111.265C71.2271 111.238 71.1024 111.185 70.9919 111.109C70.8814 111.033 70.7873 110.935 70.7151 110.822C70.643 110.709 70.5943 110.583 70.5719 110.45C70.5495 110.318 70.5539 110.182 70.5849 110.052C70.6158 109.921 70.6726 109.798 70.752 109.69C70.8313 109.582 70.9316 109.491 71.0468 109.422C71.162 109.353 71.2899 109.308 71.4228 109.29C71.5557 109.271 71.691 109.28 71.8206 109.315L77.328 110.617C77.5672 110.674 77.7773 110.816 77.9185 111.017C78.0597 111.219 78.122 111.465 78.0936 111.709C78.0653 111.953 77.9482 112.178 77.7647 112.342C77.5812 112.505 77.344 112.596 77.0981 112.596V112.595Z" fill="#393939"/>
<path d="M76.0972 111.514C76.324 106.94 76.6062 101.767 76.5239 97.2118C76.4812 95.6214 76.4629 94.0421 76.6147 92.3999C76.6166 92.381 76.6246 92.3633 76.6376 92.3494C76.6505 92.3356 76.6676 92.3263 76.6863 92.3231C76.705 92.3199 76.7242 92.323 76.741 92.3318C76.7578 92.3406 76.7713 92.3547 76.7793 92.3719C77.4431 93.8958 77.7381 95.5123 77.9143 97.1216C78.1331 99.1215 78.2532 101.168 78.3136 103.179C78.3745 106.011 78.3386 108.837 78.0953 111.666C77.9448 112.965 76.0515 112.827 76.096 111.514H76.0972Z" fill="#393939"/>
<path d="M36.485 160.183C36.2269 160.183 35.9788 160.083 35.7924 159.905C35.606 159.726 35.4955 159.483 35.4841 159.225C35.4841 159.197 35.3555 156.434 34.805 153.58C34.7716 153.407 34.7845 153.228 34.8425 153.061C34.9005 152.894 35.0016 152.745 35.1354 152.63C35.2671 152.517 48.3019 141.135 47.9532 127.516C47.9498 127.384 47.9724 127.253 48.0196 127.131C48.0669 127.008 48.1379 126.895 48.2285 126.8C48.3192 126.704 48.4278 126.628 48.5481 126.574C48.6684 126.52 48.7981 126.491 48.9298 126.488C49.0614 126.484 49.1924 126.507 49.3153 126.554C49.4383 126.601 49.5507 126.672 49.6462 126.763C49.7417 126.854 49.8184 126.962 49.8719 127.083C49.9254 127.203 49.9547 127.333 49.9581 127.464C50.3013 140.753 39.2701 151.577 36.8775 153.766C37.1857 155.543 37.3892 157.338 37.4871 159.139C37.4985 159.405 37.4041 159.664 37.2245 159.86C37.045 160.056 36.795 160.173 36.5295 160.185L36.485 160.183Z" fill="#393939"/>
<path d="M36.6475 153.905C35.3674 155.842 32.7292 156.201 30.6202 155.898C29.932 155.792 29.2907 155.574 28.7543 155.087C28.7349 155.069 28.7234 155.045 28.7223 155.018C28.7211 154.992 28.7304 154.966 28.7482 154.947C29.3767 154.621 30.01 154.55 30.6671 154.503C31.6759 154.394 32.6311 154.226 33.5418 153.82C34.0294 153.599 34.5104 153.303 34.8712 152.924L34.9157 152.877C34.9157 152.877 34.9499 152.835 34.9261 152.877C35.6314 151.76 37.2979 152.755 36.6475 153.905V153.905Z" fill="#393939"/>
<path d="M50.2348 153.516C48.4421 152.913 44.9261 150.662 44.9182 148.565C44.9182 148.548 44.9222 148.532 44.9298 148.518C44.9375 148.503 44.9486 148.491 44.9622 148.481C44.9757 148.472 44.9914 148.466 45.0077 148.464C45.0241 148.462 45.0406 148.464 45.056 148.47C46.2787 148.904 46.9255 149.651 48.0032 150.202C48.8493 150.679 50.0824 151.247 50.9754 151.657C52.1043 152.208 51.4277 153.889 50.2348 153.516Z" fill="#393939"/>
<path d="M21.7416 118.93H21.7178C21.452 118.924 21.1996 118.812 21.0159 118.62C20.8323 118.428 20.7324 118.17 20.7383 117.904L20.8242 114.17C20.826 114.038 20.854 113.907 20.9066 113.785C20.9592 113.664 21.0354 113.554 21.1308 113.462C21.2261 113.37 21.3388 113.298 21.4622 113.25C21.5856 113.202 21.7173 113.178 21.8497 113.181C21.9822 113.184 22.1127 113.214 22.2338 113.267C22.3548 113.321 22.4641 113.398 22.5551 113.494C22.6462 113.591 22.7173 113.704 22.7643 113.828C22.8113 113.952 22.8333 114.084 22.8291 114.216L22.7437 117.95C22.7377 118.212 22.6295 118.461 22.4422 118.644C22.2549 118.827 22.0035 118.93 21.7416 118.93Z" fill="#393939"/>
<path d="M40.5323 122.868C46.9583 125.808 54.1054 128.084 61.2111 126.848C63.5384 126.466 65.7779 125.634 67.9473 124.556C68.0215 124.515 68.108 124.504 68.1898 124.525C68.2716 124.546 68.3426 124.597 68.3887 124.667C68.4347 124.738 68.4526 124.823 68.4385 124.907C68.4245 124.99 68.3797 125.065 68.313 125.116C61.2324 130.826 50.7931 129.901 43.2601 125.543C42.1751 124.915 41.1267 124.245 40.1575 123.425C39.8618 123.174 40.1788 122.683 40.5311 122.87L40.5323 122.868Z" fill="#393939"/>
<path d="M22.6717 126.621C22.6157 126.621 22.5599 126.617 22.5047 126.607C22.1243 126.546 13.1388 125.01 9.39122 121.971C9.28618 121.889 9.19854 121.787 9.13343 121.67C9.06832 121.554 9.02704 121.426 9.01201 121.294C8.99698 121.161 9.0085 121.027 9.04589 120.899C9.08329 120.771 9.1458 120.652 9.22979 120.549C9.31378 120.445 9.41756 120.359 9.53505 120.297C9.65254 120.234 9.7814 120.195 9.91408 120.182C10.0468 120.17 10.1806 120.184 10.3078 120.224C10.435 120.263 10.553 120.328 10.6548 120.414C13.9916 123.12 22.7485 124.615 22.8363 124.63C23.084 124.672 23.307 124.805 23.4611 125.003C23.6152 125.202 23.6892 125.451 23.6685 125.701C23.6479 125.951 23.5339 126.185 23.3493 126.355C23.1648 126.526 22.9229 126.621 22.6717 126.621Z" fill="#393939"/>
<path d="M17.9952 115.576C17.4954 115.246 17.0199 114.887 16.5469 114.517C16.4156 114.427 16.309 114.306 16.2371 114.165C16.1653 114.023 16.1305 113.866 16.1361 113.707C16.247 112.101 16.7737 110.466 18.0147 109.373C18.4652 109.032 19.0473 108.84 19.6063 108.961C19.6225 108.965 19.6375 108.973 19.6499 108.984C19.6623 108.995 19.6718 109.009 19.6775 109.024C19.6832 109.04 19.6849 109.057 19.6825 109.073C19.68 109.09 19.6736 109.105 19.6636 109.118C19.1241 109.957 18.7365 110.432 18.4548 111.309C18.222 112.053 18.1324 112.933 18.1385 113.708L17.7276 112.9C18.2238 113.234 18.7115 113.581 19.1778 113.956C20.1482 114.771 19.062 116.248 17.9952 115.576Z" fill="#393939"/>
<path d="M100.381 100.624C101.303 103.554 100.289 106.936 96.7429 106.881C93.5074 107.015 91.7726 104.039 93.4367 101.291C93.4471 101.276 93.462 101.265 93.4791 101.258C93.4963 101.252 93.5149 101.251 93.5326 101.256C93.5502 101.261 93.566 101.271 93.5777 101.285C93.5894 101.299 93.5966 101.316 93.5982 101.334C93.6787 101.923 93.7488 102.478 93.8652 102.99C94.1011 104.197 94.6802 105.09 95.959 105.128C96.5881 105.155 97.3299 105.093 97.8663 104.748C98.9465 103.996 98.6947 102.31 98.4497 101.156C98.1675 99.8982 99.9791 99.4014 100.381 100.624Z" fill="#393939"/>
<path d="M96.2425 107.095C95.0544 108.723 93.9651 110.989 94.9843 112.947C95.6548 114.227 96.7624 114.871 97.8151 116.003C97.8273 116.016 97.8354 116.033 97.8384 116.05C97.8414 116.067 97.8393 116.085 97.8322 116.102C97.8252 116.118 97.8135 116.132 97.7986 116.142C97.7838 116.151 97.7664 116.156 97.7487 116.156C95.4994 116.084 93.4769 114.383 92.8801 112.163C92.3315 109.886 93.2715 107.538 94.7155 105.793C95.6 104.808 97.0733 106.063 96.2425 107.093V107.095Z" fill="#393939"/>
<path d="M77.2932 108.882C77.1085 108.882 76.9274 108.831 76.7699 108.734C76.6124 108.638 76.4847 108.5 76.4007 108.335C76.3167 108.171 76.2798 107.986 76.294 107.802C76.3082 107.618 76.373 107.441 76.4812 107.292C80.0264 102.389 83.9788 101.088 84.1446 101.035C84.3955 100.963 84.6647 100.991 84.895 101.114C85.1253 101.237 85.2986 101.445 85.378 101.694C85.4574 101.942 85.4367 102.212 85.3202 102.446C85.2037 102.68 85.0006 102.859 84.7542 102.945C84.6932 102.965 81.2261 104.15 78.1045 108.467C78.0118 108.595 77.8899 108.7 77.7488 108.772C77.6078 108.844 77.4516 108.882 77.2932 108.882Z" fill="#393939"/>
<path d="M106.242 75.2882C100.877 80.2434 94.3195 83.7244 87.2089 85.3923C85.7079 85.7454 84.1892 86.0186 82.6592 86.2109C81.9076 86.3073 81.1444 86.3804 80.3745 86.4408C73.8491 86.9163 67.3003 85.9163 61.2142 83.5149C60.4421 83.2076 59.6804 82.8811 58.929 82.5353C45.1913 76.1788 35.1324 62.8867 33.7542 46.8925C31.7231 23.3311 49.3046 2.83895 73.0172 1.1145C77.4715 0.788395 81.9495 1.15108 86.2934 2.18977C86.7902 2.30375 87.2857 2.43359 87.7783 2.57257C89.0974 2.93587 90.391 3.3587 91.6593 3.84107C97.4851 6.06614 102.773 9.50116 107.174 13.9195C107.868 14.6157 108.538 15.3353 109.185 16.0786C110.157 17.1959 111.071 18.3623 111.924 19.5732C116.326 25.7918 118.988 33.0726 119.637 40.664C120.807 54.2157 115.485 66.7532 106.242 75.2882Z" fill="white"/>
<path d="M77.2129 86.6511C75.9694 86.6511 74.7289 86.5981 73.5 86.4926C69.2743 86.1357 65.1234 85.1632 61.179 83.6057C60.4116 83.301 59.6411 82.97 58.8895 82.6244C44.6569 76.0411 34.9898 62.3516 33.661 46.9041C32.6802 35.5291 36.2041 24.4997 43.5828 15.8482C51.0195 7.12665 61.4722 1.86249 73.013 1.02434C77.477 0.695797 81.965 1.05808 86.3185 2.09839C86.7939 2.2075 87.2816 2.33307 87.807 2.4818C89.1206 2.84388 90.4281 3.27423 91.696 3.75274C97.5336 5.98172 102.832 9.42296 107.243 13.8495C107.946 14.556 108.625 15.2844 109.259 16.014C110.232 17.1338 111.148 18.3027 112.002 19.516C116.406 25.7532 119.074 33.0493 119.731 40.6567C120.863 53.7854 115.97 66.4338 106.305 75.359C100.923 80.3199 94.3512 83.8079 87.2261 85.4856C85.7219 85.8396 84.1999 86.1135 82.6666 86.3061C81.9729 86.3951 81.2238 86.4707 80.3771 86.5365C79.328 86.6127 78.2698 86.6511 77.2129 86.6511ZM76.1973 1.09993C75.1408 1.09993 74.0842 1.13792 73.0276 1.21392C61.5386 2.0484 51.1334 7.28941 43.7297 15.9708C36.3845 24.5832 32.8796 35.5626 33.8548 46.8858C35.1776 62.2663 44.8019 75.8936 58.9718 82.45C59.7203 82.7944 60.4877 83.1205 61.2515 83.4253C67.3251 85.8175 73.8585 86.8147 80.3692 86.3433C81.2122 86.2774 81.9583 86.2025 82.6489 86.1135C84.1757 85.9219 85.6911 85.6492 87.1889 85.2967C94.281 83.626 100.822 80.1538 106.18 75.2158C115.8 66.3314 120.671 53.7403 119.544 40.6714C118.889 33.0984 116.233 25.8355 111.847 19.6269C110.997 18.4187 110.085 17.2548 109.115 16.1396C108.485 15.4136 107.809 14.6889 107.108 13.9854C102.717 9.579 97.4418 6.15337 91.6302 3.93438C90.369 3.45527 89.0664 3.02919 87.7576 2.66894C87.2346 2.52081 86.7506 2.39586 86.277 2.28675C82.9755 1.49587 79.5922 1.0975 76.1973 1.09993Z" fill="#393939"/>
<g opacity="0.3">
<path d="M33.7572 46.893C35.1312 62.8885 45.192 76.1824 58.9321 82.5364C59.6831 82.8827 60.4442 83.209 61.2155 83.5154C67.3028 85.9139 73.8513 86.9138 80.377 86.4413C81.1463 86.3803 81.9088 86.3066 82.661 86.2115C84.191 86.018 85.7097 85.7441 87.2108 85.391C92.6697 84.1094 97.8195 81.7557 102.361 78.4668C106.903 75.1779 110.745 71.0193 113.666 66.2325C108.437 70.8411 102.15 74.0855 95.3637 75.6771C93.8629 76.0321 92.3441 76.3062 90.8139 76.4982C90.0629 76.5945 89.301 76.6664 88.5293 76.7273C82.0042 77.2047 75.4554 76.2046 69.3702 73.8015C68.5981 73.493 67.8363 73.1659 67.0849 72.8201C53.3467 66.466 43.2877 53.1739 41.9101 37.1766C41.1049 27.8449 43.3798 18.9959 47.8899 11.605C38.193 20.148 32.5576 32.9865 33.7572 46.893Z" fill="#393939"/>
</g>
<path d="M77.2117 87.2955C75.9499 87.2955 74.6912 87.2419 73.4446 87.1346C69.1568 86.7723 64.945 85.7854 60.9426 84.2051C60.1629 83.8948 59.3821 83.5602 58.6201 83.2097C44.1772 76.5271 34.3682 62.6364 33.0186 46.9579C32.0232 35.4098 35.6007 24.2122 43.0922 15.4284C50.6422 6.57514 61.2516 1.23052 72.9655 0.380179C77.496 0.048014 82.0505 0.416871 86.4685 1.47373C86.9482 1.58406 87.4438 1.71268 87.9814 1.86385C89.3103 2.22959 90.6391 2.6642 91.9247 3.15307C97.8478 5.41441 103.224 8.90595 107.699 13.3973C108.413 14.1136 109.101 14.853 109.745 15.5918C115.838 22.5973 119.559 31.3508 120.375 40.5996C121.524 53.9282 116.556 66.7692 106.744 75.8322C101.281 80.8684 94.6105 84.4095 87.378 86.113C85.8514 86.4722 84.3068 86.7499 82.7508 86.9451C82.0486 87.0353 81.2878 87.1121 80.4345 87.1791C79.361 87.2541 78.2851 87.2955 77.2117 87.2955ZM76.1968 1.74437C75.1581 1.74437 74.1168 1.78176 73.0728 1.85654C61.7575 2.67822 51.5102 7.83937 44.2193 16.3891C36.9868 24.8693 33.5331 35.6804 34.4943 46.8305C35.7976 61.9817 45.2799 75.4061 59.2425 81.8656C59.9794 82.2045 60.7365 82.5288 61.4899 82.8293C67.4739 85.186 73.9109 86.1678 80.3253 85.7022C81.1537 85.6375 81.8895 85.5638 82.5697 85.4766C84.0743 85.2874 85.5677 85.0188 87.0439 84.672C94.0275 83.0263 100.469 79.6071 105.745 74.7447C115.218 65.9963 120.014 53.5978 118.904 40.7312C118.258 33.2706 115.641 26.1158 111.319 20.0001C110.48 18.8098 109.582 17.663 108.627 16.564C108.005 15.849 107.34 15.1352 106.649 14.4421C102.323 10.0996 97.1251 6.72356 91.3986 4.53677C90.1569 4.06436 88.8732 3.64498 87.584 3.29022C87.0671 3.14331 86.5928 3.0214 86.1302 2.91473C82.8766 2.13524 79.5424 1.74241 76.1968 1.74437Z" fill="#393939"/>
<path d="M77.2116 87.5588C75.9419 87.5588 74.6759 87.5052 73.422 87.3973C69.1094 87.0321 64.8731 86.0392 60.8474 84.4501C60.0629 84.1373 59.2778 83.8009 58.5116 83.4485C43.9827 76.7263 34.1157 62.7528 32.7588 46.981C31.7573 35.3622 35.3568 24.0963 42.894 15.2589C50.4903 6.35137 61.1637 0.974441 72.9484 0.118618C77.5057 -0.215052 82.0871 0.156269 86.5312 1.21948C87.0134 1.32981 87.515 1.45904 88.0551 1.61204C89.39 1.97778 90.7262 2.41666 92.0173 2.90797C97.9751 5.18269 103.383 8.69479 107.884 13.2126C108.602 13.9331 109.295 14.6755 109.942 15.4222C110.937 16.5653 111.873 17.7586 112.746 18.9973C117.243 25.3648 119.967 32.813 120.639 40.5794C121.797 53.9897 116.798 66.9087 106.923 76.0253C101.427 81.092 94.7158 84.6547 87.4394 86.3689C85.9037 86.7299 84.35 87.0094 82.7848 87.2065C82.0784 87.2967 81.3146 87.3735 80.4533 87.4412C79.3737 87.5186 78.2912 87.5588 77.2116 87.5588ZM76.1967 2.00642C75.1633 2.00642 74.1283 2.04361 73.0916 2.11797C61.8471 2.93479 51.6637 8.06362 44.4185 16.5591C37.2324 24.9856 33.8006 35.7285 34.7558 46.8079C36.0511 61.864 45.4749 75.2073 59.3503 81.6272C60.0818 81.9643 60.8358 82.2867 61.585 82.5848C67.5313 84.9268 73.9279 85.9028 80.3021 85.4406C81.125 85.3796 81.8559 85.3028 82.5319 85.2163C84.0283 85.0284 85.5136 84.7612 86.9817 84.4159C93.9213 82.781 100.322 79.3834 105.564 74.5514C114.976 65.8585 119.742 53.5386 118.639 40.7507C117.998 33.338 115.398 26.229 111.105 20.1518C110.272 18.9691 109.379 17.8298 108.429 16.7383C107.812 16.0275 107.149 15.3174 106.464 14.6286C102.164 10.3114 96.9974 6.95497 91.3053 4.78053C90.0709 4.31178 88.7957 3.89484 87.5144 3.54191C87 3.39622 86.53 3.27492 86.071 3.16947C82.8368 2.39436 79.5225 2.00398 76.1967 2.00642Z" fill="#393939"/>
<path d="M97.3026 81.6127C67.7999 90.0343 39.1153 67.1551 46.9243 37.9846C52.2373 18.1386 75.9845 8.22222 94.929 14.7463C108.717 19.4942 120.16 30.0902 118.852 53.2523C118.852 53.2523 116.676 63.3972 111.825 68.996C106.973 74.5948 101.292 79.2165 101.292 79.2165L97.3026 81.6127Z" fill="#393939"/>
<path d="M46.9257 37.9851C39.116 67.1544 67.8019 90.0342 97.3028 81.6137L98.1111 81.1261C70.1737 76.8256 49.0829 52.2878 56.4251 22.6406C51.9588 26.6814 48.566 31.8608 46.9257 37.9851Z" fill="#393939"/>
<path d="M77.211 87.5587C75.9419 87.5587 74.6758 87.5051 73.4219 87.3972C73.37 87.3926 73.3184 87.384 73.2677 87.3716C61.3935 84.4457 51.2553 77.131 45.4529 67.3116C39.9949 58.0755 38.652 47.4283 41.5712 36.5215C44.2533 26.5046 51.1864 18.0847 61.0972 12.8138C72.1065 6.95841 85.4626 5.79842 96.8236 9.71118C103.137 11.8855 108.448 14.9577 112.611 18.8412C112.661 18.8881 112.706 18.94 112.746 18.996C117.243 25.3639 119.968 32.8128 120.64 40.5799C121.798 53.9902 116.799 66.9093 106.925 76.0259C101.428 81.0925 94.717 84.6552 87.4406 86.3695C85.9049 86.7304 84.3512 87.0099 82.786 87.207C82.0795 87.2972 81.3157 87.374 80.4544 87.4417C79.3737 87.5185 78.2911 87.5587 77.211 87.5587ZM73.6719 85.4058C75.8776 85.59 78.0944 85.602 80.302 85.4417C81.1249 85.3808 81.8558 85.304 82.5318 85.2174C84.0282 85.0295 85.5135 84.7623 86.9816 84.4171C93.9213 82.7823 100.322 79.3846 105.564 74.5525C114.976 65.8584 119.742 53.5386 118.639 40.7506C118 33.3727 115.422 26.295 111.164 20.2358C107.223 16.5785 102.179 13.6752 96.1689 11.6063C85.3236 7.87153 72.5637 8.9852 62.0366 14.5834C52.6231 19.5903 46.0417 27.567 43.5059 37.0384C40.73 47.4131 41.9997 57.5281 47.1773 66.2899C52.6969 75.6278 62.3505 82.5914 73.6719 85.4045V85.4058Z" fill="#393939"/>
<path d="M30.0311 27.3416C26.1299 34.7898 27.3045 43.3883 32.6644 46.5464C38.0242 49.7045 45.5334 46.2258 49.4376 38.7775C49.4633 38.7318 49.4876 38.6812 49.5108 38.6337C53.3266 31.2196 52.127 22.7083 46.8044 19.5733C42.6642 17.1351 37.241 18.6541 33.1874 22.9052C31.9349 24.2307 30.8726 25.7238 30.0311 27.3416Z" fill="white"/>
<g opacity="0.3">
<path d="M30.0311 27.3417C26.1299 34.7899 27.3045 43.3883 32.6644 46.5465C38.0242 49.7046 45.5334 46.2258 49.4376 38.7776C49.4632 38.7319 49.4876 38.6813 49.5108 38.6338C48.5209 39.0507 47.2091 39.2628 46.0973 38.2772C44.1546 36.5497 42.7599 29.4587 42.7599 29.4587C42.7599 29.4587 38.6259 26.5895 33.1849 22.9053C31.9333 24.2309 30.8719 25.724 30.0311 27.3417Z" fill="#393939"/>
</g>
<path d="M36.9965 48.7184C35.2943 48.7266 33.6216 48.2744 32.1554 47.4097C26.3512 43.9894 24.9992 34.7778 29.1417 26.8754C31.5343 22.3123 35.266 19.0218 39.3823 17.8484C42.2351 17.0347 44.9781 17.3321 47.3133 18.7085C53.1176 22.1288 54.4696 31.3405 50.3276 39.2428C47.9351 43.806 44.2027 47.0964 40.087 48.2698C39.0827 48.562 38.0425 48.713 36.9965 48.7184ZM42.4618 19.4101C41.6053 19.4142 40.7536 19.5373 39.9309 19.7759C36.3955 20.7847 33.0246 23.7862 30.918 27.8062C27.2643 34.7765 28.2755 42.7953 33.1734 45.681C35.0246 46.7721 37.2257 47.0001 39.5372 46.3405C43.0726 45.3323 46.4429 42.3308 48.5501 38.3108C52.2038 31.3405 51.192 23.3217 46.2948 20.436C45.1331 19.7544 43.8087 19.3999 42.4618 19.4101Z" fill="#393939"/>
<path d="M43.7679 35.6846C46.6008 29.428 45.44 22.7907 41.1753 20.8598C36.9107 18.9288 31.157 22.4354 28.3241 28.692C25.4913 34.9486 26.652 41.5859 30.9167 43.5168C35.1814 45.4478 40.9351 41.9412 43.7679 35.6846Z" fill="white"/>
<g opacity="0.3">
<path d="M30.3277 43.209C26.2967 40.7915 25.5927 33.9011 28.7526 27.814C29.0864 27.1687 29.4596 26.5446 29.87 25.9451C28.7862 30.7094 29.9431 35.2415 33.0781 37.1177C36.6184 39.2359 41.5235 37.2677 44.8176 32.7088C44.4747 34.0463 43.98 35.3403 43.3431 36.5654C40.1831 42.6519 34.3563 45.6247 30.3277 43.209Z" fill="#393939"/>
</g>
<path d="M33.4171 45.0534C32.1484 45.0615 30.902 44.7207 29.8139 44.0684C25.3453 41.3863 24.4712 33.8887 27.8634 27.3524C29.8749 23.4744 33.0605 20.5985 36.3789 19.6592C38.5209 19.0496 40.5623 19.2788 42.2843 20.3114C46.753 22.9934 47.6271 30.491 44.2349 37.0274C42.2234 40.9054 39.0378 43.7813 35.7194 44.7206C34.9709 44.9371 34.1962 45.0491 33.4171 45.0534ZM29.6445 28.2759C26.7302 33.8906 27.2672 40.2032 30.8453 42.3482C32.0809 43.0894 33.5774 43.243 35.1732 42.7914C37.9699 41.9989 40.6915 39.4997 42.455 36.1033C45.3693 30.4892 44.8323 24.1766 41.2542 22.031C40.0186 21.2897 38.5215 21.1367 36.9263 21.5884C34.1296 22.3808 31.4079 24.88 29.6445 28.2759Z" fill="#393939"/>
<g opacity="0.5">
<path d="M81.4084 20.4597C81.4084 20.4597 98.7083 25.2752 104.89 38.3881C104.896 38.4021 104.903 38.4155 104.909 38.4295C106.208 41.1902 106.356 46.4702 106.078 49.4863C105.713 53.4753 104.869 56.1635 104.035 58.5005C101.495 65.6062 98.9594 68.4479 98.9594 68.4479C104.392 66.1773 108.221 62.7516 110.396 56.8541C110.609 56.2726 110.806 55.6642 110.989 55.0333C111.032 54.8883 111.071 54.7432 111.108 54.5969C111.112 54.5969 111.112 54.5926 111.108 54.5877C111.462 52.933 111.715 51.2583 111.866 49.5729C112.403 43.5992 111.81 35.3397 106.06 29.5184C95.31 18.6383 81.081 19.5027 81.4084 20.4597Z" fill="white"/>
</g>
<g opacity="0.5">
<path d="M68.8877 38.0003C70.8592 35.221 70.4959 31.5765 68.0763 29.8602C65.6567 28.1438 62.0969 29.0055 60.1254 31.7848C58.1539 34.5642 58.5172 38.2086 60.9368 39.925C63.3564 41.6414 66.9162 40.7797 68.8877 38.0003Z" fill="white"/>
</g>
<g opacity="0.5">
<path d="M57.295 44.9577C58.2125 43.8903 58.2035 42.378 57.275 41.5799C56.3465 40.7818 54.85 41.0001 53.9325 42.0675C53.015 43.1349 53.024 44.6472 53.9525 45.4453C54.881 46.2434 56.3775 46.0251 57.295 44.9577Z" fill="white"/>
</g>
<path d="M144.508 96.2866L154.722 89.4729C155.013 89.28 155.345 89.159 155.691 89.1199C156.037 89.0808 156.388 89.1248 156.714 89.2481C157.04 89.3714 157.331 89.5706 157.565 89.8291C157.799 90.0876 157.968 90.398 158.057 90.7347L160.983 101.768C161.058 102.049 161.189 102.312 161.367 102.542C161.545 102.773 161.766 102.965 162.02 103.109L172.708 109.194C174.18 110.032 174.185 112.153 172.717 112.998L162.476 118.893C162.195 119.055 161.954 119.277 161.77 119.542C161.585 119.808 161.461 120.112 161.408 120.431L159.663 130.852C159.6 131.222 159.443 131.57 159.207 131.862C158.971 132.154 158.664 132.381 158.316 132.521C157.967 132.66 157.588 132.708 157.216 132.66C156.843 132.611 156.49 132.468 156.188 132.243L144.256 123.3C143.861 123.004 143.377 122.85 142.884 122.863L131.518 123.165C129.823 123.21 128.721 121.397 129.543 119.911L135.092 109.894C135.243 109.621 135.334 109.319 135.359 109.008C135.384 108.697 135.342 108.384 135.237 108.09L131.136 96.684C130.526 94.984 132.117 93.3162 133.843 93.8477L142.646 96.5578C142.957 96.6535 143.286 96.6787 143.608 96.6318C143.93 96.5849 144.237 96.467 144.508 96.2866Z" fill="#E3B700"/>
<path d="M146.422 111.401C146.422 111.401 148.222 112.836 151.537 113.374C151.537 113.374 149.56 115.571 147.857 115.347C146.153 115.123 146.422 111.401 146.422 111.401Z" fill="#393939"/>
<g opacity="0.5">
<path d="M135.314 112.185C135.465 111.912 135.556 111.61 135.581 111.299C135.606 110.988 135.565 110.675 135.459 110.381L135.195 109.644C135.165 109.729 135.13 109.812 135.09 109.893L129.539 119.91C129.331 120.282 129.237 120.707 129.268 121.133C129.3 121.558 129.456 121.965 129.717 122.302C129.732 122.269 129.745 122.235 129.763 122.202L135.314 112.185Z" fill="white"/>
</g>
<g opacity="0.5">
<path d="M134.068 96.1396L142.871 98.8503C143.182 98.946 143.51 98.9712 143.832 98.9242C144.154 98.8772 144.461 98.7591 144.732 98.5784L154.947 91.7648C155.237 91.5719 155.569 91.4509 155.915 91.4118C156.262 91.3727 156.612 91.4166 156.938 91.5399C157.264 91.6632 157.556 91.8624 157.789 92.1209C158.023 92.3794 158.192 92.6899 158.282 93.0265L161.208 104.06C161.283 104.341 161.413 104.604 161.591 104.834C161.769 105.064 161.991 105.257 162.244 105.401L172.932 111.486C173.188 111.631 173.412 111.826 173.591 112.059C173.836 111.559 173.881 110.984 173.717 110.452C173.552 109.92 173.192 109.47 172.708 109.195L162.02 103.109C161.767 102.966 161.545 102.773 161.367 102.543C161.189 102.313 161.058 102.049 160.983 101.768L158.057 90.7352C157.968 90.3985 157.799 90.0881 157.565 89.8296C157.332 89.571 157.04 89.3719 156.714 89.2486C156.388 89.1252 156.037 89.0813 155.691 89.1204C155.345 89.1595 155.013 89.2805 154.723 89.4734L144.508 96.2871C144.237 96.4675 143.93 96.5854 143.608 96.6323C143.286 96.6792 142.958 96.654 142.647 96.5583L133.843 93.8482C132.117 93.3167 130.525 94.9844 131.136 96.6845L131.395 97.4044C131.8 96.4254 132.903 95.7811 134.068 96.1396Z" fill="white"/>
</g>
<g opacity="0.3">
<path d="M155.009 89.4363C155.312 89.2336 155.665 89.1198 156.029 89.1077C155.566 89.0866 155.108 89.2148 154.723 89.4735L145.174 95.8421C145.397 95.7914 145.609 95.7023 145.801 95.5788L155.009 89.4363Z" fill="#393939"/>
</g>
<g opacity="0.3">
<path d="M172.705 109.193L172.217 108.915C172.222 109.266 172.133 109.611 171.959 109.915C171.785 110.218 171.533 110.47 171.228 110.643L161.996 115.958C161.744 116.104 161.526 116.304 161.36 116.543C161.193 116.783 161.082 117.057 161.034 117.344L159.461 126.738C159.405 127.073 159.263 127.387 159.051 127.651C158.838 127.915 158.561 128.12 158.246 128.246C157.931 128.372 157.59 128.415 157.253 128.37C156.917 128.326 156.598 128.196 156.327 127.993L145.57 119.931C145.214 119.664 144.778 119.525 144.333 119.537L134.087 119.808C132.559 119.849 131.565 118.212 132.307 116.875L137.31 107.846C137.447 107.599 137.529 107.327 137.552 107.047C137.574 106.766 137.537 106.484 137.442 106.219L133.746 95.9372C133.622 95.5999 133.594 95.235 133.665 94.8827C133.735 94.5305 133.902 94.2046 134.146 93.9409L133.841 93.8476C132.115 93.3161 130.522 94.9839 131.133 96.6839L135.232 108.09C135.338 108.384 135.38 108.696 135.355 109.008C135.33 109.319 135.239 109.621 135.087 109.894L129.537 119.911C128.714 121.394 129.817 123.209 131.512 123.164L142.877 122.863C143.371 122.85 143.854 123.004 144.25 123.3L156.182 132.243C156.484 132.467 156.837 132.61 157.21 132.659C157.582 132.708 157.961 132.66 158.31 132.52C158.658 132.38 158.965 132.154 159.201 131.861C159.437 131.569 159.594 131.221 159.657 130.851L161.402 120.431C161.455 120.111 161.579 119.808 161.764 119.542C161.948 119.276 162.189 119.054 162.47 118.893L172.711 112.998C174.182 112.152 174.177 110.031 172.705 109.193Z" fill="#393939"/>
</g>
<path d="M157.492 133.738C156.792 133.737 156.111 133.508 155.552 133.086L143.62 124.143C143.415 123.989 143.164 123.909 142.907 123.917L131.542 124.218C130.97 124.233 130.404 124.097 129.902 123.823C129.399 123.549 128.978 123.147 128.681 122.657C128.384 122.168 128.222 121.609 128.21 121.037C128.199 120.465 128.339 119.9 128.616 119.399L134.168 109.381C134.246 109.239 134.293 109.083 134.306 108.921C134.319 108.76 134.298 108.597 134.243 108.445L130.144 97.0387C129.94 96.4714 129.898 95.8584 130.023 95.2685C130.148 94.6787 130.434 94.1352 130.85 93.6991C131.267 93.263 131.796 92.9515 132.38 92.7994C132.963 92.6474 133.577 92.6608 134.154 92.8382L142.955 95.5508C143.116 95.6007 143.287 95.614 143.454 95.5896C143.621 95.5653 143.781 95.5039 143.921 95.41L154.137 88.5951C154.567 88.3088 155.058 88.1291 155.571 88.0709C156.084 88.0127 156.604 88.0776 157.086 88.2602C157.569 88.4429 158.001 88.7381 158.347 89.1212C158.693 89.5044 158.942 89.9645 159.075 90.4634L162.001 101.496C162.04 101.642 162.107 101.779 162.199 101.899C162.291 102.018 162.406 102.119 162.537 102.194L173.226 108.279C173.723 108.562 174.136 108.971 174.424 109.465C174.712 109.959 174.864 110.52 174.865 111.092C174.867 111.664 174.717 112.226 174.432 112.721C174.146 113.217 173.735 113.628 173.239 113.913L162.999 119.808C162.853 119.892 162.727 120.007 162.632 120.145C162.536 120.283 162.472 120.44 162.445 120.606L160.699 131.03C160.609 131.58 160.378 132.098 160.029 132.532C159.679 132.966 159.223 133.302 158.704 133.507C158.319 133.661 157.907 133.739 157.492 133.738ZM142.936 121.808C143.639 121.808 144.323 122.036 144.887 122.456L156.819 131.4C156.975 131.517 157.159 131.591 157.352 131.617C157.546 131.642 157.743 131.618 157.924 131.545C158.105 131.472 158.265 131.354 158.387 131.202C158.51 131.05 158.591 130.869 158.623 130.677L160.368 120.253C160.447 119.78 160.629 119.331 160.903 118.937C161.177 118.543 161.534 118.215 161.95 117.976L172.191 112.081C172.364 111.981 172.509 111.837 172.609 111.663C172.709 111.489 172.761 111.292 172.761 111.092C172.76 110.892 172.707 110.695 172.606 110.522C172.505 110.348 172.36 110.205 172.186 110.106L161.498 104.021C161.124 103.807 160.796 103.521 160.533 103.18C160.271 102.838 160.078 102.448 159.967 102.032L157.041 91.0016C156.994 90.8267 156.907 90.6653 156.786 90.531C156.664 90.3966 156.513 90.2931 156.344 90.229C156.174 90.1649 155.992 90.1422 155.812 90.1626C155.633 90.183 155.46 90.246 155.31 90.3463L145.095 97.1606C144.694 97.4289 144.239 97.6042 143.762 97.6737C143.285 97.7432 142.799 97.7051 142.339 97.5623L133.535 94.8522C133.333 94.7908 133.118 94.7866 132.914 94.8403C132.71 94.8939 132.525 95.0032 132.38 95.1559C132.234 95.3086 132.134 95.4987 132.091 95.7051C132.047 95.9114 132.062 96.1258 132.133 96.3243L136.227 107.735C136.383 108.17 136.445 108.633 136.408 109.094C136.371 109.555 136.236 110.002 136.012 110.406L130.459 120.421C130.362 120.597 130.313 120.795 130.317 120.995C130.321 121.196 130.378 121.392 130.482 121.563C130.586 121.734 130.734 121.875 130.91 121.971C131.086 122.067 131.284 122.115 131.484 122.11L142.85 121.809L142.936 121.808Z" fill="#393939"/>
<path d="M157.833 108.847C158.322 107.107 157.607 105.383 156.236 104.997C154.864 104.611 153.355 105.71 152.866 107.45C152.376 109.19 153.091 110.914 154.463 111.3C155.835 111.685 157.343 110.587 157.833 108.847Z" fill="#393939"/>
<path d="M148.264 105.474C148.76 103.73 148.048 102 146.674 101.609C145.299 101.219 143.783 102.315 143.288 104.059C142.792 105.803 143.504 107.533 144.879 107.924C146.253 108.315 147.769 107.218 148.264 105.474Z" fill="#393939"/>
<path d="M156.572 107.131C156.835 106.676 156.77 106.146 156.427 105.948C156.083 105.75 155.592 105.958 155.329 106.414C155.066 106.87 155.131 107.4 155.474 107.598C155.817 107.796 156.308 107.587 156.572 107.131Z" fill="white"/>
<path d="M146.057 103.746C146.32 103.29 146.255 102.76 145.912 102.562C145.569 102.364 145.077 102.573 144.814 103.028C144.551 103.484 144.616 104.014 144.959 104.212C145.302 104.41 145.794 104.201 146.057 103.746Z" fill="white"/>
<path d="M146.308 113.318C146.308 113.318 148.441 112.723 150.27 114.203C150.27 114.203 148.967 115.879 147.619 115.234C146.271 114.589 146.308 113.318 146.308 113.318Z" fill="#DD4848"/>
<path d="M148.103 115.714C148.005 115.714 147.908 115.708 147.811 115.696C145.835 115.435 146.043 111.791 146.071 111.376C146.076 111.312 146.098 111.251 146.135 111.199C146.171 111.147 146.222 111.106 146.28 111.08C146.339 111.054 146.403 111.045 146.467 111.053C146.53 111.061 146.59 111.087 146.64 111.126C146.657 111.14 148.42 112.512 151.592 113.028C151.655 113.038 151.713 113.064 151.762 113.105C151.81 113.145 151.847 113.198 151.868 113.257C151.889 113.317 151.894 113.381 151.881 113.443C151.869 113.505 151.84 113.562 151.798 113.609C151.716 113.699 149.883 115.714 148.103 115.714ZM146.757 112.052C146.771 113.157 146.987 114.878 147.902 114.998C148.948 115.14 150.162 114.191 150.811 113.596C148.834 113.185 147.466 112.484 146.757 112.052Z" fill="#393939"/>
<path d="M133.443 85.2465C141.565 76.9871 144.161 66.3693 139.24 61.5308C134.32 56.6924 123.747 59.4655 115.625 67.7248C107.503 75.9842 104.908 86.602 109.828 91.4405C114.748 96.279 125.321 93.5058 133.443 85.2465Z" fill="#E3B700"/>
<path d="M139.24 61.5306C134.32 56.6919 123.747 59.4654 115.624 67.7249C107.502 75.9844 104.907 86.6024 109.827 91.4411C114.748 96.2797 125.32 93.5056 133.442 85.2461C141.565 76.9866 144.16 66.3656 139.24 61.5306ZM131.155 82.3775C124.988 88.6493 117.607 91.3929 114.67 88.5048C111.732 85.6167 114.352 78.1904 120.522 71.9187C126.691 65.6469 134.07 62.9033 137.007 65.7914C139.943 68.6795 137.323 76.1051 131.155 82.3775Z" fill="#E3B700"/>
<g opacity="0.5">
<path d="M116.478 69.9426C124.599 61.6831 135.172 58.9096 140.093 63.7483C140.62 64.27 141.069 64.8654 141.425 65.516C141.051 63.9616 140.331 62.6023 139.24 61.5282C134.319 56.6895 123.747 59.463 115.624 67.7226C108.383 75.0867 105.54 84.3221 108.492 89.6668C107.186 84.2185 110.161 76.3661 116.478 69.9426Z" fill="white"/>
</g>
<g opacity="0.3">
<path d="M120.52 69.9286C115.661 74.8697 113.007 80.5252 113.534 84.1155C113.969 80.6185 116.484 76.0218 120.52 71.9188C126.687 65.6465 134.068 62.9035 137.005 65.7915C137.628 66.4048 137.999 67.2234 138.141 68.1908C138.371 66.342 138.019 64.8004 137.005 63.8019C134.068 60.9132 126.687 63.6569 120.52 69.9286Z" fill="#393939"/>
</g>
<g opacity="0.3">
<path d="M133.442 83.2529C125.32 91.5124 114.747 94.2859 109.827 89.4479C108.347 87.9928 107.552 86.0124 107.378 83.7326C107.156 86.8487 107.931 89.5734 109.827 91.4381C114.747 96.2761 125.32 93.5027 133.442 85.2431C139.122 79.4681 142.094 72.5417 141.689 67.2422C141.334 72.2113 138.434 78.1765 133.442 83.2529Z" fill="#393939"/>
</g>
<path d="M120.52 71.9187C114.352 78.1905 111.733 85.6161 114.668 88.5048C117.603 91.3936 124.986 88.6493 131.153 82.3775C137.321 76.1058 139.94 68.6795 137.005 65.7914C134.07 62.9033 126.687 65.6463 120.52 71.9187Z" fill="#7DBCF9"/>
<g opacity="0.5">
<path d="M137.204 68.0657C137.668 68.5301 138.006 69.1058 138.184 69.7377C138.306 68.0858 137.94 66.7094 137.004 65.7914C134.068 62.9033 126.687 65.6463 120.52 71.9187C115.319 77.2073 112.642 83.3175 113.692 86.8328C113.959 83.2876 116.513 78.4721 120.721 74.193C126.887 67.9212 134.268 65.1776 137.204 68.0657Z" fill="white"/>
</g>
<path d="M108.664 96.982C108.906 97.2795 109.028 97.6569 109.006 98.0398C108.983 98.4227 108.818 98.7832 108.542 99.0502L92.1989 114.893C92.05 115.037 91.8734 115.15 91.6799 115.223C91.4864 115.297 91.28 115.331 91.073 115.323C90.866 115.315 90.6629 115.265 90.4758 115.176C90.2886 115.087 90.1215 114.961 89.9844 114.806L87.8107 112.336C87.5548 112.044 87.4188 111.667 87.4301 111.279C87.4414 110.892 87.5992 110.523 87.8716 110.247L103.517 94.3639C103.755 94.1221 104.066 93.9661 104.402 93.9204C104.739 93.8748 105.081 93.942 105.375 94.1116L105.734 94.3188" fill="#8C8C8C"/>
<path d="M112.092 92.9796L108.664 96.982L105.735 94.3188L109.15 90.6133" fill="white"/>
<path d="M117.898 90.6413C116.303 90.6413 114.947 90.1835 113.967 89.2192C110.585 85.8928 113.149 77.9844 119.805 71.2159C122.888 68.0797 126.376 65.6878 129.624 64.4802C133.124 63.1794 135.994 63.3915 137.708 65.0764C139.422 66.7612 139.681 69.6286 138.44 73.1488C137.287 76.4172 134.954 79.9442 131.87 83.0803C127.143 87.8879 121.803 90.6407 117.898 90.6413ZM133.756 65.6494C132.768 65.6494 131.603 65.8865 130.323 66.3619C127.344 67.4695 124.116 69.6932 121.234 72.6239C114.975 78.9896 113.15 85.6076 115.373 87.7922C117.596 89.9769 124.181 88.0422 130.44 81.6771C133.322 78.7458 135.492 75.4816 136.549 72.4844C137.503 69.7791 137.413 67.6012 136.302 66.5107C135.72 65.934 134.844 65.6469 133.756 65.6469V65.6494Z" fill="#393939"/>
<path d="M116.313 94.8254C113.397 94.8254 110.921 93.9202 109.121 92.1525C106.479 89.5551 105.675 85.4607 106.858 80.6251C107.995 75.9729 110.854 71.1409 114.904 67.0191C118.958 62.8978 123.743 59.9585 128.375 58.7431C133.191 57.4794 137.298 58.2146 139.94 60.8156C142.582 63.4166 143.385 67.5073 142.203 72.3436C141.066 76.9957 138.208 81.8277 134.156 85.9489C130.105 90.0702 125.318 93.0101 120.685 94.225C119.15 94.626 117.682 94.8254 116.313 94.8254ZM116.339 68.4253C108.618 76.2771 106.012 86.2799 110.53 90.723C112.647 92.8053 116.077 93.3594 120.179 92.2823C124.467 91.1576 128.923 88.4079 132.727 84.5409C136.531 80.6738 139.205 76.171 140.258 71.862C141.265 67.7396 140.654 64.3224 138.536 62.2401C134.019 57.8001 124.058 60.5742 116.339 68.4253Z" fill="#393939"/>
<path d="M108.664 97.9824C108.415 97.9824 108.174 97.8894 107.99 97.7215L105.06 95.0583C104.962 94.9693 104.883 94.8618 104.827 94.742C104.771 94.6222 104.739 94.4924 104.733 94.3603C104.728 94.2282 104.748 94.0962 104.794 93.972C104.839 93.8479 104.909 93.7339 104.999 93.6368L108.412 89.9313C108.594 89.7417 108.843 89.631 109.105 89.6228C109.368 89.6146 109.623 89.7097 109.816 89.8876C110.009 90.0656 110.125 90.3121 110.138 90.5743C110.151 90.8366 110.061 91.0935 109.887 91.29L107.156 94.2537L108.576 95.5442L111.332 92.3269C111.418 92.2268 111.522 92.1446 111.64 92.0849C111.757 92.0253 111.885 91.9893 112.016 91.9791C112.148 91.9689 112.28 91.9846 112.405 92.0254C112.53 92.0662 112.646 92.1313 112.746 92.2169C112.846 92.3025 112.928 92.407 112.988 92.5244C113.048 92.6417 113.084 92.7697 113.094 92.901C113.104 93.0323 113.088 93.1643 113.048 93.2896C113.007 93.4148 112.942 93.5307 112.856 93.6308L109.428 97.6331C109.341 97.7351 109.234 97.8184 109.114 97.8782C108.994 97.938 108.863 97.9731 108.729 97.9812C108.706 97.9824 108.685 97.9824 108.664 97.9824Z" fill="#393939"/>
<path d="M91.1308 116.33C91.0979 116.33 91.0644 116.33 91.0315 116.33C90.6887 116.316 90.3523 116.232 90.0426 116.085C89.7328 115.937 89.4561 115.728 89.229 115.471L87.0584 112.998C86.6366 112.515 86.4124 111.892 86.4305 111.251C86.4485 110.611 86.7076 110.001 87.1559 109.543L102.807 93.6599C103.201 93.2604 103.716 93.0027 104.272 92.9274C104.828 92.852 105.393 92.9632 105.879 93.2436L106.239 93.4502C106.353 93.516 106.453 93.6036 106.533 93.7081C106.613 93.8125 106.672 93.9317 106.706 94.0589C106.74 94.1861 106.749 94.3188 106.732 94.4493C106.715 94.5799 106.672 94.7058 106.606 94.8199C106.541 94.934 106.453 95.0339 106.348 95.1142C106.244 95.1944 106.125 95.2532 105.998 95.2873C105.87 95.3215 105.738 95.3302 105.607 95.3131C105.477 95.2959 105.351 95.2532 105.237 95.1874L104.878 94.9802C104.776 94.9215 104.658 94.8982 104.541 94.914C104.425 94.9298 104.317 94.9837 104.235 95.0674L88.5823 110.951C88.4886 111.046 88.4345 111.174 88.4308 111.308C88.4271 111.442 88.474 111.572 88.5621 111.673L90.7358 114.143C90.7832 114.197 90.841 114.241 90.9058 114.272C90.9705 114.303 91.041 114.32 91.1127 114.323C91.1844 114.326 91.256 114.314 91.323 114.288C91.3901 114.263 91.4512 114.223 91.5027 114.173L107.844 98.3297C107.94 98.2379 107.998 98.1133 108.006 97.9808C108.013 97.8483 107.971 97.7178 107.886 97.6153C107.8 97.5136 107.736 97.3958 107.696 97.2687C107.656 97.1416 107.641 97.0079 107.654 96.8752C107.666 96.7426 107.705 96.6138 107.767 96.4962C107.83 96.3787 107.915 96.2748 108.019 96.1907C108.122 96.1065 108.241 96.0438 108.369 96.0062C108.497 95.9685 108.631 95.9567 108.763 95.9714C108.895 95.9861 109.023 96.027 109.14 96.0918C109.256 96.1566 109.359 96.2439 109.441 96.3487C109.845 96.8393 110.049 97.4644 110.011 98.0988C109.974 98.7333 109.698 99.3302 109.24 99.7701L92.8961 115.613C92.4227 116.072 91.7899 116.329 91.1308 116.33Z" fill="#393939"/>
<g opacity="0.3">
<path d="M92.4657 113.935L90.9302 112.036L105.145 97.5032L107.833 99.7378L92.4657 113.935Z" fill="#393939"/>
</g>
<g opacity="0.3">
<path d="M107.448 95.3423L110.263 92.3286C110.263 92.3286 111.125 92.4633 111.226 92.5243C111.327 92.5852 111.619 93.5325 111.577 93.5813L110.602 94.7199C110.602 94.7199 109.79 95.5983 109.515 95.7123C109.239 95.8263 108.272 96.139 108.272 96.139L107.448 95.3423Z" fill="#393939"/>
</g>
<g opacity="0.5">
<path d="M131.926 72.181C132.429 71.0473 132.07 69.7872 131.123 69.3665C130.176 68.9459 129 69.524 128.496 70.6577C127.993 71.7915 128.352 73.0516 129.299 73.4722C130.246 73.8928 131.422 73.3147 131.926 72.181Z" fill="white"/>
</g>
<g opacity="0.5">
<path d="M129.489 79.143C130.153 77.6478 129.679 75.9858 128.429 75.4308C127.18 74.8758 125.628 75.638 124.964 77.1333C124.3 78.6286 124.775 80.2906 126.024 80.8456C127.273 81.4005 128.825 80.6383 129.489 79.143Z" fill="white"/>
</g>
<path d="M98.111 97.2776C98.111 97.2776 93.315 101.063 93.3607 102.327C93.4064 103.591 93.3473 105.151 95.3942 105.918C95.3942 105.918 93.671 108.173 93.6795 110.523C93.688 112.872 94.7017 113.936 94.7017 113.936C94.7017 113.936 105.702 106.211 105.345 104.616C104.989 103.021 102.43 101.654 101.962 101.483C101.493 101.312 99.872 100.844 99.872 100.844L99.3844 99.839L98.111 97.2776Z" fill="white"/>
<path d="M100.381 100.624C101.303 103.554 100.289 106.936 96.7429 106.881C93.5074 107.015 91.7726 104.039 93.4367 101.291C93.4471 101.276 93.462 101.265 93.4791 101.258C93.4963 101.252 93.5149 101.251 93.5326 101.256C93.5502 101.261 93.566 101.271 93.5777 101.285C93.5894 101.299 93.5966 101.316 93.5982 101.334C93.6787 101.923 93.7488 102.478 93.8652 102.99C94.1011 104.197 94.6802 105.09 95.959 105.128C96.5881 105.155 97.3299 105.093 97.8663 104.748C98.9465 103.996 98.6947 102.31 98.4497 101.156C98.1675 99.8982 99.9791 99.4014 100.381 100.624Z" fill="#393939"/>
<path d="M96.2425 107.095C95.0544 108.723 93.9651 110.989 94.9843 112.947C95.6548 114.227 96.7624 114.871 97.8151 116.003C97.8273 116.016 97.8354 116.033 97.8384 116.05C97.8414 116.067 97.8393 116.085 97.8322 116.102C97.8252 116.118 97.8135 116.132 97.7986 116.142C97.7838 116.151 97.7664 116.156 97.7487 116.156C95.4994 116.084 93.4769 114.383 92.8801 112.163C92.3315 109.886 93.2715 107.538 94.7155 105.793C95.6 104.808 97.0733 106.063 96.2425 107.093V107.095Z" fill="#393939"/>
<path d="M99.4228 101.918C99.3845 101.918 99.3462 101.915 99.3082 101.911C99.1773 101.896 99.0507 101.855 98.9356 101.792C98.8204 101.728 98.7189 101.642 98.637 101.539C98.555 101.436 98.4941 101.317 98.4579 101.191C98.4216 101.064 98.4106 100.932 98.4255 100.801C98.4597 100.465 98.6572 97.4538 95.0199 97.0217C94.8892 97.0061 94.7628 96.9649 94.6479 96.9005C94.5331 96.8361 94.432 96.7497 94.3506 96.6462C94.2691 96.5427 94.2089 96.4242 94.1732 96.2974C94.1375 96.1707 94.1272 96.0381 94.1428 95.9074C94.1583 95.7766 94.1995 95.6502 94.2639 95.5354C94.3284 95.4205 94.4148 95.3195 94.5182 95.238C94.6217 95.1566 94.7402 95.0963 94.867 95.0606C94.9938 95.025 95.1263 95.0147 95.2571 95.0302C99.8184 95.5733 100.627 99.1917 100.418 101.03C100.39 101.274 100.273 101.499 100.089 101.663C99.906 101.827 99.6687 101.917 99.4228 101.918Z" fill="#393939"/>
<path d="M106.055 108.968H106.038C105.906 108.966 105.776 108.937 105.655 108.885C105.535 108.832 105.425 108.757 105.334 108.662C105.242 108.567 105.171 108.455 105.122 108.333C105.074 108.21 105.05 108.08 105.053 107.948C105.148 102.501 99.5722 101.935 99.3351 101.913C99.2039 101.902 99.0762 101.865 98.9593 101.804C98.8423 101.744 98.7385 101.661 98.6537 101.56C98.5689 101.459 98.5047 101.343 98.4649 101.217C98.4251 101.092 98.4104 100.96 98.4216 100.829C98.4329 100.697 98.4699 100.57 98.5304 100.453C98.591 100.336 98.6741 100.232 98.7748 100.147C98.8755 100.062 98.992 99.9983 99.1175 99.9584C99.243 99.9186 99.3751 99.9039 99.5063 99.9152C102.163 100.139 107.161 102.114 107.058 107.983C107.053 108.245 106.945 108.496 106.758 108.68C106.571 108.864 106.318 108.968 106.055 108.968Z" fill="#393939"/>
</svg>
