<svg width="146" height="162" viewBox="0 0 146 162" fill="none" xmlns="http://www.w3.org/2000/svg">
<path d="M103.232 106.926V143.292C103.232 150.233 97.6052 155.861 90.6637 155.861H52.6579C45.7193 155.861 40.0916 150.233 40.0916 143.292V106.926C40.092 103.593 41.4161 100.397 43.7726 98.0405C46.1292 95.6839 49.3252 94.3598 52.6579 94.3594H90.6637C92.3143 94.3585 93.9489 94.6829 95.4741 95.3141C96.9992 95.9452 98.385 96.8708 99.5523 98.0378C100.72 99.2049 101.645 100.591 102.277 102.116C102.908 103.641 103.233 105.275 103.232 106.926Z" fill="white"/>
<path d="M100.872 99.5879C96.5142 104.094 85.0926 107.307 71.689 107.307C58.2565 107.307 46.8139 104.078 42.4795 99.559C43.6431 97.9476 45.1729 96.6359 46.9429 95.7317C48.7129 94.8275 50.6724 94.3568 52.66 94.3584H90.6658C92.66 94.3575 94.6256 94.8313 96.4004 95.7406C98.1751 96.65 99.7078 97.9687 100.872 99.5879Z" fill="#D8D8D8"/>
<path d="M92.2735 156.767H51.0542C44.5098 156.767 39.1855 151.443 39.1855 144.898V105.32C39.1855 98.7756 44.5098 93.4514 51.0542 93.4514H92.2735C98.8179 93.4514 104.142 98.7756 104.142 105.32V144.9C104.14 151.444 98.8179 156.767 92.2735 156.767ZM51.0542 95.2666C45.511 95.2666 41.0013 99.7763 41.0013 105.32V144.9C41.0013 150.444 45.511 154.953 51.0542 154.953H92.2735C97.8167 154.953 102.326 150.444 102.326 144.9V105.32C102.326 99.7763 97.8167 95.2666 92.2735 95.2666H51.0542Z" fill="#393939"/>
<path d="M60.8842 135.474C62.9161 138.75 63.868 140.74 62.6246 143.139C61.9535 144.432 52.0737 148.471 41.2647 148.857C39.3928 148.924 28.3552 151.448 25.1548 144.676C22.3866 138.812 29.9367 118.583 46.8584 102.539C50.2543 99.3104 53.9196 96.3773 57.8143 93.7717L63.2281 109.144L63.6082 110.222C63.6082 110.222 58.9567 132.375 60.8854 135.474" fill="white"/>
<path d="M63.2282 109.142C56.555 108.026 50.8207 105.666 46.8584 102.539C50.2544 99.3104 53.9196 96.3773 57.8143 93.7717L63.2282 109.142Z" fill="#D8D8D8"/>
<path d="M97.0395 102.654C93.0279 105.768 87.247 108.107 80.5325 109.191L85.9622 93.7712C89.9037 96.4076 93.6101 99.3795 97.0401 102.654" fill="#D8D8D8"/>
<path d="M93.504 104.951C87.9393 107.995 80.3631 109.863 72.0222 109.863C63.6053 109.863 55.9724 107.961 50.394 104.871C53.7295 99.4648 61.8781 88.21 71.9235 88.21C82.0206 88.21 90.1998 99.5766 93.504 104.951" fill="#D8D8D8"/>
<path d="M25.154 144.676C27.4928 149.627 34.0201 149.612 38.0941 149.214L33.9033 135.156C33.9033 135.156 27.3935 144.743 24.6202 140.723C24.5244 142.368 24.7013 143.714 25.154 144.675" fill="#D8D8D8"/>
<path d="M35.1519 150.272C31.1454 150.272 26.3595 149.356 24.3344 145.064C22.4534 141.083 24.8308 131.931 30.2497 122.291C34.0191 115.586 42.5466 102.866 57.3077 93.0159C57.5079 92.8823 57.753 92.8337 57.9891 92.8808C58.2251 92.928 58.4328 93.067 58.5664 93.2672C58.7 93.4674 58.7486 93.7125 58.7014 93.9486C58.6543 94.1847 58.5153 94.3923 58.3151 94.5259C43.8666 104.166 35.5195 116.617 31.8301 123.181C25.921 133.692 24.6515 141.491 25.9732 144.288C28.4618 149.555 36.5043 148.528 39.939 148.089C40.5187 148.014 40.9373 147.961 41.2306 147.95C51.7497 147.575 60.9948 143.68 61.8309 142.692C62.7731 140.847 62.1957 139.314 60.1099 135.952C59.5171 134.998 58.926 132.467 60.6255 121.544C61.5405 115.663 62.7062 110.088 62.7181 110.033C62.7676 109.797 62.9087 109.591 63.1103 109.459C63.3118 109.328 63.5574 109.282 63.793 109.331C64.0286 109.381 64.2349 109.522 64.3665 109.723C64.4981 109.925 64.5442 110.171 64.4947 110.406C62.595 119.457 60.457 133.069 61.6522 134.993C63.6943 138.289 64.9253 140.666 63.4277 143.555C62.4594 145.42 51.8399 149.386 41.2953 149.762C41.0848 149.769 40.6605 149.824 40.1693 149.887C38.9985 150.039 37.1742 150.272 35.1519 150.272Z" fill="#393939"/>
<path d="M118.621 144.676C116.282 149.627 109.754 149.611 105.68 149.214C104.181 149.069 103.014 148.874 102.511 148.855C91.7034 148.47 81.8225 144.431 81.1514 143.137C79.9074 140.738 80.8599 138.748 82.8918 135.472C84.817 132.374 80.1689 110.22 80.1689 110.22L85.9629 93.77C107.141 107.9 118.554 130.337 119.155 140.723C119.251 142.368 119.074 143.715 118.622 144.675" fill="white"/>
<path d="M97.0395 102.654C93.0279 105.768 87.247 108.107 80.5325 109.191L85.9622 93.7712C89.9037 96.4076 93.6101 99.3795 97.0401 102.654" fill="#D8D8D8"/>
<path d="M118.621 144.677C116.282 149.628 109.754 149.612 105.68 149.215L109.874 135.155C109.874 135.155 116.381 144.741 119.154 140.722C119.251 142.367 119.074 143.714 118.621 144.674" fill="#D8D8D8"/>
<path d="M108.624 150.272C106.601 150.272 104.778 150.039 103.605 149.889C103.113 149.826 102.689 149.771 102.479 149.764C91.9344 149.388 81.3144 145.422 80.3461 143.557C78.8485 140.668 80.0766 138.291 82.1216 134.995C83.3168 133.071 81.1788 119.459 79.2791 110.408C79.252 110.29 79.2486 110.169 79.2691 110.05C79.2896 109.931 79.3337 109.817 79.3986 109.716C79.4636 109.614 79.5482 109.526 79.6475 109.458C79.7467 109.389 79.8587 109.341 79.9768 109.316C80.0949 109.291 80.2168 109.29 80.3352 109.313C80.4537 109.336 80.5665 109.382 80.6669 109.449C80.7673 109.516 80.8534 109.602 80.92 109.703C80.9867 109.803 81.0326 109.916 81.0551 110.035C81.067 110.092 82.2333 115.665 83.1483 121.546C84.85 132.466 84.2567 134.998 83.6639 135.954C81.5787 139.316 80.9978 140.849 81.9423 142.694C82.7784 143.682 92.0241 147.577 102.544 147.952C102.836 147.963 103.255 148.016 103.835 148.091C107.269 148.53 115.312 149.558 117.801 144.29C119.122 141.493 117.853 133.694 111.944 123.183C108.257 116.619 99.9072 104.168 85.4587 94.5279C85.2585 94.3943 85.1195 94.1866 85.0724 93.9506C85.0252 93.7145 85.0738 93.4694 85.2074 93.2691C85.341 93.0689 85.5487 92.9299 85.7847 92.8828C86.0208 92.8357 86.2659 92.8842 86.4661 93.0178C101.229 102.868 109.757 115.588 113.524 122.293C118.943 131.933 121.32 141.084 119.439 145.065C117.414 149.356 112.631 150.272 108.624 150.272Z" fill="#393939"/>
<path d="M118.601 137.943C118.441 137.943 118.283 137.901 118.145 137.82C118.006 137.74 117.891 137.624 117.812 137.485C115.605 133.623 112.631 131.2 108.97 130.281C101.525 128.416 93.5641 133.337 93.4841 133.386C93.2806 133.505 93.039 133.54 92.8103 133.483C92.5817 133.427 92.3839 133.284 92.2587 133.084C92.1335 132.885 92.0908 132.645 92.1395 132.414C92.1882 132.184 92.3246 131.981 92.5198 131.85C92.8703 131.629 101.199 126.468 109.402 128.518C113.566 129.558 116.926 132.272 119.389 136.583C119.468 136.721 119.509 136.878 119.509 137.037C119.509 137.195 119.466 137.351 119.387 137.489C119.307 137.626 119.193 137.741 119.055 137.82C118.917 137.899 118.761 137.941 118.603 137.941L118.601 137.943Z" fill="#393939"/>
<path d="M25.165 137.942C25.0061 137.942 24.85 137.901 24.7123 137.821C24.5746 137.742 24.4602 137.628 24.3805 137.49C24.3008 137.353 24.2585 137.197 24.2581 137.038C24.2576 136.879 24.2988 136.722 24.3777 136.584C26.8413 132.273 30.2011 129.559 34.3647 128.519C42.5695 126.469 50.8967 131.63 51.2473 131.851C51.4425 131.982 51.5788 132.185 51.6275 132.415C51.6762 132.646 51.6335 132.886 51.5083 133.085C51.3831 133.285 51.1854 133.428 50.9567 133.484C50.7281 133.541 50.4865 133.506 50.2829 133.387C50.2035 133.338 42.2433 128.417 34.797 130.282C31.1365 131.2 28.1601 133.623 25.9552 137.486C25.8755 137.625 25.7604 137.741 25.6216 137.821C25.4828 137.901 25.3253 137.943 25.165 137.942Z" fill="#393939"/>
<path d="M101.449 154.206H42.3984C42.3984 154.206 43.9777 134.046 47.0034 116.643C47.5445 113.532 48.1322 110.511 48.7619 107.706C48.7619 107.706 58.6979 88.2095 71.9194 88.2095C85.1409 88.2095 95.0797 107.706 95.0797 107.706C95.7122 110.511 96.2998 113.534 96.8382 116.649C99.8661 134.049 101.445 154.206 101.445 154.206" fill="white"/>
<path d="M93.504 104.951C87.9393 107.995 80.3631 109.863 72.0222 109.863C63.6053 109.863 55.9724 107.961 50.394 104.871C53.7295 99.4648 61.8781 88.21 71.9235 88.21C82.0206 88.21 90.1998 99.5766 93.504 104.951" fill="#D8D8D8"/>
<path d="M101.449 154.206H42.3984C42.3984 154.206 43.9777 134.046 47.0034 116.643C47.8985 122.325 52.1313 137.035 71.9222 137.035C91.713 137.035 95.9436 122.333 96.8416 116.649C99.8696 134.048 101.449 154.206 101.449 154.206" fill="#D8D8D8"/>
<g opacity="0.25">
<path d="M101.449 154.206H42.3984C42.3984 154.206 43.019 146.287 44.2273 136.091H99.6211C100.829 146.287 101.45 154.206 101.45 154.206" fill="#393939"/>
</g>
<path d="M49.2089 107.806C48.7029 111.689 48.0823 115.532 47.4742 119.387C46.8775 123.244 46.3618 127.112 45.8621 130.985C45.3845 134.86 44.9097 138.737 44.4978 142.623L43.8812 148.45L43.3026 154.277L42.395 153.299H101.446L100.542 154.277L99.9626 148.45L99.3437 142.623C98.9302 138.738 98.4599 134.86 97.9761 130.985C97.7236 129.049 97.4809 127.111 97.2023 125.18C96.9454 123.245 96.6515 121.317 96.3611 119.388C95.7445 115.534 95.0973 111.697 94.6355 107.805V107.801C94.6149 107.686 94.6397 107.567 94.7047 107.469C94.7697 107.372 94.8699 107.303 94.9843 107.278C95.0987 107.253 95.2184 107.273 95.3185 107.334C95.4185 107.395 95.4911 107.492 95.521 107.605C96.7542 111.355 97.5217 115.22 98.1871 119.088C98.8525 122.956 99.4311 126.84 99.9546 130.728C100.478 134.615 100.91 138.514 101.327 142.413C101.539 144.362 101.716 146.315 101.887 148.268C102.059 150.221 102.222 152.172 102.35 154.136L102.414 155.114H41.4216L41.4925 154.136C41.6213 152.171 41.783 150.222 41.9566 148.268C42.1301 146.313 42.3065 144.362 42.5181 142.413L42.8341 139.489C42.9413 138.515 43.0491 137.54 43.1659 136.567L43.5137 133.646L43.8937 130.729C44.4167 126.841 45.007 122.962 45.6647 119.09C46.3403 115.223 47.1344 111.366 48.3234 107.606C48.3514 107.491 48.4235 107.391 48.5243 107.328C48.625 107.266 48.7463 107.245 48.8622 107.27C48.9781 107.296 49.0794 107.366 49.1443 107.465C49.2092 107.565 49.2326 107.686 49.2094 107.802L49.2089 107.806Z" fill="#393939"/>
<path d="M58.3265 141.513C54.6308 143.067 48.9101 142.742 45.0114 142.25C42.6732 141.956 41.031 139.715 41.3759 137.294C41.6901 135.086 43.562 133.48 45.7097 133.584C49.3565 133.762 54.8277 133.845 58.2924 133.047" fill="white"/>
<g opacity="0.25">
<path d="M58.3276 141.512C54.6319 143.066 48.9112 142.743 45.0114 142.25C42.6737 141.958 41.0315 139.715 41.3747 137.293C41.4445 136.792 41.6001 136.308 41.8347 135.86C42.4587 137.057 43.6097 137.931 45.0114 138.108C48.9044 138.597 54.6161 138.923 58.3117 137.375L58.3276 141.512Z" fill="#393939"/>
</g>
<path d="M50.9799 143.564C48.8431 143.564 46.7182 143.381 44.8984 143.152C44.2319 143.068 43.5891 142.851 43.0079 142.514C42.4268 142.177 41.9193 141.727 41.5154 141.19C41.0854 140.622 40.7721 139.974 40.5937 139.283C40.4152 138.593 40.3751 137.874 40.4756 137.169C40.8579 134.481 43.1224 132.55 45.751 132.679C51.1257 132.942 55.5078 132.758 58.0859 132.164C58.5686 132.051 59.7752 132.042 60.5189 134.346C61.3805 137.012 61.2188 141.281 58.6753 142.35C56.5175 143.259 53.7391 143.564 50.9799 143.564ZM45.5105 134.488C43.8933 134.488 42.516 135.724 42.2772 137.424C42.2072 137.891 42.2318 138.368 42.3495 138.826C42.4672 139.284 42.6756 139.714 42.9624 140.09C43.2205 140.434 43.5452 140.724 43.9171 140.941C44.289 141.158 44.7006 141.298 45.1276 141.353C49.078 141.849 54.5134 142.134 57.9776 140.678C58.593 140.419 59.0156 139.527 59.1376 138.229C59.3197 136.297 58.7558 134.394 58.3503 133.968C54.8395 134.741 49.5301 134.682 45.6682 134.494C45.6137 134.49 45.5621 134.489 45.5105 134.489V134.488Z" fill="#393939"/>
<path d="M86.5952 141.513C90.2914 143.067 96.0116 142.742 99.9109 142.25C102.249 141.956 103.891 139.715 103.546 137.294C103.232 135.086 101.36 133.48 99.2126 133.584C95.5657 133.762 90.0946 133.845 86.6298 133.047" fill="white"/>
<g opacity="0.35">
<path d="M99.9115 142.252C96.0105 142.743 90.2909 143.066 86.5952 141.514L86.6111 137.387C90.3067 138.935 96.0156 138.609 99.9115 138.12C101.313 137.943 102.469 137.064 103.088 135.867C103.32 136.314 103.475 136.798 103.545 137.297C103.889 139.719 102.247 141.961 99.9092 142.253" fill="#393939"/>
</g>
<path d="M93.9426 143.564C91.1835 143.564 88.4051 143.258 86.2438 142.35C83.7009 141.28 83.5392 137.014 84.4008 134.345C85.1439 132.042 86.3493 132.052 86.8338 132.164C89.4131 132.758 93.794 132.941 99.1687 132.679C101.797 132.548 104.063 134.482 104.444 137.168C104.545 137.874 104.504 138.593 104.326 139.283C104.148 139.973 103.834 140.621 103.404 141.19C103.001 141.727 102.493 142.177 101.913 142.514C101.332 142.851 100.689 143.068 100.023 143.152C98.2049 143.38 96.0788 143.564 93.9426 143.564ZM86.5751 133.966C86.1695 134.392 85.6057 136.296 85.7872 138.227C85.9097 139.525 86.3323 140.418 86.9472 140.676C90.412 142.133 95.848 141.848 99.7978 141.351C100.225 141.296 100.636 141.156 101.008 140.939C101.38 140.722 101.705 140.433 101.963 140.089C102.25 139.713 102.458 139.283 102.576 138.825C102.694 138.367 102.718 137.89 102.648 137.422C102.399 135.669 100.942 134.408 99.2572 134.491C95.3953 134.68 90.0858 134.739 86.5751 133.966Z" fill="#393939"/>
<path d="M88.0237 130.251V143.816C88.0237 146.334 86.0383 148.394 83.619 148.394H59.5641C57.1403 148.394 55.1594 146.334 55.1594 143.816V130.251C55.1594 127.736 57.1403 125.676 59.5641 125.676H83.619C85.5533 125.676 87.2091 126.992 87.7962 128.804C87.9467 129.271 88.0232 129.759 88.0231 130.251" fill="white"/>
<path d="M88.0237 130.251V143.817C88.0237 146.334 86.0383 148.394 83.619 148.394H59.5641C57.1403 148.394 55.1594 146.334 55.1594 143.817V139.25C59.31 141.636 67.5318 145.219 75.7841 142.262C79.815 140.818 84.437 135.865 84.437 135.865C84.437 135.865 84.6151 141.061 85.3571 140.979C87.4213 140.752 87.406 130.238 87.7962 128.804C87.9467 129.271 88.0232 129.76 88.0231 130.251" fill="#D8D8D8"/>
<path d="M84.1191 149.3H59.0619C57.7862 149.299 56.5632 148.791 55.6612 147.889C54.7592 146.987 54.2518 145.764 54.2505 144.488V129.58C54.252 128.305 54.7594 127.082 55.6614 126.18C56.5634 125.278 57.7863 124.77 59.0619 124.769H84.1191C85.3947 124.77 86.6177 125.278 87.5197 126.18C88.4217 127.082 88.929 128.305 88.9305 129.58V144.488C88.9292 145.764 88.4219 146.987 87.5199 147.889C86.6178 148.791 85.3948 149.299 84.1191 149.3ZM59.0619 126.584C58.2675 126.585 57.506 126.901 56.9443 127.463C56.3826 128.024 56.0666 128.786 56.0657 129.58V144.488C56.0664 145.283 56.3824 146.044 56.9441 146.606C57.5058 147.168 58.2675 147.484 59.0619 147.484H84.1191C84.9135 147.484 85.6752 147.168 86.2369 146.606C86.7987 146.044 87.1146 145.283 87.1153 144.488V129.58C87.1144 128.786 86.7985 128.024 86.2368 127.463C85.6751 126.901 84.9135 126.585 84.1191 126.584H59.0619Z" fill="#393939"/>
<path d="M83.911 137.034C83.911 139.213 82.2092 140.98 80.1104 140.98C78.0116 140.98 76.3098 139.213 76.3098 137.034C76.3098 134.856 78.0116 133.089 80.1104 133.089C82.2092 133.089 83.911 134.856 83.911 137.034Z" fill="#7DBCF9"/>
<path d="M83.9122 137.036C83.9128 137.298 83.8878 137.56 83.8374 137.818C83.4868 136.012 81.9512 134.653 80.1122 134.653C78.2732 134.653 76.7376 136.014 76.3893 137.818C76.339 137.56 76.3139 137.298 76.3145 137.036C76.3145 134.857 78.0162 133.089 80.115 133.089C82.2139 133.089 83.9156 134.857 83.9156 137.036" fill="white"/>
<g opacity="0.35">
<path d="M83.911 137.034C83.911 139.214 82.2092 140.978 80.1104 140.978C78.0116 140.978 76.3098 139.214 76.3098 137.034C76.3096 136.677 76.3557 136.322 76.4471 135.977C76.8941 137.64 78.3655 138.862 80.1081 138.862C81.8507 138.862 83.3222 137.64 83.7686 135.977C83.8602 136.322 83.9065 136.677 83.9065 137.034" fill="#393939"/>
</g>
<path d="M80.1129 141.66C77.6431 141.66 75.6316 139.585 75.6316 137.034C75.6316 134.484 77.6414 132.408 80.1129 132.408C82.5844 132.408 84.5942 134.483 84.5942 137.034C84.5942 139.585 82.5844 141.66 80.1129 141.66ZM80.1129 133.77C78.3935 133.77 76.993 135.234 76.993 137.034C76.993 138.835 78.3918 140.299 80.1129 140.299C81.8339 140.299 83.2328 138.834 83.2328 137.034C83.2328 135.234 81.8322 133.77 80.1129 133.77Z" fill="#393939"/>
<path d="M69.3481 149.3C69.1074 149.3 68.8765 149.204 68.7063 149.034C68.5361 148.864 68.4405 148.633 68.4405 148.393V141.451C68.4405 140.019 67.7859 138.652 66.6894 137.794L66.0785 137.317C64.5469 136.118 63.6296 134.216 63.6296 132.23V125.679C63.6296 125.438 63.7253 125.207 63.8955 125.037C64.0657 124.867 64.2965 124.771 64.5372 124.771C64.778 124.771 65.0088 124.867 65.179 125.037C65.3492 125.207 65.4448 125.438 65.4448 125.679V132.23C65.4448 133.662 66.0995 135.029 67.196 135.887L67.8069 136.364C69.3385 137.563 70.2557 139.465 70.2557 141.451V148.394C70.2553 148.635 70.1594 148.865 69.9893 149.035C69.8191 149.205 69.5885 149.3 69.3481 149.3Z" fill="#393939"/>
<path d="M112.897 72.6678C112.783 72.6663 112.671 72.6422 112.566 72.597C112.462 72.5518 112.368 72.4863 112.289 72.4044C112.21 72.3224 112.148 72.2257 112.107 72.1197C112.066 72.0137 112.046 71.9006 112.049 71.7869L112.162 46.3264C112.162 45.8385 112.547 45.4415 113.017 45.4398C117.953 45.4216 121.936 49.5586 121.913 54.6803L121.875 63.3621C121.851 68.4838 117.832 72.6497 112.896 72.665" fill="white"/>
<path d="M112.893 72.8304C112.763 72.8305 112.633 72.8047 112.513 72.7544C112.393 72.7042 112.283 72.6305 112.192 72.5377C112.093 72.4391 112.015 72.3218 111.963 72.1927C111.91 72.0637 111.884 71.9254 111.886 71.7861L111.999 46.3255C111.999 45.7492 112.459 45.2784 113.017 45.2761H113.05C115.407 45.2761 117.633 46.2064 119.322 47.8968C121.11 49.6859 122.088 52.0945 122.076 54.6806L122.038 63.3624C122.015 68.5646 117.914 72.8117 112.897 72.8304H112.893ZM113.05 45.6023H113.019C112.638 45.6023 112.327 45.929 112.325 46.3267L112.212 71.7872C112.211 71.8835 112.228 71.9791 112.265 72.0684C112.301 72.1577 112.354 72.239 112.422 72.3074C112.483 72.3698 112.557 72.4194 112.638 72.4533C112.719 72.4871 112.806 72.5047 112.893 72.5048H112.896C117.735 72.4872 121.688 68.3854 121.712 63.3612L121.751 54.6823C121.762 52.1864 120.818 49.8572 119.092 48.13C117.465 46.4985 115.32 45.6023 113.05 45.6023Z" fill="#393939"/>
<g opacity="0.25">
<path d="M121.895 59.2908L121.878 63.3631C121.854 68.4825 117.835 72.6495 112.898 72.6694C112.428 72.6694 112.048 72.2723 112.048 71.7868L112.075 65.0183C112.139 65.1715 112.246 65.3027 112.384 65.3955C112.521 65.4883 112.683 65.5386 112.849 65.5402L113.43 65.5362C117.331 65.5232 120.661 62.9166 121.892 59.2908" fill="#393939"/>
</g>
<path d="M112.893 73.5752C112.665 73.5756 112.439 73.5307 112.228 73.443C112.017 73.3554 111.825 73.2268 111.665 73.0647C111.496 72.8966 111.364 72.6967 111.274 72.4767C111.184 72.2567 111.139 72.021 111.141 71.7833L111.254 46.3228C111.258 45.3391 112.049 44.5359 113.013 44.5325C114.283 44.5288 115.542 44.7777 116.715 45.2646C117.888 45.7515 118.953 46.4667 119.848 47.3688C121.776 49.2974 122.832 51.8966 122.82 54.6823L122.781 63.3613C122.755 68.9709 118.322 73.5503 112.898 73.5718H112.891L112.893 73.5752ZM113.07 46.3472L112.957 71.76C117.359 71.7084 120.946 67.9532 120.967 63.3585L121.006 54.6795C121.016 52.381 120.149 50.2425 118.567 48.657C117.083 47.1702 115.133 46.3523 113.07 46.3472Z" fill="#393939"/>
<path d="M32.0259 45.7334C32.1396 45.7349 32.2519 45.759 32.3562 45.8043C32.4605 45.8495 32.5548 45.915 32.6336 45.9969C32.7124 46.0788 32.7742 46.1756 32.8154 46.2816C32.8565 46.3876 32.8763 46.5007 32.8734 46.6143L32.7599 72.0749C32.7599 72.5633 32.3748 72.9604 31.9045 72.9615C26.9694 72.9796 22.9856 68.8427 23.0089 63.721L23.0475 55.042C23.0702 49.9203 27.0897 45.7544 32.0259 45.7362" fill="white"/>
<path d="M31.8718 73.1251C29.5143 73.1251 27.2879 72.1954 25.5986 70.5044C23.8112 68.7153 22.8332 66.3068 22.8446 63.7207L22.8837 55.0417C22.9064 49.8389 27.0071 45.5919 32.0244 45.5737H32.0278C32.1585 45.5736 32.2878 45.5995 32.4084 45.6498C32.529 45.7002 32.6383 45.774 32.7301 45.867C32.8285 45.9655 32.9062 46.0827 32.9587 46.2117C33.0112 46.3407 33.0374 46.4788 33.0358 46.618L32.9224 72.0786C32.9224 72.6555 32.4635 73.1263 31.9047 73.128L31.8718 73.1251ZM32.0255 45.8971C27.1863 45.9146 23.2332 50.0164 23.2093 55.0406L23.1707 63.7229C23.1594 66.2189 24.1039 68.5446 25.8295 70.2747C27.4569 71.9039 29.6017 72.7995 31.8718 72.7995H31.903C32.2831 72.7995 32.5945 72.4734 32.5962 72.0752L32.7097 46.6146C32.711 46.5184 32.6931 46.4229 32.657 46.3337C32.621 46.2445 32.5675 46.1633 32.4998 46.095C32.4381 46.0324 32.3647 45.9827 32.2836 45.9487C32.2026 45.9147 32.1157 45.8972 32.0278 45.8971H32.0255Z" fill="#393939"/>
<g opacity="0.25">
<path d="M32.7933 65.0119L32.761 72.0753C32.7633 72.3062 32.6746 72.5287 32.5141 72.6948C32.3536 72.8608 32.1342 72.957 31.9033 72.9625C29.3132 72.9704 26.9824 71.8359 25.3578 70.0128C23.8903 68.3677 22.9992 66.1554 23.0094 63.7236L23.0258 60.0654C24.4122 63.2698 27.5241 65.4946 31.1432 65.4821L32.0383 65.4787C32.1946 65.4765 32.3473 65.4319 32.4802 65.3498C32.6132 65.2677 32.7214 65.1511 32.7933 65.0124" fill="#393939"/>
</g>
<path d="M31.8721 73.8698C29.3161 73.8698 26.903 72.8624 25.0724 71.0336C23.1438 69.1049 22.0887 66.5058 22.1012 63.72L22.1398 55.0382C22.1647 49.4281 26.5978 44.8487 32.0224 44.8277C32.252 44.8262 32.4795 44.8706 32.6917 44.9583C32.9038 45.0459 33.0963 45.1751 33.2579 45.3382C33.4259 45.5062 33.5587 45.706 33.6486 45.9259C33.7385 46.1458 33.7837 46.3815 33.7815 46.6191L33.668 72.0796C33.664 73.0632 32.8739 73.867 31.9095 73.8704L31.8721 73.8698ZM31.9657 46.6417C27.5633 46.6934 23.9754 50.4486 23.955 55.0433L23.9164 63.7257C23.9056 66.0236 24.7724 68.1621 26.3556 69.7476C27.8378 71.231 29.788 72.0489 31.8511 72.0546L31.9657 46.6417Z" fill="#393939"/>
<path d="M114.161 62.1268C112.416 86.0342 92.3347 104.103 69.3071 102.489C46.2795 100.875 29.0265 80.1824 30.7714 56.275C32.5163 32.3676 52.5976 14.2984 75.6251 15.9128C98.6527 17.5272 115.906 38.2194 114.161 62.1268Z" fill="white"/>
<path d="M72.155 102.752C71.2065 102.752 70.2552 102.719 69.296 102.651C58.411 101.887 48.4149 96.8485 41.1496 88.4628C33.4826 79.6137 29.7393 68.1785 30.6089 56.2628C32.3572 32.3043 52.557 14.1313 75.6368 15.7496C86.5212 16.5137 96.5173 21.5526 103.783 29.9383C111.45 38.7874 115.193 50.2227 114.324 62.1384C112.649 85.1013 94.0202 102.752 72.155 102.752ZM72.7789 15.9754C51.081 15.9754 32.5982 33.4938 30.9351 56.2866C30.0723 68.1155 33.7872 79.4668 41.3969 88.2495C48.6055 96.5694 58.5222 101.569 69.3198 102.326C92.2243 103.932 112.264 85.8949 113.999 62.1145C114.863 50.2856 111.147 38.9344 103.538 30.1522C96.3295 21.8317 86.4128 16.8325 75.6152 16.0747C74.6645 16.0081 73.7187 15.9748 72.7778 15.9748L72.7789 15.9754Z" fill="#393939"/>
<path d="M114.198 56.1062C114.322 58.1117 114.309 60.1232 114.162 62.127C112.414 86.0332 92.3332 104.104 69.3061 102.49C46.2791 100.877 29.0273 80.1815 30.7699 56.2747C30.8192 55.5871 30.8833 54.9002 30.9662 54.2246C32.2396 75.4965 48.471 92.9401 69.5393 94.4195C91.9038 95.9874 111.486 78.9902 114.198 56.1062" fill="#D8D8D8"/>
<path d="M72.1548 103.497C71.1901 103.497 70.2195 103.462 69.2431 103.394C58.1602 102.616 47.9825 97.4867 40.5861 88.9501C32.7892 79.9512 28.9819 68.3231 29.8651 56.2083C31.6434 31.8415 52.1966 13.3598 75.6877 15.0071C86.7712 15.7848 96.9483 20.9145 104.345 29.4505C112.142 38.45 115.949 50.078 115.066 62.1928C113.362 85.5466 94.4075 103.497 72.1548 103.497ZM72.7788 16.7202C51.466 16.7202 33.3117 33.938 31.6769 56.3405C30.826 67.9692 34.4797 79.1293 41.9589 87.7617C49.037 95.9301 58.7722 100.84 69.3713 101.583C91.8645 103.165 111.551 85.432 113.256 62.0607C114.107 50.432 110.453 39.2713 102.974 30.6395C95.896 22.4699 86.158 17.5632 75.5617 16.8178C74.6297 16.752 73.6994 16.7202 72.7782 16.7202H72.7788Z" fill="#393939"/>
<path d="M113.946 63.2268C113.451 71.705 110.34 79.4326 105.426 85.6985C101.742 90.3959 87.2691 98.178 70.0042 97.4026C53.9958 96.681 39.9552 87.0332 36.841 81.9654C32.5467 74.9998 30.5035 66.88 30.9898 58.7115C32.299 36.275 51.4109 27.984 74.3205 29.2308C97.23 30.4777 115.258 40.792 113.946 63.2268Z" fill="#393939"/>
<g opacity="0.35">
<path d="M107.101 41.8586C111.878 47.1573 114.471 54.2162 113.946 63.2276C113.451 71.708 110.339 79.4345 105.428 85.701C101.74 90.3984 87.2682 98.1805 70.0033 97.4062C63.9071 97.1334 58.0984 95.5638 53.0669 93.4434C74.3133 93.9278 91.948 84.3673 96.5184 78.54C102.758 70.5877 106.704 60.7793 107.33 50.0203C107.499 47.2984 107.423 44.5669 107.103 41.8586" fill="#171717"/>
</g>
<path d="M111.524 44.2656C111.289 44.2664 111.062 44.1745 110.894 44.0098L110.811 43.9287L110.746 43.8249C104.285 33.1628 91.0019 26.526 74.3026 25.6184C57.5062 24.7057 43.5337 30.0509 35.9677 40.2858L35.911 40.3533C35.7539 40.5299 35.5341 40.6383 35.2983 40.6554C35.0626 40.6724 34.8295 40.5969 34.6486 40.4447C34.4677 40.2926 34.3533 40.0758 34.3297 39.8407C34.3061 39.6055 34.3753 39.3704 34.5223 39.1853C42.4639 28.4643 56.9929 22.8581 74.4001 23.806C91.7013 24.7476 105.507 31.6942 112.287 42.8657C112.376 43.0028 112.426 43.1613 112.432 43.3244C112.438 43.4875 112.4 43.6493 112.322 43.7926C112.244 43.9359 112.128 44.0555 111.988 44.1387C111.847 44.222 111.687 44.2658 111.524 44.2656Z" fill="#393939"/>
<g opacity="0.5">
<path d="M42.0417 72.5686C42.0417 72.5686 37.0312 51.7017 48.168 44.1011C59.3049 36.5005 74.6349 37.3678 74.2168 38.3719C74.2168 38.3719 56.9922 41.7141 49.5374 55.2839C43.7883 65.748 42.0429 72.5715 42.0429 72.5715" fill="white"/>
</g>
<path d="M144.882 148.538C144.882 154.8 115.444 161.745 73.3809 161.745C31.3175 161.745 1.87769 154.8 1.87769 148.538H144.882Z" fill="#E3B700"/>
<path d="M144.882 149.445H1.87757C1.63686 149.445 1.40601 149.349 1.2358 149.179C1.0656 149.009 0.969971 148.778 0.969971 148.537C0.969971 148.297 1.0656 148.066 1.2358 147.896C1.40601 147.726 1.63686 147.63 1.87757 147.63H144.882C145.122 147.63 145.353 147.726 145.524 147.896C145.694 148.066 145.789 148.297 145.789 148.537C145.789 148.778 145.694 149.009 145.524 149.179C145.353 149.349 145.122 149.445 144.882 149.445Z" fill="#393939"/>
<path d="M112.894 143.157C112.894 143.157 111.282 145.823 108.066 147.174C99.3551 149.828 89.9188 147.515 86.1307 147.944C84.1953 148.114 82.772 147.424 81.9552 146.217C80.6255 144.244 81.0209 142.395 82.2541 139.601C82.4243 139.218 82.6081 138.82 82.8061 138.401C86.4041 131.904 99.717 130.674 108.843 134.673C109.194 134.826 109.537 134.988 109.875 135.157L112.894 143.157Z" fill="white"/>
<path d="M112.894 143.157C112.894 143.157 111.282 145.823 108.066 147.174C99.3551 149.828 89.9188 147.515 86.1307 147.944C84.1953 148.114 82.772 147.424 81.9552 146.217C80.6255 144.244 81.0209 142.395 82.2541 139.601C82.8446 141.547 84.5436 144.047 89.4401 140.979C95.5721 145.634 110.506 143.415 108.84 134.673C109.191 134.826 109.534 134.988 109.872 135.157L112.894 143.157Z" fill="#D8D8D8"/>
<path d="M109.67 135.563C108.382 135.199 107.137 134.83 105.875 134.506C104.613 134.181 103.35 133.872 102.06 133.681C99.4841 133.282 96.8668 133.227 94.2766 133.517C92.9959 133.662 91.7296 133.915 90.4913 134.272C89.2678 134.636 88.0765 135.097 87.0022 135.721C86.7401 135.885 86.4656 136.034 86.2216 136.218C86.0968 136.307 85.9686 136.392 85.8461 136.484L85.4933 136.771C85.4366 136.819 85.3742 136.865 85.3174 136.915L85.1541 137.07L84.8285 137.38C84.6367 137.607 84.4178 137.813 84.2533 138.057C84.1687 138.174 84.0701 138.291 83.9952 138.408L83.7779 138.761C83.7008 138.864 83.6406 139.028 83.5731 139.166L83.374 139.601C83.1012 140.2 82.8499 140.796 82.6366 141.386C82.4233 141.976 82.2594 142.559 82.1941 143.111C82.1289 143.662 82.1618 144.173 82.3172 144.658C82.3677 144.777 82.4018 144.9 82.4596 145.02C82.5175 145.139 82.5674 145.26 82.6445 145.376C82.7699 145.601 82.9211 145.81 83.0949 146C83.4366 146.364 83.8691 146.631 84.348 146.774C84.8347 146.931 85.4025 146.974 85.9533 146.936L86.478 146.903C86.6607 146.894 86.8501 146.873 87.0249 146.879C87.3777 146.885 87.7441 146.873 88.0851 146.895C89.4748 146.952 90.8141 147.078 92.1489 147.182C94.8149 147.399 97.4572 147.567 100.085 147.47C102.712 147.372 105.311 147.028 107.799 146.3L107.711 146.332C108.156 146.142 108.589 145.924 109.007 145.679C109.432 145.435 109.842 145.167 110.237 144.876C110.637 144.587 111.031 144.278 111.406 143.946C111.782 143.615 112.16 143.257 112.504 142.919L112.536 142.887C112.612 142.812 112.71 142.766 112.816 142.756C112.921 142.747 113.027 142.774 113.114 142.833C113.202 142.892 113.267 142.98 113.297 143.081C113.327 143.182 113.321 143.291 113.281 143.389C113.055 143.916 112.767 144.414 112.422 144.872C112.086 145.33 111.709 145.755 111.294 146.143C110.878 146.537 110.426 146.891 109.945 147.201C109.466 147.522 108.945 147.777 108.418 148.015L108.384 148.031L108.327 148.047C105.661 148.861 102.902 149.251 100.159 149.387C97.4158 149.524 94.6799 149.382 91.9906 149.183C90.6462 149.084 89.308 148.965 88.0119 148.919C87.6823 148.899 87.3766 148.914 87.0572 148.909C86.8961 148.903 86.7514 148.925 86.5983 148.931L86.1173 148.963C85.331 149.02 84.5341 148.972 83.7348 148.724C82.9188 148.48 82.1812 148.026 81.5957 147.408C81.4489 147.254 81.3132 147.09 81.1895 146.917C81.1283 146.835 81.0715 146.75 81.0194 146.662L80.8634 146.409C80.7562 146.244 80.6756 146.051 80.5826 145.873C80.4895 145.694 80.4289 145.49 80.3557 145.298C80.0896 144.504 80.0465 143.64 80.1475 142.862C80.2485 142.085 80.4623 141.365 80.7051 140.692C80.9479 140.019 81.2264 139.378 81.5129 138.757L81.7358 138.276C81.8169 138.113 81.8725 137.958 81.9877 137.785L82.3002 137.279C82.4069 137.115 82.5271 136.974 82.6377 136.82C82.8567 136.509 83.1244 136.248 83.3752 135.966C83.5073 135.835 83.6446 135.71 83.779 135.582L83.9833 135.392C84.0525 135.331 84.1256 135.275 84.1965 135.217L84.6277 134.871C84.7751 134.762 84.9266 134.661 85.0758 134.556C85.3719 134.339 85.6884 134.165 85.9976 133.976C87.2529 133.255 88.5893 132.746 89.9439 132.364C91.2931 131.991 92.671 131.733 94.0633 131.591C96.8252 131.313 99.6117 131.403 102.35 131.86C103.711 132.093 105.073 132.383 106.383 132.844C107.694 133.304 108.958 133.914 110.075 134.752C110.161 134.817 110.222 134.909 110.247 135.014C110.272 135.119 110.259 135.229 110.212 135.325C110.164 135.421 110.084 135.498 109.986 135.542C109.888 135.586 109.778 135.594 109.674 135.565L109.67 135.563Z" fill="#393939"/>
<path d="M33.9028 135.158C43.0197 130.588 57.2327 131.655 60.9715 138.402C62.6165 141.89 63.3312 143.976 61.8224 146.216C61.0072 147.423 59.5817 148.115 57.6462 147.945C53.8587 147.516 44.4236 149.828 35.7123 147.175C32.4971 145.822 30.885 143.156 30.885 143.156" fill="white"/>
<path d="M30.8816 143.157C30.8816 143.157 32.4943 145.823 35.7106 147.174C44.4208 149.828 53.857 147.515 57.6451 147.944C59.5806 148.114 61.0038 147.424 61.8206 146.217C63.1503 144.244 62.7549 142.395 61.5217 139.601C60.9312 141.547 59.2323 144.047 54.3357 140.979C48.2038 145.634 33.2697 143.415 34.9357 134.673C34.5844 134.827 34.2401 134.988 33.9028 135.157L30.8816 143.157Z" fill="#D8D8D8"/>
<path d="M33.6996 134.752C34.8171 133.914 36.0821 133.306 37.3913 132.843C38.7005 132.38 40.0619 132.093 41.425 131.86C44.163 131.403 46.9496 131.313 49.7114 131.591C51.1038 131.733 52.4817 131.991 53.8308 132.364C55.1854 132.746 56.5218 133.255 57.7766 133.976C58.0863 134.165 58.4006 134.339 58.6989 134.556C58.8481 134.661 58.9996 134.762 59.1471 134.871L59.5776 135.217C59.6491 135.273 59.7223 135.33 59.7915 135.392L59.9951 135.582C60.1301 135.71 60.2674 135.835 60.3996 135.966C60.648 136.25 60.9158 136.509 61.1342 136.82C61.2476 136.973 61.3656 137.115 61.4745 137.279L61.7871 137.785C61.9005 137.958 61.9572 138.113 62.0389 138.276L62.2613 138.756C62.5483 139.38 62.8234 140.019 63.0696 140.692C63.3158 141.365 63.5285 142.079 63.6272 142.862C63.7259 143.645 63.6839 144.504 63.4185 145.298C63.3442 145.49 63.2784 145.689 63.1916 145.873C63.1048 146.056 63.018 146.244 62.9079 146.409L62.7514 146.662C62.6995 146.75 62.6427 146.835 62.5812 146.917C62.4576 147.09 62.3218 147.254 62.1751 147.407C61.5896 148.026 60.8519 148.48 60.036 148.724C59.2418 148.971 58.442 149.022 57.6535 148.963L57.173 148.931C57.0199 148.924 56.8752 148.903 56.7136 148.909C56.3948 148.914 56.0896 148.899 55.7594 148.919C54.4627 148.965 53.1251 149.084 51.7807 149.183C49.0908 149.382 46.3561 149.518 43.6123 149.387C40.8685 149.256 38.11 148.861 35.4439 148.047L35.3872 148.03L35.3537 148.015C34.8267 147.777 34.3048 147.522 33.8267 147.201C33.3451 146.891 32.8933 146.537 32.4772 146.143C32.0625 145.755 31.6849 145.329 31.3495 144.871C31.0048 144.414 30.7168 143.917 30.4918 143.39C30.4513 143.293 30.4458 143.184 30.4761 143.083C30.5065 142.982 30.5709 142.894 30.6584 142.835C30.746 142.776 30.8512 142.749 30.9564 142.759C31.0615 142.768 31.1601 142.814 31.2355 142.888L31.2683 142.921C31.6121 143.261 31.9882 143.624 32.366 143.948C32.7438 144.272 33.1352 144.589 33.5357 144.878C33.93 145.168 34.3406 145.437 34.7655 145.681C35.1834 145.925 35.6161 146.143 36.0611 146.334L35.9731 146.302C38.4617 147.03 41.0665 147.371 43.6878 147.472C46.309 147.572 48.9581 147.4 51.6236 147.183C52.9584 147.08 54.2976 146.952 55.6868 146.896C56.0272 146.874 56.3948 146.886 56.747 146.881C56.9223 146.874 57.1118 146.896 57.2939 146.904L57.8191 146.937C58.3699 146.976 58.9378 146.932 59.4245 146.775C59.9033 146.633 60.3357 146.366 60.6775 146.001C60.8512 145.811 61.0023 145.602 61.1279 145.377C61.2051 145.261 61.2482 145.138 61.3128 145.021C61.3775 144.904 61.4047 144.779 61.4552 144.66C61.6106 144.174 61.6435 143.665 61.5783 143.112C61.5131 142.56 61.3469 141.978 61.1359 141.388C60.9248 140.798 60.6718 140.202 60.3984 139.602L60.1999 139.167C60.1324 139.029 60.0723 138.866 59.9945 138.762L59.7773 138.41C59.703 138.292 59.6071 138.175 59.5192 138.058C59.3547 137.815 59.1363 137.608 58.9446 137.382L58.619 137.072L58.4556 136.916C58.3989 136.866 58.3382 136.82 58.2797 136.772L57.9269 136.485C57.8044 136.394 57.6762 136.309 57.5514 136.22C57.3075 136.036 57.0329 135.887 56.7709 135.723C55.6965 135.099 54.5053 134.638 53.2811 134.274C52.043 133.917 50.7769 133.664 49.4964 133.519C46.9062 133.228 44.2889 133.283 41.7132 133.682C40.4227 133.874 39.1566 134.181 37.8978 134.507C36.6391 134.833 35.3906 135.201 34.1035 135.565H34.0989C33.9954 135.594 33.885 135.586 33.7868 135.542C33.6886 135.499 33.6087 135.422 33.561 135.326C33.5133 135.229 33.5008 135.119 33.5256 135.015C33.5504 134.91 33.6109 134.817 33.6968 134.753" fill="#393939"/>
<path d="M126.104 63.446C126.104 30.2499 102.109 3.33887 72.5158 3.33887C42.9222 3.33887 18.9275 30.2499 18.9275 63.446H24.0044C24.0044 33.3953 45.7239 9.03351 72.5158 9.03351C99.3076 9.03351 121.027 33.3953 121.027 63.446" fill="#CCCCCC"/>
<path d="M126.104 63.4472H121.028C121.028 33.3953 99.3065 9.03413 72.5146 9.03413C45.7228 9.03413 24.0038 33.3953 24.0038 63.4472H18.9275C18.9275 62.2336 18.9594 61.029 19.0234 59.8332H24.0038C24.0038 29.7814 45.725 5.42017 72.5146 5.42017C99.3042 5.42017 121.028 29.7814 121.028 59.8332H126.008C126.071 61.0294 126.103 62.234 126.104 63.4472Z" fill="#AAAAAA"/>
<path d="M126.104 64.3542C125.863 64.3542 125.632 64.2586 125.462 64.0884C125.292 63.9182 125.196 63.6873 125.196 63.4466C125.196 30.8041 101.564 4.24766 72.5156 4.24766C43.7367 4.24766 20.2718 30.3129 19.8412 62.539H23.1035C23.5386 32.4531 45.5372 8.12653 72.5156 8.12653C99.7653 8.12653 121.935 32.9432 121.935 63.4466C121.935 63.6873 121.839 63.9182 121.669 64.0884C121.499 64.2586 121.268 64.3542 121.027 64.3542C120.786 64.3542 120.555 64.2586 120.385 64.0884C120.215 63.9182 120.119 63.6873 120.119 63.4466C120.119 33.9439 98.7646 9.94173 72.5162 9.94173C46.2678 9.94173 24.9125 33.9439 24.9125 63.4466V64.3542H18.0198V63.4466C18.0198 29.8035 42.4683 2.43188 72.5156 2.43188C87.094 2.43188 100.79 8.79248 111.085 20.3406C121.353 31.8598 127.012 47.1716 127.012 63.4466C127.012 63.6873 126.916 63.9182 126.746 64.0884C126.575 64.2586 126.345 64.3542 126.104 64.3542Z" fill="#393939"/>
<path d="M95.7836 97.0739H86.6452C85.9572 97.0718 85.298 96.7976 84.8115 96.3112C84.3249 95.8248 84.0506 95.1656 84.0483 94.4776V91.8427C84.0504 91.1546 84.3247 90.4953 84.8113 90.0088C85.2978 89.5222 85.9571 89.2479 86.6452 89.2458H95.7836C96.4718 89.2478 97.1312 89.522 97.6178 90.0086C98.1043 90.4952 98.3786 91.1546 98.3805 91.8427V94.4776C98.3784 95.1656 98.1041 95.8249 97.6176 96.3114C97.131 96.7978 96.4717 97.072 95.7836 97.0739Z" fill="#7DBCF9"/>
<path d="M98.3818 92.1296V94.1904C98.3794 94.9551 98.0744 95.6876 97.5335 96.228C96.9926 96.7684 96.2597 97.0727 95.4951 97.0743H86.9341C86.1695 97.0727 85.4366 96.7684 84.8957 96.228C84.3548 95.6876 84.0498 94.9551 84.0474 94.1904V92.1296C84.0471 91.9669 84.061 91.8044 84.0888 91.644C84.2069 92.3135 84.5566 92.9202 85.0767 93.358C85.5968 93.7958 86.2543 94.0368 86.9341 94.039H95.4951C96.1749 94.0369 96.8324 93.7959 97.3526 93.3581C97.8727 92.9203 98.2224 92.3136 98.3404 91.644C98.3682 91.8044 98.3821 91.9669 98.3818 92.1296Z" fill="#488BC4"/>
<path d="M98.3807 94.0672C98.14 94.0672 97.9092 93.9716 97.739 93.8014C97.5688 93.6312 97.4731 93.4004 97.4731 93.1596C97.4731 92.9189 97.5688 92.6881 97.739 92.5179C97.9092 92.3477 98.14 92.252 98.3807 92.252C110.773 92.252 120.854 84.2379 120.854 74.3876C120.854 74.1469 120.95 73.916 121.12 73.7458C121.29 73.5756 121.521 73.48 121.762 73.48C122.002 73.48 122.233 73.5756 122.403 73.7458C122.574 73.916 122.669 74.1469 122.669 74.3876C122.67 85.2391 111.774 94.0672 98.3807 94.0672Z" fill="#393939"/>
<path d="M26.0207 46.72L25.0173 73.7818C24.9727 74.9854 25.4081 76.1574 26.2277 77.0399C27.0472 77.9224 28.1838 78.4432 29.3874 78.4878C30.5909 78.5323 31.7629 78.0969 32.6454 77.2773C33.5279 76.4578 34.0488 75.3212 34.0933 74.1177L35.0962 47.0564C35.1457 45.9018 34.753 44.7718 33.998 43.8969C33.2429 43.022 32.1826 42.4681 31.0332 42.3482C29.8838 42.2283 28.732 42.5514 27.8126 43.2517C26.8933 43.9519 26.2758 44.9765 26.086 46.1164C26.0497 46.3159 26.028 46.5179 26.0213 46.7205" fill="#CCCCCC"/>
<path d="M15.6843 54.775L15.3082 64.9855C15.1244 69.9512 19.0351 74.1636 24.0008 74.3452L25.0377 74.3837C25.018 74.1824 25.0119 73.98 25.0196 73.7779L26.0208 46.72C26.0275 46.5173 26.0491 46.3154 26.0854 46.1159L25.0468 46.0773C20.0811 45.8929 15.8687 49.8064 15.6872 54.7721" fill="#7DBCF9"/>
<path d="M119.098 46.72L120.101 73.7819C120.108 73.9838 120.102 74.186 120.083 74.3871C119.979 75.5388 119.439 76.6074 118.574 77.3747C117.709 78.142 116.584 78.5501 115.428 78.5157C114.272 78.4813 113.173 78.007 112.355 77.1896C111.537 76.3723 111.062 75.2735 111.027 74.1177L110.024 47.0564C109.978 45.9039 110.372 44.7771 111.127 43.905C111.882 43.0328 112.94 42.4807 114.087 42.361C115.234 42.2412 116.384 42.5627 117.303 43.2602C118.221 43.9576 118.84 44.9787 119.033 46.1158C119.069 46.3154 119.091 46.5173 119.098 46.72Z" fill="#CCCCCC"/>
<path d="M120.084 74.387C120.07 74.5215 120.051 74.6559 120.027 74.7875L119.099 49.749C119.091 49.5466 119.069 49.3449 119.034 49.1455C118.845 48.0635 118.271 47.0863 117.419 46.3943C116.566 45.7023 115.491 45.3423 114.394 45.3806C112.242 45.46 110.484 47.0461 110.099 49.0848L110.025 47.0568C109.979 45.9043 110.373 44.7774 111.128 43.9051C111.882 43.0328 112.941 42.4806 114.088 42.3608C115.235 42.2409 116.385 42.5624 117.304 43.2599C118.222 43.9574 118.841 44.9786 119.034 46.1158C119.069 46.3152 119.091 46.5169 119.099 46.7193L120.101 73.7835C120.109 73.9848 120.104 74.1865 120.084 74.387" fill="white"/>
<path d="M120.084 74.3871C119.974 75.4801 119.473 76.4968 118.674 77.25C117.874 78.0032 116.83 78.4424 115.732 78.4867C113.236 78.5769 111.12 76.6147 111.024 74.1188L110.023 47.0575C110.001 46.5089 110.081 45.961 110.258 45.4414L111.024 66.0894C111.055 66.934 112.058 68.1247 113.288 67.2239C115.027 65.9481 114.706 61.4861 115.364 61.4317C116.023 61.3772 115.775 64.9486 117.265 66.9232C118.315 68.317 119.633 68.0464 119.862 67.377L120.098 73.787C120.107 73.9883 120.101 74.19 120.082 74.3905" fill="#AAAAAA"/>
<path d="M129.434 54.775L129.812 64.9895C129.996 69.9552 126.085 74.1676 121.119 74.3491L120.082 74.3877C120.102 74.1864 120.108 73.984 120.101 73.7819L119.098 46.72C119.09 46.5173 119.069 46.3154 119.032 46.1159L120.071 46.0773C125.037 45.8929 129.249 49.8064 129.434 54.7721" fill="#7DBCF9"/>
<path d="M129.811 64.9856C129.828 65.4382 129.811 65.8914 129.759 66.3414L129.432 57.5387C129.249 52.5719 125.037 48.659 120.07 48.8428L119.178 48.8757L119.099 46.7201C119.09 46.5177 119.068 46.316 119.033 46.1166L120.07 46.078C125.037 45.8942 129.249 49.8077 129.432 54.774L129.811 64.9856Z" fill="white"/>
<path d="M24.8495 74.387C24.8636 74.5215 24.8829 74.6559 24.9062 74.7875L25.8336 49.749C25.8414 49.5465 25.8634 49.3449 25.8994 49.1455C26.0881 48.0635 26.6618 47.0863 27.5146 46.3943C28.3675 45.7023 29.4419 45.3423 30.5396 45.3806C32.6906 45.46 34.4496 47.0461 34.8337 49.0848L34.908 47.0568C34.9544 45.9043 34.5602 44.7774 33.8055 43.9051C33.0509 43.0328 31.9923 42.4806 30.8451 42.3608C29.6979 42.2409 28.5481 42.5624 27.6295 43.2599C26.7108 43.9574 26.0922 44.9786 25.8994 46.1158C25.8634 46.3152 25.8414 46.5169 25.8336 46.7193L24.8319 73.7835C24.824 73.9848 24.8295 74.1864 24.8483 74.387" fill="white"/>
<path d="M15.1224 64.9856C15.1052 65.4382 15.1226 65.8914 15.1745 66.3414L15.5013 57.5387C15.6851 52.5719 19.8969 48.659 24.8609 48.8428L25.7526 48.8757L25.8321 46.7201C25.8398 46.5176 25.8618 46.316 25.8979 46.1166L24.8609 46.078C19.8941 45.8942 15.6822 49.8077 15.5013 54.774L15.1224 64.9856Z" fill="white"/>
<path d="M121.118 74.3486L120.084 74.3872C120.103 74.1866 120.108 73.9849 120.1 73.7836L119.099 46.72C119.091 46.5176 119.069 46.3159 119.033 46.1165L119.326 46.1057L120.1 67.001C120.108 67.2069 120.244 62.2043 120.225 62.4063C120.225 62.4063 121.314 67.2846 124.422 66.9857C126.602 66.7769 128.829 64.3196 129.636 60.3244L129.806 64.989C129.99 69.9558 126.08 74.1677 121.113 74.3486" fill="#488BC4"/>
<path d="M24.8494 74.3859C25.0661 76.6084 26.9102 78.4004 29.2014 78.4855C31.6973 78.5762 33.8143 76.6135 33.9096 74.1176L34.9113 47.0597C34.9331 46.5111 34.8531 45.9631 34.6753 45.4436L33.9096 66.0916C33.8659 67.2601 31.9316 67.2329 31.3785 66.454C30.4096 65.0926 30.7755 61.4747 30.1487 61.4747C29.5219 61.4747 29.7374 65.7166 28.2433 67.1308C27.279 68.0452 25.2936 68.0384 25.0712 67.3758L24.8352 73.7858C24.827 73.9871 24.8325 74.1887 24.8517 74.3893" fill="#AAAAAA"/>
<path d="M23.8172 74.3452L24.8513 74.3838C24.8322 74.1832 24.8267 73.9815 24.8349 73.7802L25.8349 46.72C25.843 46.5176 25.865 46.3159 25.9007 46.1165L25.6069 46.1057L24.8332 67.001C24.8252 67.2069 24.6896 62.2043 24.7089 62.4063C24.7089 62.4063 23.6187 67.2846 20.5113 66.9857C18.3319 66.7769 16.1049 64.3196 15.2982 60.3244L15.128 64.989C14.9443 69.9558 18.8543 74.1677 23.8212 74.3486" fill="#488BC4"/>
<path d="M115.56 79.3937C114.152 79.3896 112.8 78.8418 111.787 77.8646C110.773 76.8874 110.176 75.5563 110.121 74.1494L109.117 47.0881C109.062 45.7055 109.536 44.3539 110.442 43.3079C111.347 42.2619 112.617 41.5999 113.994 41.4564C115.37 41.3129 116.749 41.6987 117.851 42.5353C118.953 43.372 119.696 44.5968 119.927 45.961C119.971 46.1999 119.997 46.4416 120.005 46.6842L121.008 73.7455C121.035 74.4605 120.921 75.1737 120.672 75.8446C120.424 76.5154 120.045 77.1307 119.559 77.6552C119.072 78.1797 118.487 78.6032 117.837 78.9015C117.186 79.1998 116.484 79.3671 115.769 79.3937C115.697 79.3937 115.629 79.3937 115.56 79.3937ZM114.562 43.2541C114.517 43.2541 114.471 43.2541 114.426 43.2541C113.464 43.291 112.555 43.708 111.9 44.4136C111.245 45.1193 110.896 46.056 110.931 47.0183L111.934 74.0796C111.974 75.0408 112.391 75.9474 113.097 76.6018C113.802 77.2562 114.737 77.6055 115.698 77.5734C116.576 77.5382 117.412 77.1871 118.052 76.5847C118.691 75.9822 119.092 75.169 119.18 74.2946C119.195 74.1337 119.2 73.9718 119.194 73.8102L118.191 46.7523C118.185 46.5934 118.169 46.4351 118.14 46.2786C118.004 45.4919 117.613 44.7716 117.029 44.228C116.359 43.6027 115.477 43.2553 114.562 43.2563V43.2541Z" fill="#393939"/>
<path d="M119.079 75.3328L119.18 74.2993C119.195 74.1385 119.2 73.9768 119.194 73.8154L118.191 46.7547C118.185 46.5958 118.168 46.4375 118.14 46.281L117.95 45.2486L120.038 45.1709C122.671 45.0807 125.233 46.0365 127.163 47.8294C129.094 49.6224 130.236 52.1066 130.341 54.7393L130.719 64.9532C130.81 67.5862 129.855 70.1482 128.062 72.0789C126.27 74.0096 123.785 75.1519 121.153 75.2562L119.079 75.3328ZM120.016 46.9884L120.996 73.4456L121.086 73.4422C123.237 73.3556 125.267 72.4214 126.732 70.8436C128.197 69.2658 128.978 67.1725 128.905 65.0207L128.527 54.8062C128.44 52.6547 127.506 50.6248 125.928 49.1595C124.35 47.6942 122.257 46.9125 120.105 46.985L120.016 46.9884Z" fill="#393939"/>
<path d="M97.4231 21.1067C81.7187 11.8191 64.9956 11.818 49.2895 21.1067C47.7511 22.0869 45.8696 21.5957 45.0675 19.882L42.6339 14.6815C41.8319 12.9678 42.6453 10.4719 44.4906 9.29654C63.2167 -1.89023 83.4942 -1.8908 102.222 9.29654C104.067 10.4719 104.88 12.9678 104.078 14.6815L101.644 19.882C100.842 21.5957 98.9609 22.0869 97.4225 21.1067" fill="#7DBCF9"/>
<g opacity="0.6">
<path d="M104.119 14.5855C103.782 13.6211 103.126 12.7277 102.224 12.1514C83.4931 0.964054 63.2149 0.964054 44.49 12.1514C43.5875 12.7277 42.9317 13.6194 42.5914 14.5826C41.8613 12.8758 42.6816 10.4502 44.49 9.29755C63.2149 -1.88922 83.4931 -1.88922 102.224 9.29755C104.034 10.4502 104.85 12.8786 104.119 14.5855Z" fill="white"/>
<path d="M88.2568 6.99483C88.0435 8.55704 85.627 9.51627 82.8606 9.13734C80.0941 8.75842 78.0247 7.18543 78.2391 5.62038C78.4536 4.05533 80.8689 3.09895 83.6354 3.47787C86.4019 3.8568 88.4712 5.42978 88.2568 6.99483Z" fill="white"/>
</g>
<path d="M104.078 14.6808C103.104 16.7609 102.619 17.8007 101.645 19.8808C100.843 21.5956 98.961 22.0868 97.4243 21.1072C81.7177 11.819 64.9962 11.819 49.2896 21.1072C47.7501 22.0868 45.8708 21.5956 45.0664 19.8808C44.0953 17.8007 43.6069 16.7609 42.6357 14.6808C42.1303 13.603 42.2647 12.2138 42.8933 11.0396C43.6999 12.768 44.1855 13.7999 45.0664 15.6877C45.8708 17.403 47.7501 17.8937 49.2896 16.9146C64.9962 7.62306 81.7177 7.6259 97.4243 16.9146C98.961 17.8937 100.843 17.403 101.645 15.6877C102.528 13.8027 103.006 12.7709 103.818 11.0453C104.449 12.2167 104.583 13.6053 104.078 14.6808Z" fill="#488BC4"/>
<path d="M99.0637 22.5154C98.3128 22.5092 97.5793 22.2892 96.9489 21.8812C81.5135 12.7575 65.1993 12.7575 49.7632 21.8812C48.7847 22.5 47.6707 22.6753 46.6263 22.3696C45.582 22.0638 44.7385 21.3196 44.2439 20.2668L41.8121 15.0673C40.808 12.9214 41.8121 9.92861 44.0028 8.5326C53.4873 2.86632 63.3552 0 73.3552 0C83.3553 0 93.2249 2.86575 102.687 8.51842C104.9 9.92861 105.905 12.9214 104.9 15.0673L102.465 20.2679C101.973 21.3207 101.127 22.0678 100.083 22.3707C99.7517 22.4667 99.4086 22.5154 99.0637 22.5154ZM73.3558 13.2079C81.6088 13.2079 89.8628 15.5807 97.8849 20.3258L97.911 20.3416C98.4465 20.682 99.0393 20.7841 99.5799 20.6253C100.12 20.4664 100.554 20.0694 100.823 19.4964L103.256 14.2959C103.884 12.956 103.172 10.9769 101.734 10.0608C83.4421 -0.866195 63.2695 -0.866195 44.9558 10.0744C43.5377 10.9769 42.8292 12.956 43.456 14.2959L45.8895 19.4964C46.1578 20.0694 46.5991 20.4704 47.1329 20.6253C47.6667 20.7801 48.2674 20.682 48.8018 20.3416L48.8273 20.3258C56.8505 15.5807 65.1034 13.2079 73.3558 13.2079Z" fill="#393939"/>
<g opacity="0.7">
<path d="M98.3816 92.1298V93.8553C98.3792 93.0907 98.0742 92.3582 97.5333 91.8178C96.9924 91.2774 96.2595 90.9731 95.4949 90.9714H94.2129C94.5533 91.1252 94.7563 91.3146 94.7563 91.5177C94.7563 92.0282 93.5186 92.4395 91.9904 92.4395C90.4622 92.4395 89.2245 92.0282 89.2245 91.5177C89.2245 91.3146 89.4276 91.1252 89.7679 90.9714H86.9317C86.167 90.9731 85.4342 91.2774 84.8933 91.8178C84.3523 92.3582 84.0473 93.0907 84.0449 93.8553V92.1298C84.0473 91.3651 84.3523 90.6326 84.8933 90.0922C85.4342 89.5518 86.167 89.2475 86.9317 89.2458H95.4949C96.2595 89.2475 96.9924 89.5518 97.5333 90.0922C98.0742 90.6326 98.3792 91.3651 98.3816 92.1298Z" fill="white"/>
</g>
<path d="M95.7835 97.982H86.6451C85.716 97.9808 84.8253 97.6112 84.1684 96.9542C83.5114 96.2973 83.1418 95.4066 83.1406 94.4775V91.8426C83.1417 90.9135 83.5112 90.0227 84.1682 89.3657C84.8252 88.7087 85.716 88.3392 86.6451 88.3381H95.7835C96.7127 88.339 97.6035 88.7085 98.2606 89.3656C98.9176 90.0226 99.2871 90.9134 99.288 91.8426V94.4775C99.287 95.4066 98.9174 96.2974 98.2604 96.9544C97.6034 97.6114 96.7126 97.9809 95.7835 97.982ZM86.6451 90.1539C86.1972 90.1544 85.7678 90.3325 85.4511 90.6492C85.1344 90.9659 84.9563 91.3953 84.9558 91.8432V94.4781C84.9564 94.9259 85.1346 95.3551 85.4513 95.6717C85.768 95.9883 86.1973 96.1663 86.6451 96.1668H95.7835C96.2313 96.1663 96.6606 95.9883 96.9773 95.6717C97.294 95.3551 97.4722 94.9259 97.4728 94.4781V91.8432C97.4724 91.3953 97.2942 90.9659 96.9775 90.6492C96.6608 90.3325 96.2314 90.1544 95.7835 90.1539H86.6451Z" fill="#393939"/>
<path d="M29.5577 79.3936C29.4896 79.3936 29.421 79.3936 29.3524 79.3896C28.6376 79.3633 27.9351 79.1965 27.2848 78.8987C26.6345 78.6009 26.0493 78.1779 25.5625 77.6539C25.0757 77.1299 24.6969 76.5151 24.4478 75.8447C24.1986 75.1743 24.084 74.4613 24.1104 73.7466L25.1139 46.6853C25.1223 46.4379 25.1487 46.1914 25.1927 45.9478C25.4267 44.5849 26.1705 43.3619 27.2731 42.5273C28.3758 41.6926 29.7547 41.3087 31.13 41.4535C32.5053 41.5983 33.774 42.2609 34.6787 43.3069C35.5833 44.3529 36.0561 45.7039 36.0011 47.0857L34.9982 74.1476C34.9428 75.5548 34.3458 76.8862 33.3321 77.8638C32.3183 78.8413 30.966 79.3894 29.5577 79.3936ZM30.5567 43.254C29.7023 43.2582 28.8766 43.5623 28.2235 44.1131C27.5704 44.6639 27.1314 45.4264 26.983 46.2678C26.9535 46.4273 26.9361 46.5889 26.9308 46.7511L25.9273 73.8124C25.9212 73.9738 25.9259 74.1355 25.9415 74.2962C26.0059 74.9702 26.2578 75.6127 26.6685 76.151C27.0792 76.6892 27.6325 77.1018 28.2655 77.3418C28.8986 77.5819 29.5862 77.64 30.2506 77.5095C30.915 77.3789 31.5295 77.065 32.0247 76.6033C32.3756 76.2806 32.659 75.8916 32.8585 75.4587C33.058 75.0258 33.1697 74.5576 33.187 74.0813L34.1899 47.0199C34.2235 46.0578 33.8741 45.1216 33.2184 44.4167C32.5627 43.7118 31.6543 43.2957 30.6922 43.2596C30.6468 43.2596 30.6015 43.2562 30.5567 43.2562V43.254Z" fill="#393939"/>
<path d="M26.0401 75.3328L23.9651 75.2562C18.4878 75.0532 14.1959 70.4312 14.399 64.9538L14.7774 54.7393C14.8818 52.1066 16.0242 49.6224 17.9547 47.8294C19.8853 46.0365 22.4472 45.0807 25.0804 45.1709L27.1667 45.2486L26.9784 46.2799C26.9499 46.4365 26.933 46.595 26.9279 46.7541L25.9244 73.816C25.9183 73.977 25.923 74.1383 25.9386 74.2987L26.0401 75.3328ZM16.5914 54.8062L16.2125 65.0207C16.0469 69.4986 19.5548 73.2765 24.0327 73.4422L24.1217 73.4456L25.1025 46.9884L25.0134 46.985C22.8613 46.9124 20.7679 47.694 19.19 49.1593C17.6122 50.6247 16.678 52.6547 16.5914 54.8062Z" fill="#393939"/>
<g opacity="0.5">
<path d="M96.3221 62.1953C95.499 65.6952 96.8094 69.0176 99.2485 69.6155C101.688 70.2134 104.333 67.8615 105.156 64.3616C105.979 60.8617 104.669 57.5398 102.229 56.9414C99.7903 56.3429 97.1452 58.6959 96.3221 62.1953Z" fill="white"/>
</g>
<g opacity="0.5">
<path d="M92.1305 74.9284C91.5428 76.4668 92.0942 78.13 93.3631 78.6422C94.6321 79.1544 96.1358 78.3228 96.7241 76.7845C97.3123 75.2461 96.7598 73.5829 95.4909 73.0701C94.2219 72.5573 92.7176 73.3895 92.1305 74.9284Z" fill="white"/>
</g>
</svg>
