<svg width="114" height="170" viewBox="0 0 114 170" fill="none" xmlns="http://www.w3.org/2000/svg">
<g opacity="0.25">
<path d="M57.5773 169.483C87.6585 169.483 112.044 159.975 112.044 148.246C112.044 136.517 87.6585 127.009 57.5773 127.009C27.4962 127.009 3.1106 136.517 3.1106 148.246C3.1106 159.975 27.4962 169.483 57.5773 169.483Z" fill="#393939"/>
</g>
<path d="M105.644 128.434C104.078 129.885 101.846 130.956 99.3266 131.742C90.4889 134.496 78.0705 133.762 78.0705 133.762L68.8685 74.9664L67.5732 66.7012C68.4736 66.9782 90.009 67.5614 101.599 73.6672C111.27 78.7578 113.262 121.373 105.644 128.434Z" fill="white"/>
<path d="M105.644 128.434C104.078 129.886 101.846 130.956 99.3266 131.742C99.2132 131.777 99.0992 131.812 98.9853 131.845C98.8248 131.894 98.6643 131.94 98.5038 131.985C98.3201 132.038 98.1343 132.089 97.9463 132.137C97.8297 132.167 97.7136 132.197 97.5975 132.23C97.1149 132.349 96.6248 132.461 96.1273 132.568C95.9133 132.613 95.6993 132.657 95.4805 132.7C95.419 132.71 95.3569 132.724 95.2954 132.735C95.1482 132.764 95.0017 132.793 94.8524 132.819C94.8032 132.828 94.7518 132.837 94.7005 132.845C94.456 132.889 94.2109 132.931 93.9643 132.972C93.4728 133.052 92.9806 133.125 92.4877 133.191L92.1196 133.241C91.873 133.272 91.6263 133.303 91.3824 133.331L91.0148 133.374C90.8939 133.388 90.7703 133.399 90.65 133.414C90.3568 133.446 90.0668 133.473 89.779 133.5C89.6378 133.513 89.4992 133.527 89.3579 133.538C88.8269 133.586 88.3033 133.626 87.7872 133.659C87.669 133.668 87.5539 133.674 87.4384 133.681L87.2693 133.691C87.1767 133.699 87.0842 133.703 86.9922 133.708C86.7894 133.72 86.5893 133.731 86.3919 133.741L85.7916 133.768C85.2331 133.792 84.6931 133.81 84.1717 133.822C83.9694 133.829 83.7693 133.833 83.5751 133.834C83.3724 133.841 83.1755 133.842 82.9834 133.844C82.8347 133.847 82.6886 133.848 82.5479 133.848C82.3339 133.851 82.1226 133.848 81.9177 133.851H81.6641C79.4706 133.846 78.0721 133.763 78.0721 133.763L68.8701 74.967C69.6598 75.0178 70.3981 75.075 71.0722 75.1247C73.6621 75.3261 75.326 75.5114 75.326 75.5114C75.326 75.5114 88.4335 73.4739 90.4424 78.3863C93.6695 86.2784 94.839 91.7119 97.7082 103.686C97.9996 104.906 98.2705 106.118 98.5209 107.321C99.1222 110.224 102.625 111.432 104.8 109.439L104.842 109.401C107.426 107.005 108.904 100.513 109.351 92.7822C111.345 106.894 110.251 124.164 105.644 128.434Z" fill="#E5E5E5"/>
<path d="M69.7833 66.9037L71.07 75.1241C70.3959 75.0701 69.6576 75.0161 68.8679 74.9664L67.5732 66.7012C67.7337 66.7503 68.5239 66.8065 69.7833 66.9037Z" fill="#E5E5E5"/>
<path d="M82.0445 134.612C79.7771 134.612 78.2492 134.527 78.0271 134.514C77.8311 134.5 77.6485 134.409 77.5188 134.26C77.3891 134.111 77.3228 133.916 77.3343 133.718C77.3459 133.52 77.4343 133.335 77.5805 133.202C77.7266 133.07 77.9186 133.001 78.1149 133.01C78.3166 133.022 98.3941 134.132 105.139 127.88C109.098 124.212 110.709 108.926 108.735 93.8006C107.372 83.3597 104.577 76.0827 101.258 74.3352C91.7264 69.3159 75.0242 68.055 69.5329 67.6392C68.021 67.5248 67.5754 67.4891 67.3566 67.4232C67.1701 67.3649 67.0137 67.2351 66.921 67.0617C66.8282 66.8883 66.8064 66.6852 66.8603 66.4958C66.9142 66.3064 67.0395 66.1459 67.2092 66.0486C67.379 65.9513 67.5798 65.9251 67.7685 65.9755C67.944 66.0095 68.77 66.0722 69.6442 66.1375C75.2082 66.5576 92.141 67.8358 101.946 72.9987C107.349 75.844 109.527 88.3558 110.212 93.603C112.022 107.466 110.995 124.491 106.146 128.988C100.82 133.929 88.4687 134.612 82.0445 134.612Z" fill="#393939"/>
<path d="M102.946 75.5696C99.2479 75.3957 95.5222 76.0756 91.9939 77.1896C91.4797 77.3516 90.9747 77.5422 90.4622 77.7177C90.9437 77.4736 91.4219 77.2139 91.912 76.9806C95.3895 75.3271 99.1211 74.1121 102.974 73.7719C104.24 73.7498 104.215 75.6333 102.946 75.5723V75.5696Z" fill="#393939"/>
<path d="M110.02 104.313L99.4645 105.78C99.0064 105.843 98.582 106.058 98.258 106.391C97.934 106.724 97.7287 107.156 97.6744 107.619C97.2678 111.111 96.743 119.225 100.234 121.675C103.131 123.709 107.6 123.169 110.09 120.76C112.875 118.064 112.677 110.151 112.39 106.245C112.369 105.958 112.29 105.678 112.158 105.422C112.026 105.167 111.843 104.941 111.62 104.76C111.398 104.579 111.142 104.446 110.866 104.369C110.591 104.292 110.303 104.273 110.02 104.313Z" fill="white"/>
<path d="M97.6755 107.618C97.2668 111.108 96.7435 119.223 100.234 121.672C103.133 123.706 107.6 123.166 110.091 120.756C111.803 119.097 112.387 115.464 112.516 112.008C112.145 113.755 111.48 115.194 110.603 116.17C105.58 121.746 101.211 115.815 101.211 115.815C101.211 115.815 100.611 117.36 100.064 117.479C97.7782 117.979 97.8071 110.657 97.9098 106.87C97.7844 107.101 97.7048 107.355 97.6755 107.618Z" fill="#E5E5E5"/>
<path d="M104.468 123.684C102.794 123.684 101.144 123.229 99.8081 122.291C96.1123 119.699 96.421 111.929 96.9336 107.529C97.0077 106.9 97.2865 106.314 97.7261 105.862C98.1657 105.41 98.7414 105.118 99.363 105.032L109.919 103.564C110.302 103.511 110.693 103.537 111.066 103.642C111.439 103.747 111.787 103.928 112.088 104.173C112.39 104.419 112.638 104.725 112.818 105.071C112.997 105.417 113.105 105.797 113.134 106.187C113.459 110.603 113.562 118.439 110.606 121.301C108.987 122.868 106.707 123.684 104.468 123.684ZM110.122 105.057L99.5663 106.524C99.2719 106.564 98.9991 106.702 98.7907 106.916C98.5824 107.129 98.4502 107.407 98.415 107.705C98.1175 110.258 97.3985 118.767 100.662 121.054C103.19 122.828 107.271 122.443 109.576 120.213C111.413 118.436 112.168 113.364 111.648 106.299C111.634 106.114 111.583 105.934 111.498 105.77C111.413 105.605 111.295 105.461 111.153 105.344C111.01 105.228 110.845 105.142 110.668 105.093C110.491 105.043 110.306 105.031 110.124 105.057H110.122Z" fill="#393939"/>
<path d="M105.295 123.542C101.222 121.153 100.518 115.874 100.82 111.548C100.873 110.934 100.933 110.315 101.106 109.724C100.909 110.933 101.017 112.167 101.14 113.378C101.433 116.275 102.296 119.364 104.564 121.301C104.952 121.635 105.42 121.965 105.88 122.155C106.864 122.538 106.261 123.988 105.298 123.542H105.295Z" fill="#393939"/>
<path d="M58.6221 134.841L42.8429 137.76C41.4098 138.026 40.1084 138.775 39.1514 139.884C34.7403 144.984 31.0573 151.054 27.613 154.271C26.6401 155.163 25.4262 155.741 24.126 155.934C22.8259 156.126 21.4984 155.923 20.3129 155.351C12.4816 151.567 4.43254 143.777 1.51411 137.639C1.04332 136.653 0.834436 135.561 0.907955 134.47C0.989177 133.288 1.40576 132.154 2.10796 131.205C5.28229 126.918 10.2922 126.524 17.1377 130.021C20.0743 126.424 23.0142 123.406 25.954 121.586C28.1892 120.201 30.4218 119.511 32.657 119.779L50.564 118.574L58.6221 134.841Z" fill="white"/>
<path d="M58.6221 134.841L42.8429 137.76C41.4098 138.026 40.1084 138.775 39.1514 139.884C34.7403 144.984 31.0573 151.054 27.613 154.271C26.6401 155.162 25.4262 155.741 24.126 155.934C22.8259 156.126 21.4984 155.923 20.3129 155.351C12.4816 151.567 4.43254 143.777 1.51411 137.639C1.04332 136.653 0.834436 135.561 0.907955 134.47C1.8212 133.843 3.00623 133.59 4.12545 133.669C5.63843 133.777 7.06794 134.4 8.42577 135.084C11.8423 136.807 15.0309 138.957 17.9167 141.483C18.785 142.244 19.6533 143.058 20.7281 143.481C21.8029 143.903 23.1511 143.859 23.96 143.026C25.1301 141.818 24.5838 139.799 23.8258 138.293C22.2663 135.191 20.1338 132.419 17.5432 130.125C17.8268 129.883 18.1136 129.639 18.3992 129.396C22.0105 131.679 23.998 135.773 26.6008 139.18C27.0331 139.746 27.5285 140.327 28.209 140.53C28.744 140.692 29.3282 140.587 29.8568 140.397C32.0171 139.623 33.4322 137.532 34.399 135.433C35.1811 133.731 35.7809 131.863 35.5631 129.996C35.4026 128.622 34.8018 127.324 33.9993 126.2C32.1396 123.595 29.1137 121.904 25.9561 121.585C28.1913 120.2 30.4239 119.509 32.6591 119.778L50.5661 118.573L58.6221 134.841Z" fill="#E5E5E5"/>
<path d="M23.2046 156.914C22.8729 156.914 22.5415 156.892 22.2127 156.848C21.4189 156.748 20.6465 156.518 19.9261 156.167C12.0846 152.379 3.8226 144.583 0.706763 138.034C0.42029 137.432 0.217228 136.793 0.103285 136.135C-0.0597894 135.182 -0.0294993 134.207 0.192319 133.266C0.414137 132.326 0.822861 131.441 1.3937 130.665C4.74762 126.136 9.96387 125.543 16.9023 128.896C21.1641 123.755 26.7201 118.215 32.681 118.873L50.5067 117.672C50.6828 117.661 50.8584 117.702 51.0115 117.79C51.1646 117.879 51.2884 118.011 51.3675 118.17L59.4251 134.437C59.4879 134.562 59.5207 134.701 59.5209 134.842C59.5212 134.983 59.4888 135.121 59.4264 135.247C59.3641 135.373 59.2734 135.483 59.1618 135.567C59.0501 135.651 58.9204 135.708 58.7831 135.733L43.0044 138.652C41.7711 138.883 40.6511 139.527 39.826 140.48C37.9267 142.677 36.1741 145.041 34.4786 147.328C32.2916 150.278 30.2254 153.065 28.2191 154.937C26.8547 156.211 25.0634 156.917 23.2046 156.914ZM9.03939 128.564C6.45481 128.564 4.39773 129.624 2.82483 131.747C2.40001 132.326 2.09613 132.986 1.9316 133.688C1.76708 134.389 1.74535 135.117 1.86771 135.827C1.95345 136.32 2.10592 136.8 2.32086 137.252C5.23233 143.373 13.3049 150.968 20.6997 154.538C21.7234 155.032 22.8696 155.207 23.9924 155.042C25.1152 154.876 26.1638 154.377 27.0047 153.608C28.8895 151.848 30.9102 149.126 33.0448 146.242C34.76 143.929 36.5336 141.537 38.4767 139.29C39.5683 138.029 41.0498 137.177 42.6813 136.872L57.2868 134.172L50.0279 119.518L32.7153 120.683C32.6601 120.687 32.6048 120.685 32.55 120.679C28.438 120.182 23.7583 123.335 17.8273 130.598C17.698 130.757 17.5191 130.866 17.3202 130.908C17.1213 130.95 16.9141 130.922 16.7327 130.83C13.7773 129.319 11.2201 128.564 9.03939 128.564V128.564Z" fill="#393939"/>
<path d="M15.4289 128.235C17.9519 129.531 20.3562 131.453 21.6145 134.067C21.6534 134.146 21.6609 134.237 21.6356 134.322C21.6103 134.407 21.554 134.479 21.4782 134.523C21.4023 134.568 21.3126 134.582 21.2271 134.562C21.1416 134.542 21.0667 134.49 21.0175 134.417C19.4729 132.224 17.112 130.92 14.7098 129.891C13.5462 129.405 14.2818 127.697 15.4289 128.236V128.235Z" fill="#393939"/>
<path d="M40.43 139.652C40.2887 139.652 40.1494 139.618 40.0236 139.553C39.8978 139.489 39.7889 139.395 39.7059 139.279C39.6229 139.164 39.5681 139.03 39.5461 138.889C39.524 138.749 39.5352 138.604 39.5788 138.469C40.0881 136.89 39.5124 134.405 38.039 131.822C35.9814 128.214 31.5827 123.569 25.9593 122.351C25.7272 122.301 25.5242 122.16 25.3952 121.958C25.2662 121.757 25.2216 121.513 25.2713 121.278C25.3209 121.044 25.4608 120.839 25.66 120.709C25.8593 120.579 26.1017 120.534 26.3338 120.584C32.5323 121.926 37.3489 126.991 39.59 130.92C41.3379 133.985 41.9536 136.94 41.2801 139.028C41.2217 139.209 41.108 139.367 40.9553 139.479C40.8026 139.592 40.6188 139.652 40.43 139.652Z" fill="#393939"/>
<path d="M22.3305 155.952C21.6302 155.864 20.9488 155.662 20.313 155.352C12.4817 151.569 4.4326 143.779 1.51418 137.64C1.26303 137.113 1.08516 136.554 0.985596 135.978C2.81209 127.919 30.2335 154.988 22.3305 155.952Z" fill="#808091"/>
<path d="M22.3303 156.855C22.2945 156.854 22.2588 156.852 22.2233 156.848C21.4261 156.748 20.6505 156.518 19.9271 156.166C12.0856 152.377 3.82356 144.582 0.707716 138.032C0.421242 137.43 0.21818 136.792 0.104237 136.134C0.0838736 136.015 0.0871474 135.894 0.113867 135.777C0.469107 134.211 1.64182 133.417 3.33135 133.605C9.48385 134.29 24.6244 149.103 24.6538 154.46C24.6607 155.785 23.8326 156.678 22.4389 156.848C22.4028 156.852 22.3666 156.854 22.3303 156.855ZM1.90291 136.011C1.99276 136.439 2.13303 136.855 2.32074 137.25C5.23221 143.371 13.3048 150.966 20.6996 154.536C21.2134 154.786 21.762 154.956 22.3265 155.039C22.8615 154.948 22.8615 154.725 22.8615 154.469C22.8514 152.558 19.6376 148.081 15.0452 143.581C10.3249 138.956 5.5377 135.669 3.13341 135.402C2.33037 135.315 2.04629 135.553 1.90291 136.011Z" fill="#393939"/>
<path d="M3.0437 141.23C2.84551 141.23 2.65292 141.163 2.49611 141.041C2.3393 140.919 2.22712 140.747 2.17714 140.554C2.12716 140.36 2.1422 140.155 2.21992 139.971C2.29764 139.787 2.43363 139.635 2.6066 139.537L8.30381 136.329C8.51119 136.213 8.75601 136.184 8.98441 136.249C9.21282 136.315 9.40611 136.469 9.52175 136.678C9.63739 136.888 9.66591 137.135 9.60104 137.365C9.53618 137.596 9.38324 137.791 9.17586 137.908L3.48026 141.115C3.3469 141.191 3.19655 141.23 3.0437 141.23Z" fill="#393939"/>
<path d="M6.23817 145.358C6.0388 145.358 5.84501 145.291 5.68752 145.168C5.53002 145.044 5.41782 144.871 5.36869 144.676C5.31955 144.481 5.3363 144.275 5.41627 144.091C5.49624 143.907 5.63485 143.755 5.81017 143.659L12.7828 139.852C12.9918 139.738 13.237 139.713 13.4647 139.781C13.6923 139.85 13.8837 140.006 13.9967 140.217C14.1098 140.428 14.1351 140.676 14.0673 140.906C13.9995 141.135 13.844 141.329 13.6351 141.443L6.66349 145.249C6.53281 145.32 6.38666 145.358 6.23817 145.358Z" fill="#393939"/>
<path d="M10.9515 149.982C10.7527 149.981 10.5596 149.914 10.4027 149.791C10.2459 149.668 10.1341 149.495 10.085 149.301C10.036 149.106 10.0525 148.901 10.1319 148.717C10.2113 148.533 10.349 148.381 10.5235 148.284L17.4855 144.45C17.6932 144.345 17.9335 144.325 18.1555 144.395C18.3775 144.465 18.5638 144.619 18.675 144.826C18.7862 145.032 18.8136 145.273 18.7513 145.5C18.6891 145.726 18.5421 145.919 18.3415 146.037L11.3795 149.871C11.2483 149.944 11.1011 149.982 10.9515 149.982Z" fill="#393939"/>
<path d="M16.3833 154.043C16.1814 154.043 15.9854 153.974 15.8271 153.847C15.6689 153.721 15.5577 153.544 15.5115 153.345C15.4654 153.147 15.487 152.939 15.5729 152.754C15.6588 152.57 15.8039 152.42 15.9847 152.329L21.5899 149.521C21.6953 149.469 21.81 149.437 21.9273 149.429C22.0447 149.421 22.1625 149.437 22.274 149.475C22.3854 149.512 22.4884 149.572 22.577 149.65C22.6657 149.728 22.7382 149.823 22.7905 149.93C22.8427 150.036 22.8737 150.152 22.8817 150.27C22.8897 150.389 22.8744 150.508 22.8369 150.62C22.7993 150.733 22.7402 150.837 22.6628 150.926C22.5854 151.015 22.4914 151.089 22.386 151.141L16.7808 153.949C16.6573 154.011 16.5212 154.043 16.3833 154.043Z" fill="#393939"/>
<path d="M81.7508 143.125C80.1153 142.74 78.5098 142.372 76.9454 142.013C65.0973 139.299 55.4919 137.019 51.0102 129.569L47.1304 123.545L45.5548 115.592L43.8477 106.976L53.7987 106.531L102.598 104.347L104.433 104.266C105.628 122.641 96.3756 143.426 81.7508 143.125Z" fill="white"/>
<path d="M102.371 106.452C102.172 107.817 101.972 109.181 101.772 110.543L102.231 110.2C101.223 116.622 99.9841 123.123 97.0052 128.884C94.0264 134.645 89.0461 139.666 82.7903 141.217C81.0681 141.645 79.2925 141.804 77.5259 141.961C77.3317 141.979 77.1407 141.994 76.9465 142.012C65.0984 139.298 55.493 137.017 51.0113 129.568L47.1315 123.543L45.5559 115.591C47.6151 112.048 50.5849 109.138 53.7992 106.53L102.598 104.345C102.566 105.055 102.47 105.766 102.371 106.452Z" fill="#E5E5E5"/>
<path d="M51.3092 129.386C53.0127 131.642 55.1356 133.446 57.5634 134.84C64.6992 138.944 74.0146 140.289 81.9524 142.253C93.9755 142.194 101.014 127.605 102.899 116.538C103.63 112.507 103.895 108.405 103.689 104.313L104.467 105.015L43.8818 107.726L44.5806 106.826L47.8633 123.394C48.0334 124.374 46.6178 124.658 46.4001 123.689L43.1173 107.121C43.0981 107.024 43.0979 106.925 43.1169 106.827C43.1359 106.73 43.1737 106.638 43.228 106.556C43.2824 106.474 43.3523 106.403 43.4337 106.348C43.5151 106.293 43.6065 106.255 43.7026 106.235C43.7208 106.14 104.348 103.57 104.401 103.51C104.498 103.504 104.595 103.517 104.687 103.549C104.779 103.581 104.864 103.632 104.936 103.697C105.009 103.763 105.067 103.843 105.109 103.932C105.151 104.02 105.174 104.117 105.178 104.215C106.206 117.054 101.582 135.567 89.6003 142.132C87.1393 143.409 84.3268 144.141 81.5496 143.994C76.58 142.772 69.6041 141.345 64.7891 139.761C59.2904 138.005 53.3332 135.286 50.7122 129.749C50.5453 129.362 51.0487 129.047 51.3109 129.383L51.3092 129.386Z" fill="#393939"/>
<path d="M105.105 115.801C102.564 121.237 92.439 122.959 81.387 121.231C79.004 120.858 76.6457 120.34 74.325 119.679L75.1494 109.281C75.1494 109.281 84.1604 110.323 92.2212 109.068C96.0197 108.48 99.6091 107.38 101.945 105.423C101.945 105.424 108.185 109.216 105.105 115.801Z" fill="white"/>
<path d="M105.104 115.801C102.564 121.237 92.4388 122.959 81.3868 121.231C79.8728 120.996 78.3411 120.691 76.8083 120.327C76.276 120.2 75.741 120.067 75.2092 119.923C74.9138 119.845 74.6207 119.761 74.3264 119.679L74.6886 115.113L75.1503 109.281C75.1503 109.281 84.1613 110.323 92.2222 109.068C91.9159 110.376 91.4569 111.642 90.8547 112.84C89.828 114.871 91.4138 117.268 93.6592 117.024C99.3227 116.408 103.678 114.476 105.225 111.167C105.384 110.831 105.523 110.486 105.642 110.133C106.122 111.681 106.143 113.581 105.104 115.801Z" fill="#E5E5E5"/>
<path d="M89.2979 122.784C84.5096 122.784 79.2516 122.02 74.083 120.55C73.8835 120.493 73.7097 120.368 73.5912 120.196C73.4728 120.025 73.417 119.817 73.4335 119.608L74.2552 109.208C74.2648 109.087 74.2984 108.97 74.354 108.862C74.4095 108.755 74.486 108.66 74.5787 108.583C74.6715 108.506 74.7786 108.448 74.8939 108.414C75.0091 108.379 75.1299 108.369 75.2493 108.383C75.4413 108.405 94.4617 110.523 101.374 104.729C101.517 104.609 101.693 104.537 101.878 104.523C102.064 104.509 102.249 104.553 102.408 104.65C102.477 104.692 109.3 108.948 105.915 116.188C104.325 119.59 99.9941 121.85 93.7207 122.548C92.2518 122.709 90.7753 122.787 89.2979 122.784ZM75.2771 119.007C88.7211 122.652 101.647 121.084 104.296 115.417C106.524 110.65 103.28 107.546 101.976 106.544C95.0368 111.646 79.8995 110.634 75.9678 110.27L75.2771 119.007Z" fill="#393939"/>
<path d="M106.353 107.935C106.242 110.715 104.694 113.234 102.297 114.61C100.969 115.372 99.4885 115.96 97.8974 116.436L65.9338 107.278L66.5309 91.915L81.3156 76.1572C83.5223 76.4028 85.693 76.9082 87.7832 77.6633C96.5428 80.8293 103.263 88.27 105.545 98.4787C106.2 101.413 106.49 104.579 106.353 107.935Z" fill="white"/>
<path d="M106.353 107.935C106.242 110.715 104.694 113.234 102.297 114.61C100.969 115.372 99.4885 115.96 97.8974 116.436L65.9338 107.278L66.5309 91.915L81.3156 76.1572C83.5223 76.4028 85.693 76.9082 87.7832 77.6633C87.6894 78.0219 87.5557 78.3686 87.3847 78.6968C87.1926 79.0654 86.9543 79.4075 86.6758 79.7147C86.014 80.4648 85.7625 82.6723 86.0793 84.8356C86.4869 87.6252 87.7217 89.5422 88.765 91.1617C89.6985 92.6116 90.202 93.3924 91.226 94.177C93.1616 95.6588 95.5841 96.121 95.8698 96.1534C96.3652 96.2047 96.8729 96.2377 97.3357 96.4234C98.6876 96.9715 99.2189 98.5651 99.7827 99.9205C100.347 101.276 101.466 102.746 102.904 102.512C104.152 102.308 104.814 100.94 105.191 99.7228C105.319 99.3103 105.435 98.8945 105.543 98.4808C106.2 101.413 106.49 104.579 106.353 107.935Z" fill="#E5E5E5"/>
<path d="M97.8985 117.188C97.8296 117.188 97.761 117.178 97.6947 117.159L65.73 108.003C65.5689 107.956 65.4279 107.856 65.3297 107.719C65.2314 107.582 65.1816 107.416 65.1881 107.247L65.7851 91.8835C65.7927 91.702 65.8651 91.5293 65.989 91.3975L80.7726 75.6387C80.8518 75.554 80.9494 75.489 81.0578 75.449C81.1662 75.409 81.2823 75.395 81.397 75.4081C88.8297 76.2462 95.4899 79.8361 100.15 85.5191C105.049 91.4909 107.452 99.2518 107.099 107.963C106.977 110.964 105.28 113.762 102.665 115.263C101.363 116.01 99.8732 116.63 98.1098 117.153C98.0414 117.175 97.9702 117.186 97.8985 117.188ZM66.7021 106.715L97.8926 115.65C99.4543 115.172 100.775 114.616 101.927 113.955C104.096 112.709 105.507 110.391 105.607 107.903C106.272 91.4823 96.4171 78.8096 81.5981 76.9503L67.2649 92.2269L66.7021 106.715Z" fill="#393939"/>
<path d="M88.6789 98.0812C88.8998 95.5659 88.4975 92.989 87.6517 90.5531C87.4912 90.0752 88.1813 89.803 88.3862 90.2642C89.5969 92.7066 90.3695 95.4012 90.4674 98.1708C90.4593 99.4706 88.5633 99.3799 88.6789 98.0812Z" fill="#393939"/>
<path d="M87.2729 97.789C90.691 97.8268 94.177 97.3948 97.7187 96.5837C102.195 101.705 103.111 109.22 101.3 114.959C94.4354 118.574 82.796 120.08 77.729 113.798L87.2729 97.789Z" fill="white"/>
<path d="M99.8529 99.6655L99.8962 99.7903C102.332 106.918 97.4486 114.468 90.018 115.24C85.7155 115.687 81.3868 115.088 78.3245 112.799L77.729 113.798C82.796 120.08 94.4354 118.574 101.3 114.959C102.776 110.288 102.441 104.441 99.8529 99.6655Z" fill="#E5E5E5"/>
<path d="M88.6115 118.844C85.0083 118.844 80.1821 118.034 77.1508 114.274C77.0541 114.153 76.9964 114.006 76.9855 113.851C76.9746 113.697 77.011 113.543 77.0898 113.41L86.6337 97.4009C86.7013 97.289 86.7965 97.1966 86.9099 97.1326C87.0233 97.0687 87.1511 97.0353 87.281 97.0359C90.5033 97.072 93.9605 96.6724 97.553 95.8479C97.6837 95.8183 97.8198 95.8247 97.9472 95.8663C98.0746 95.9079 98.1886 95.9832 98.2774 96.0844C103.232 101.752 103.723 109.762 102.011 115.186C101.951 115.376 101.819 115.534 101.645 115.626C97.8997 117.597 93.1157 118.8 88.8475 118.842C88.7699 118.844 88.6907 118.844 88.6115 118.844ZM78.6477 113.72C83.7152 119.326 94.5715 117.535 100.681 114.434C102.125 109.531 101.66 102.516 97.4449 97.4171C94.053 98.1645 90.7772 98.543 87.6946 98.5441L78.6477 113.72Z" fill="#393939"/>
<path d="M24.8095 70.7512C29.3251 76.5558 35.2531 81.081 42.0162 83.8862C43.4437 84.4796 44.9015 84.9961 46.3834 85.4333C47.111 85.6493 47.8536 85.8458 48.6053 86.0273C54.9793 87.5498 61.6112 87.6035 68.0086 86.1844C68.8208 86.0019 69.6256 85.7985 70.4231 85.5742C85.012 81.4373 97.0661 69.7906 100.972 54.0539C106.726 30.8738 92.6058 7.60794 69.4414 2.08374C65.0903 1.04374 60.6064 0.686935 56.1477 1.02588C55.6384 1.06044 55.128 1.10958 54.6197 1.16952C53.2583 1.32072 51.9123 1.53492 50.5816 1.81212C44.4706 3.09558 38.6987 5.67223 33.6467 9.37212C32.8502 9.95532 32.073 10.5659 31.3151 11.2038C24.2971 17.1139 19.3122 25.1142 17.0745 34.0588C13.7639 47.393 17.0312 60.7526 24.8095 70.7512Z" fill="white"/>
<path d="M58.6554 87.3194C57.5592 87.3194 56.4678 87.2778 55.3919 87.1946C53.0974 87.0226 50.82 86.668 48.5808 86.1341C47.7558 85.9327 47.0293 85.7372 46.3531 85.5363C44.8679 85.0977 43.4067 84.5802 41.9757 83.986C35.1992 81.1675 29.2577 76.6321 24.7257 70.8181C16.59 60.3599 13.7635 46.9501 16.9714 34.0322C19.2153 25.067 24.2123 17.0485 31.2468 11.1248C31.991 10.4974 32.7774 9.87961 33.5842 9.28885C38.6484 5.57933 44.4344 2.99585 50.5603 1.70887C51.8882 1.43185 53.2503 1.21531 54.6087 1.06465C55.1506 1.00039 55.6524 0.953408 56.1414 0.920468C60.6105 0.580948 65.1047 0.93922 69.4656 1.98265C80.7423 4.67185 90.2386 11.6027 96.2049 21.4999C102.124 31.3181 103.855 42.8898 101.073 54.084C97.3027 69.2872 85.5686 81.3945 70.4505 85.6816C69.6539 85.9057 68.8397 86.1136 68.0307 86.2934C65.7817 86.7924 63.4971 87.1111 61.1983 87.2465C60.3515 87.2951 59.5039 87.3194 58.6554 87.3194ZM24.8937 70.6874C29.4029 76.4723 35.3145 80.985 42.057 83.7894C43.4811 84.3808 44.9351 84.8958 46.413 85.3322C47.0844 85.5325 47.8093 85.7269 48.63 85.9262C54.9884 87.4448 61.604 87.4985 67.9858 86.0833C68.791 85.9019 69.6015 85.6967 70.3933 85.4742C85.438 81.2082 97.1144 69.1603 100.866 54.0316C103.631 42.8941 101.911 31.3808 96.0214 21.6122C90.0829 11.7647 80.6359 4.86787 69.4153 2.19217C65.075 1.1544 60.6021 0.798498 56.1543 1.13701C55.668 1.16995 55.1699 1.21639 54.6306 1.28011C53.2781 1.43023 51.923 1.64569 50.6015 1.92163C44.5055 3.20211 38.7477 5.7725 33.7078 9.46327C32.9053 10.0513 32.1226 10.6658 31.3816 11.2901C30.2466 12.2467 29.1608 13.2613 28.1283 14.3298C22.807 19.8182 19.0272 26.636 17.1763 34.0846C13.9866 46.9393 16.7986 60.2794 24.8937 70.6847V70.6874Z" fill="#393939"/>
<path d="M100.971 54.0555C97.0694 69.7933 85.0116 81.441 70.4221 85.5753C69.625 85.8003 68.821 86.0039 68.0103 86.186C61.6119 87.6013 54.9802 87.5481 48.6048 86.0305C47.8558 85.8442 47.1127 85.6525 46.3835 85.4365C44.9021 84.9975 43.4445 84.4804 42.0168 83.8872C36.8248 81.7324 32.1087 78.5578 28.1425 74.5477C24.1762 70.5377 21.039 65.7721 18.9128 60.5279C23.349 65.9638 29.0476 70.2086 35.5016 72.8847C36.9286 73.4798 38.3862 73.997 39.8683 74.434C40.5948 74.65 41.3368 74.8449 42.0896 75.028C48.4633 76.5513 55.0953 76.605 61.4924 75.1852C62.3056 75.0019 63.1104 74.7978 63.9069 74.5728C78.4969 70.4385 90.5526 58.7918 94.4554 43.053C96.735 33.873 95.8935 24.6789 92.6107 16.5806C100.839 26.6607 104.368 40.3735 100.971 54.0555Z" fill="#E5E5E5"/>
<path d="M58.6553 88.0415C57.5409 88.0415 56.4313 87.9994 55.3383 87.9151C53.007 87.7392 50.6931 87.378 48.418 86.8351C47.5776 86.6305 46.8377 86.4318 46.1518 86.2271C44.6429 85.7819 43.1585 85.2561 41.7049 84.6519C34.8139 81.7854 28.7723 77.1728 24.1644 71.2599C15.8922 60.6268 13.0155 46.9945 16.2774 33.8568C18.5576 24.743 23.6367 16.5912 30.7871 10.5688C31.5442 9.9305 32.3434 9.30248 33.1631 8.702C38.3095 4.93283 44.1891 2.30761 50.4141 0.999437C51.7645 0.718097 53.1491 0.497776 54.5294 0.344416C55.0783 0.280156 55.5913 0.231557 56.0926 0.198077C60.6326 -0.14606 65.1981 0.218217 69.6281 1.27808C81.0932 4.0121 90.7483 11.0596 96.8152 21.1231C102.835 31.1077 104.593 42.8754 101.768 54.258C97.935 69.7117 86.0093 82.0183 70.6441 86.3751C69.8341 86.6029 69.0081 86.8119 68.1868 86.9966C65.9002 87.505 63.5773 87.83 61.2399 87.9686C60.379 88.0167 59.5156 88.0415 58.6553 88.0415ZM25.4558 70.2388C29.889 75.9259 35.701 80.3622 42.3298 83.1189C43.73 83.7009 45.1599 84.2075 46.6135 84.6363C47.2753 84.8339 47.989 85.0251 48.7984 85.2227C55.0513 86.7159 61.557 86.7683 67.8327 85.3761C68.6234 85.1984 69.4216 84.9981 70.2022 84.7767C84.9987 80.5814 96.4835 68.7327 100.173 53.8546C102.891 42.9061 101.2 31.5883 95.4119 21.986C89.5756 12.3049 80.2853 5.52464 69.2504 2.89376C64.9817 1.87316 60.5826 1.52291 56.2082 1.85534C55.7267 1.88828 55.2398 1.93364 54.7129 1.99574C53.3754 2.14424 52.0448 2.35592 50.7458 2.627C44.7493 3.88753 39.0855 6.41647 34.1277 10.0471C33.3375 10.626 32.5681 11.2308 31.84 11.8443C30.7241 12.7854 29.6566 13.7836 28.6418 14.8348C23.4094 20.232 19.6925 26.936 17.8717 34.2602C14.7344 46.8962 17.4972 60.0106 25.4553 70.2388H25.4558Z" fill="#393939"/>
<path d="M58.6553 88.1154C57.5393 88.1154 56.4276 88.0733 55.3308 87.9885C52.9958 87.813 50.6781 87.4519 48.3993 86.9085C47.5578 86.7033 46.8168 86.5046 46.1299 86.2999C44.6186 85.8534 43.1318 85.3267 41.6755 84.7221C34.7731 81.8512 28.7213 77.2315 24.105 71.3096C15.8178 60.6564 12.939 46.9993 16.2062 33.839C18.1005 26.2168 21.9679 19.2397 27.4124 13.6224C28.4685 12.5299 29.5792 11.4925 30.7401 10.5142C31.4987 9.87483 32.299 9.24573 33.1203 8.64471C38.2752 4.86869 44.165 2.23901 50.4008 0.929194C51.7533 0.647314 53.14 0.426454 54.5203 0.273094C55.0697 0.208294 55.5844 0.160234 56.0868 0.126214C60.6342 -0.219094 65.2072 0.145184 69.6447 1.20621C81.1296 3.94509 90.8002 11.0045 96.8762 21.0847C102.906 31.086 104.668 42.8737 101.837 54.2758C97.9986 69.7554 86.0548 82.0826 70.6628 86.4463C69.8518 86.6742 69.0241 86.8837 68.2018 87.0689C65.9112 87.5774 63.5844 87.9024 61.2431 88.0409C60.3823 88.09 59.5172 88.1154 58.6553 88.1154ZM25.5136 70.1934C29.9389 75.8704 35.7406 80.2989 42.3576 83.0508C43.7557 83.6308 45.1833 84.1355 46.6344 84.5628C47.2951 84.7599 48.0077 84.951 48.8156 85.1481C55.0576 86.6382 61.5518 86.6906 67.8166 85.3015C68.6063 85.1238 69.4029 84.9235 70.1824 84.7032C84.9538 80.5149 96.4188 68.6862 100.102 53.8341C102.816 42.9045 101.127 31.6066 95.3488 22.0216C89.5226 12.3556 80.249 5.58886 69.2349 2.96284C64.9737 1.94424 60.5823 1.59544 56.2157 1.92873C55.7342 1.96113 55.2489 2.00649 54.723 2.06859C53.3898 2.21655 52.0593 2.42824 50.764 2.69878C44.7778 3.95699 39.1237 6.48172 34.1748 10.1065C33.3856 10.6843 32.6174 11.288 31.8903 11.9004C30.7761 12.8394 29.7101 13.8352 28.6964 14.8839C23.4721 20.272 19.7609 26.9651 17.9429 34.2774C14.811 46.8918 17.5684 59.9814 25.5131 70.1928L25.5136 70.1934Z" fill="#393939"/>
<path d="M32.6403 78.4954C60.4604 91.6325 92.4533 73.4096 89.3728 43.0541C87.2767 22.4018 65.3807 8.69765 45.6184 12.1661C31.2349 14.69 18.2392 23.4251 15.8494 46.7428C15.8494 46.7428 16.3844 57.2134 20.2899 63.5779C24.1954 69.9423 29.0762 75.4643 29.0762 75.4643L32.6403 78.4954Z" fill="#393939"/>
<path d="M89.3718 43.0539C92.4529 73.4089 60.461 91.6318 32.6404 78.4968L31.9187 77.8812C60.2202 78.074 84.964 56.9778 82.4227 26.2227C86.1939 30.9693 88.7239 36.6808 89.3718 43.0539Z" fill="#393939"/>
<path d="M55.3993 87.8428C55.3806 87.8428 55.3624 87.8428 55.3458 87.8428C53.0172 87.6668 50.706 87.3057 48.4336 86.7628C47.5953 86.5582 46.8564 86.36 46.1722 86.1559C44.6656 85.711 43.1834 85.1861 41.7317 84.5834C34.8529 81.7228 28.8218 77.119 24.2216 71.2173C15.9628 60.6009 13.0936 46.9908 16.3502 33.8763C18.2378 26.2795 22.0926 19.3259 27.5194 13.7278C27.5549 13.691 27.5942 13.6581 27.6365 13.6296C32.3355 10.4436 38.0396 8.2436 44.5907 7.09556C56.3741 5.0279 69.3157 8.31002 79.2105 15.876C88.1108 22.68 93.5908 32.13 94.641 42.4807C95.7843 53.7597 92.7846 64.0996 85.9665 72.3832C78.7135 81.1954 67.5946 86.8287 55.4603 87.8396C55.44 87.8396 55.4196 87.8428 55.3993 87.8428ZM25.3965 70.2885C29.8379 75.987 35.6609 80.4323 42.3025 83.1945C43.7056 83.7771 45.1382 84.2845 46.5943 84.7146C47.2571 84.9123 47.9724 85.104 48.7824 85.3016C50.957 85.8183 53.1683 86.1624 55.3961 86.3308C67.1126 85.34 77.8318 79.9048 84.8211 71.4182C91.3775 63.4527 94.2606 53.4983 93.1591 42.6313C92.1517 32.7002 86.8787 23.6233 78.3123 17.0737C68.7385 9.75884 56.2312 6.5804 44.8464 8.57786C38.5334 9.68594 33.0443 11.7919 28.5321 14.8365C23.319 20.2345 19.6155 26.9301 17.7984 34.2419C14.6553 46.9017 17.4239 60.0393 25.3954 70.2864L25.3965 70.2885Z" fill="#393939"/>
<path d="M51.6666 83.8901C45.13 83.8901 38.4649 82.4277 32.1926 79.4653C32.1083 79.4255 32.0295 79.3746 31.9583 79.3141L28.3962 76.2831C28.3581 76.2497 28.3223 76.2136 28.2892 76.1751C28.0875 75.9467 23.3025 70.5105 19.3933 64.1396C15.3904 57.6164 14.8153 47.2376 14.7923 46.7964C14.7897 46.7411 14.7911 46.6857 14.7965 46.6306C16.883 26.2623 27.1936 14.3111 45.4392 11.1094C56.0279 9.25018 67.6578 12.1986 76.5468 18.9934C84.5536 25.1154 89.4842 33.6198 90.43 42.9408C91.8012 56.4521 86.4175 68.6275 75.6523 76.3441C68.678 81.3472 60.2844 83.8901 51.6666 83.8901ZM33.2161 77.5856C47.0415 84.0612 62.8181 82.9224 74.4218 74.6026C84.544 67.345 89.6088 55.8857 88.3178 43.1633C87.4324 34.439 82.7967 26.4632 75.2639 20.7041C66.8349 14.2598 55.8203 11.462 45.7987 13.2208C28.6252 16.234 18.9096 27.5195 16.9119 46.7667C16.9724 47.7354 17.6534 57.2465 21.1919 63.0142C24.7989 68.8926 29.3031 74.1058 29.8193 74.6966L33.2161 77.5856Z" fill="#393939"/>
<path d="M107.99 37.9495C109.863 46.2342 106.523 54.3299 100.527 56.0309C94.5317 57.7319 88.1535 52.394 86.2804 44.1093C86.2681 44.058 86.2569 44.0013 86.2467 43.95C84.4502 35.7215 87.7897 27.7165 93.7437 26.028C98.3752 24.7136 103.235 27.6004 106.071 32.8001C106.944 34.4184 107.59 36.1515 107.99 37.9495Z" fill="white"/>
<path d="M107.99 37.9495C109.863 46.2342 106.523 54.3299 100.528 56.0309C94.5318 57.7319 88.1536 52.394 86.2805 44.1093C86.2682 44.058 86.257 44.0013 86.2468 43.95C87.0985 44.6131 88.3135 45.159 89.6398 44.4824C91.9622 43.2944 95.1262 36.7296 95.1262 36.7296C95.1262 36.7296 99.8615 34.9946 106.071 32.8C106.944 34.4184 107.59 36.1515 107.99 37.9495Z" fill="#E5E5E5"/>
<path d="M98.2502 57.2529C96.467 57.2529 94.6721 56.7318 92.958 55.7036C89.3007 53.5096 86.5487 49.3565 85.408 44.3096C83.4334 35.5757 87.0665 26.9843 93.5026 25.1574C96.0866 24.4247 98.7873 24.8383 101.314 26.3541C104.971 28.5481 107.723 32.7007 108.864 37.7481C110.838 46.482 107.205 55.0734 100.769 56.9003C99.9493 57.1337 99.1018 57.2523 98.2502 57.2529ZM96.0133 26.6149C95.3283 26.6149 94.6466 26.7102 93.9873 26.8979C88.4538 28.4676 85.3882 36.0984 87.1537 43.9079C88.1702 48.4077 90.6847 52.2368 93.8728 54.15C95.9679 55.4072 98.1849 55.756 100.285 55.1609C105.819 53.5911 108.884 45.9599 107.119 38.1509C106.102 33.6511 103.588 29.822 100.4 27.9087C98.9692 27.0501 97.4798 26.6149 96.0133 26.6149Z" fill="#393939"/>
<path d="M102.498 53.5975C107.516 52.9442 110.89 46.9831 110.034 40.283C109.177 33.5829 104.415 28.681 99.3971 29.3344C94.379 29.9877 91.0052 35.9488 91.8614 42.6489C92.7176 49.349 97.4797 54.2508 102.498 53.5975Z" fill="white"/>
<path d="M101.638 53.7601C101.015 53.7586 100.395 53.6781 99.792 53.5204C94.6972 52.2055 91.064 45.7282 91.6931 39.0819C92.0436 35.3775 93.6475 32.2573 96.0935 30.5223C97.9125 29.2328 99.9921 28.8402 102.11 29.3883C107.205 30.7038 110.838 37.1805 110.209 43.8274C109.859 47.5318 108.255 50.6519 105.809 52.3869C104.523 53.2968 103.107 53.7601 101.638 53.7601ZM100.266 29.371C98.8418 29.371 97.4679 29.8209 96.2208 30.7054C93.8283 32.4031 92.2581 35.4639 91.9141 39.1029C91.2946 45.6445 94.8534 52.0149 99.8465 53.3049C101.901 53.8352 103.918 53.454 105.681 52.2033C108.074 50.5056 109.644 47.4448 109.988 43.8052C110.608 37.2642 107.049 30.8938 102.056 29.6032C101.471 29.4504 100.87 29.3724 100.266 29.371Z" fill="#393939"/>
<path d="M93.6587 48.4769C92.6107 46.4162 92.1281 44.0559 92.1607 41.7269C94.9486 46.2213 99.8647 47.1695 103.518 43.7481C105.881 41.5384 107.171 38.0095 107.222 34.4028C107.4 34.6853 107.567 34.9866 107.726 35.2992C110.392 40.548 109.404 47.7538 105.519 51.3912C101.633 55.0287 96.3241 53.7246 93.6587 48.4769Z" fill="#E5E5E5"/>
<path d="M102.011 54.5128C100.698 54.5128 99.3714 54.1267 98.096 53.3653C95.1492 51.6054 92.823 47.9998 91.8734 43.7203C90.2732 36.5129 93.0044 29.4686 97.9612 28.0225C99.8631 27.4663 101.867 27.7698 103.758 28.8989C106.705 30.6588 109.031 34.2644 109.982 38.5439C111.581 45.7513 108.85 52.7934 103.893 54.2417C103.282 54.4212 102.648 54.5125 102.011 54.5128ZM99.8337 29.5615C99.3681 29.5612 98.9048 29.6276 98.4577 29.7586C94.3917 30.9466 92.2222 37.0324 93.6191 43.325C94.4628 47.1272 96.4766 50.2986 99.006 51.8095C100.461 52.6789 101.978 52.9192 103.393 52.5061C107.459 51.3181 109.628 45.2318 108.232 38.9392C107.388 35.137 105.374 31.9651 102.845 30.4547C101.854 29.8618 100.833 29.5615 99.8337 29.5615Z" fill="#393939"/>
<g opacity="0.5">
<path d="M57.3879 18.4683C57.3879 18.4683 38.7646 22.9682 30.2137 35.5863C30.2046 35.5998 30.1955 35.6128 30.1869 35.6263C28.3966 38.2751 27.3399 41.3587 27.1262 44.5579C26.8432 48.7699 27.2664 51.7113 27.7388 54.2838C29.1795 62.1068 31.3233 65.4899 31.3233 65.4899C26.0963 62.2164 22.7157 58.0088 21.4509 51.5039C21.3279 50.8624 21.2246 50.1975 21.1411 49.5092C21.1208 49.3509 21.1048 49.1933 21.0909 49.0345C21.0871 49.0345 21.0882 49.0296 21.0909 49.0248C21.0001 47.2434 21.0165 45.4581 21.1401 43.6788C21.5788 37.3705 23.5599 28.8709 30.456 23.7749C43.3517 14.2439 57.8839 17.5266 57.3879 18.4683Z" fill="white"/>
</g>
<g opacity="0.5">
<path d="M77.9398 40.9021C80.8071 39.4774 81.817 35.6274 80.1956 32.3028C78.5741 28.9783 74.9353 27.4381 72.0681 28.8628C69.2008 30.2875 68.1909 34.1375 69.8124 37.462C71.4338 40.7866 75.0726 42.3267 77.9398 40.9021Z" fill="white"/>
</g>
<g opacity="0.5">
<path d="M81.1667 48.4576C82.2881 47.7652 82.5579 46.1492 81.7694 44.8483C80.9809 43.5473 79.4326 43.054 78.3112 43.7465C77.1898 44.4389 76.92 46.0549 77.7085 47.3558C78.497 48.6568 80.0453 49.1501 81.1667 48.4576Z" fill="white"/>
</g>
<path d="M80.1104 120.953C67.8284 119.072 57.6125 121.128 48.7005 125.67C48.5989 125.659 48.4935 125.652 48.3913 125.645C47.8937 125.604 47.3924 125.569 46.8933 125.543C44.2862 125.406 41.6731 125.433 39.0694 125.626C38.9935 125.596 38.9148 125.562 38.8394 125.529C31.6672 122.488 24.8261 116.828 19.5874 119.564L16.9215 96.3876L14.7114 77.1782C22.5198 78.9672 29.8065 82.1511 36.4126 87.1607C39.3423 86.6396 42.2752 86.8907 45.2144 87.7358H45.2177L45.3851 87.7854C45.4873 87.6953 45.5836 87.6105 45.6858 87.5235C45.6858 87.5231 45.6859 87.5227 45.686 87.5224C45.6862 87.522 45.6864 87.5217 45.6867 87.5214C45.6871 87.5212 45.6874 87.521 45.6878 87.5209C45.6882 87.5208 45.6886 87.5208 45.689 87.5208C55.8005 78.802 66.9499 76.6442 78.683 78.1788L79.2453 94.9766L80.1104 120.953Z" fill="#7DBCF9"/>
<path d="M38.8367 125.529C31.6645 122.488 24.8234 116.828 19.5847 119.564L16.9188 96.3877C16.8888 95.123 17.4838 93.9934 18.4596 93.4987C19.1369 93.1553 19.8035 93.2168 20.1219 93.2703H21.0174C22.5125 95.665 23.5461 98.3233 24.0637 101.105C24.3585 102.705 24.5174 103.505 24.4152 104.648C24.1258 107.884 21.5749 110.684 21.7012 113.936C21.7274 114.687 21.9457 115.496 22.5497 115.94C22.9311 116.221 23.4132 116.314 23.8754 116.418C25.8739 116.863 27.7869 117.634 29.5389 118.702C31.0942 119.648 32.5697 120.845 34.3539 121.199C36.1381 121.552 38.3498 120.635 38.604 118.823C38.8434 121.049 38.9212 123.291 38.8367 125.529Z" fill="#2D5577"/>
<path d="M80.1103 120.953C67.8283 119.072 57.6125 121.128 48.7005 125.67C48.5988 125.659 48.4934 125.652 48.3912 125.645C47.8937 125.604 47.3924 125.569 46.8932 125.543C45.414 120.575 44.1182 115.564 43.4302 110.433C43.1279 108.174 42.9439 105.905 42.7604 103.633C42.5046 100.501 42.2502 97.371 41.9969 94.2422C41.8899 92.9041 41.7926 91.4953 42.3607 90.2824C42.9241 89.0858 44.0059 88.3168 45.2144 87.7358H45.2176C45.3717 87.6618 45.529 87.5911 45.6858 87.5236C45.6857 87.5232 45.6858 87.5228 45.686 87.5224C45.6862 87.522 45.6864 87.5217 45.6867 87.5214C45.687 87.5212 45.6874 87.521 45.6878 87.5209C45.6882 87.5208 45.6886 87.5208 45.689 87.5209C46.179 87.3103 46.683 87.1223 47.1741 86.9463L47.2982 87.3567C48.4039 94.7007 49.5096 102.046 50.6152 109.392C50.9748 111.777 51.4814 114.414 53.4117 115.828C55.0402 117.021 57.2498 116.986 59.2175 116.574C61.1852 116.162 63.1021 115.416 65.1084 115.349C66.0992 115.315 67.1227 115.442 68.0509 115.099C69.2723 114.65 70.0967 113.456 70.4932 112.206C70.8896 110.957 70.9308 109.623 71.0726 108.318C71.2513 106.649 71.595 105.001 72.0987 103.401C73.2511 99.7286 75.6361 96.0377 79.2463 94.9766L80.1103 120.953Z" fill="#2D5577"/>
<path d="M48.7005 126.423C48.6764 126.423 48.6518 126.423 48.6272 126.419C48.5325 126.41 48.4346 126.403 48.3399 126.396C45.3974 126.155 42.2981 126.149 39.1197 126.378C39.0047 126.386 38.8893 126.368 38.7826 126.324C36.7341 125.472 34.7204 124.406 32.7735 123.376C27.9553 120.825 23.4046 118.416 19.9276 120.233C19.8204 120.289 19.7014 120.318 19.5806 120.317C19.4599 120.317 19.3411 120.287 19.2345 120.229C19.1279 120.172 19.0366 120.09 18.9685 119.989C18.9005 119.888 18.8577 119.773 18.8437 119.651L13.9661 77.2653C13.9524 77.1457 13.9673 77.0245 14.0095 76.9119C14.0518 76.7993 14.1201 76.6985 14.2089 76.6181C14.2977 76.5376 14.4042 76.4798 14.5197 76.4495C14.6351 76.4192 14.7561 76.4173 14.8724 76.4439C23.0991 78.3291 30.2098 81.5739 36.5998 86.3653C39.3444 85.9301 42.2339 86.1261 45.1984 86.9502C54.6208 78.8242 65.6081 75.7117 78.7744 77.4327C78.95 77.4555 79.1117 77.5406 79.2308 77.6728C79.3499 77.8049 79.4185 77.9755 79.4244 78.1541L80.854 120.927C80.8576 121.038 80.8371 121.148 80.7941 121.249C80.751 121.351 80.6863 121.441 80.6046 121.515C80.5229 121.588 80.4263 121.643 80.3214 121.674C80.2166 121.706 80.1062 121.714 79.998 121.698C68.695 119.966 58.5675 121.485 49.037 126.342C48.9327 126.395 48.8174 126.423 48.7005 126.423ZM43.6998 124.705C45.3198 124.705 46.9098 124.768 48.4517 124.894L48.5533 124.901C58.064 120.102 68.144 118.521 79.3346 120.079L77.9559 78.8475C65.3748 77.3468 54.8722 80.4594 45.8719 88.3515C45.7776 88.4344 45.6641 88.492 45.5419 88.519C45.4197 88.546 45.2927 88.5415 45.1727 88.5059C42.1344 87.6068 39.3107 87.4092 36.5389 87.9006C36.4383 87.9184 36.3351 87.9153 36.2358 87.8912C36.1365 87.8671 36.0432 87.8227 35.9616 87.7607C29.9439 83.1972 23.265 80.0495 15.5727 78.1552L20.2107 118.475C24.1584 117.112 28.6904 119.511 33.4663 122.039C35.3319 123.026 37.259 124.047 39.1908 124.861C40.7161 124.757 42.2206 124.705 43.6998 124.705Z" fill="#393939"/>
<path d="M48.3912 125.643C45.3278 125.392 42.2157 125.398 39.0667 125.624L36.4099 87.1585C39.3963 86.6288 42.3869 86.8966 45.3824 87.7833L48.3912 125.643Z" fill="#E3B700"/>
<path d="M48.3912 126.399C48.3714 126.399 48.3511 126.399 48.3308 126.399C45.3968 126.158 42.2981 126.152 39.1197 126.381C39.0218 126.388 38.9236 126.375 38.8305 126.344C38.7374 126.313 38.6514 126.263 38.5773 126.198C38.5032 126.133 38.4426 126.054 38.3987 125.966C38.3549 125.877 38.3289 125.781 38.322 125.682L35.6652 87.2162C35.6531 87.0307 35.7092 86.8472 35.8226 86.7007C35.9361 86.5543 36.0991 86.4552 36.2804 86.4224C39.2411 85.897 42.3746 86.1135 45.5921 87.0656C45.7371 87.1086 45.8658 87.1949 45.9613 87.3132C46.0568 87.4315 46.1146 87.5761 46.1271 87.7281L49.136 125.588C49.1442 125.691 49.1312 125.795 49.0975 125.894C49.0639 125.992 49.0105 126.082 48.9406 126.159C48.8708 126.235 48.786 126.296 48.6916 126.338C48.5972 126.379 48.4953 126.401 48.3923 126.401L48.3912 126.399ZM43.6998 124.706C45.0159 124.706 46.3087 124.747 47.578 124.83L44.6799 88.3686C42.0686 87.6558 39.6108 87.4689 37.2017 87.7989L39.759 124.827C41.0906 124.745 42.4051 124.705 43.6998 124.705V124.706Z" fill="#393939"/>
<path d="M41.0774 86.9572C45.6918 78.707 56.2462 72.6893 65.6959 72.5688C69.2949 73.1796 73.0217 75.1581 76.8277 77.9688C65.2926 76.8435 54.6787 79.5694 45.3825 87.7866C43.9789 87.3643 42.5365 87.0864 41.0774 86.9572Z" fill="white"/>
<path d="M41.8537 85.6746C38.2017 79.1271 32.5939 74.1807 26.8929 71.7507C23.4898 73.0122 20.1086 75.1722 16.7349 77.6772C23.9649 79.6752 30.6208 82.6663 36.41 87.1607C37.472 86.7401 38.9277 86.7082 41.1314 86.9317L41.8537 85.6746Z" fill="white"/>
<path d="M45.3826 88.5382C45.3101 88.5383 45.238 88.5278 45.1686 88.5069C43.8128 88.1004 42.42 87.8324 41.0111 87.7072C40.8868 87.6961 40.7672 87.6537 40.6633 87.5839C40.5594 87.5141 40.4746 87.4191 40.4164 87.3076C40.3583 87.1962 40.3288 87.0718 40.3306 86.9458C40.3325 86.8199 40.3656 86.6964 40.4269 86.5867C45.1429 78.1546 55.7659 71.9424 65.6858 71.8161C65.7305 71.8152 65.7751 71.8186 65.819 71.8263C69.273 72.4128 73.018 74.2228 77.268 77.3597C77.3999 77.4572 77.4965 77.5957 77.5428 77.754C77.5891 77.9122 77.5827 78.0815 77.5244 78.2357C77.4662 78.3899 77.3595 78.5205 77.2205 78.6075C77.0816 78.6945 76.9182 78.7331 76.7555 78.7173C64.6479 77.5363 54.5461 80.6877 45.8742 88.3519C45.738 88.4719 45.5634 88.5381 45.3826 88.5382ZM42.3149 86.3421C43.2883 86.4808 44.2517 86.6834 45.1991 86.9485C53.4605 79.7724 62.9611 76.5103 74.1527 77.0206C71.0374 74.9913 68.2346 73.7757 65.6382 73.3227C56.777 73.4636 46.9828 78.9824 42.3149 86.3421Z" fill="#393939"/>
<path d="M72.3347 75.6927C69.1097 75.3147 65.8077 75.6074 62.7047 76.6194C62.4719 76.696 62.3377 76.3429 62.5677 76.2457C65.6627 74.9324 69.0562 74.34 72.4208 74.4437C73.2709 74.4923 73.1869 75.7629 72.3341 75.6927H72.3347Z" fill="#393939"/>
<path d="M42.8915 86.9249C45.4413 83.5704 48.937 81.0756 52.7211 79.3784C52.888 79.3038 53.0201 79.5555 52.8521 79.6484C51.062 80.6295 49.3682 81.7776 47.8494 83.1146C46.3341 84.4373 45.0058 85.9635 43.9016 87.6506C43.4201 88.3526 42.3902 87.6209 42.8915 86.9238V86.9249Z" fill="#393939"/>
<path d="M36.41 87.9141C36.2454 87.914 36.0854 87.8591 35.9547 87.758C30.586 83.5892 24.235 80.5296 16.538 78.4036C16.4027 78.3663 16.2806 78.2912 16.1857 78.1871C16.0908 78.083 16.0269 77.9539 16.0013 77.8148C15.9757 77.6757 15.9895 77.5321 16.0411 77.4005C16.0927 77.2689 16.18 77.1547 16.2929 77.0709C20.3151 74.0841 23.6016 72.1687 26.6356 71.0439C26.8132 70.9782 27.009 70.9829 27.1834 71.0569C33.3332 73.6802 38.9165 78.8734 42.5042 85.3048C42.5676 85.4191 42.6005 85.5481 42.5997 85.6791C42.5988 85.8101 42.5643 85.9387 42.4994 86.0521L41.7766 87.3093C41.705 87.4348 41.599 87.5366 41.4713 87.6026C41.3436 87.6685 41.1997 87.6957 41.057 87.6808C38.8705 87.4588 37.5624 87.5128 36.6818 87.8611C36.5953 87.8959 36.5031 87.9139 36.41 87.9141ZM18.4206 77.3787C25.4971 79.4901 31.4431 82.4239 36.5459 86.3184C37.541 86.0224 38.8138 85.9684 40.7258 86.1369L40.9933 85.672C37.6132 79.7919 32.4991 75.0448 26.8736 72.5608C24.3661 73.529 21.6467 75.0766 18.4206 77.3787Z" fill="#393939"/>
<path d="M24.0123 72.5683C26.514 73.7747 28.6492 75.6409 30.3323 77.8263C30.361 77.8619 30.3748 77.9074 30.3709 77.9531C30.367 77.9988 30.3457 78.0412 30.3114 78.0714C30.2772 78.1016 30.2327 78.1171 30.1872 78.1148C30.1418 78.1125 30.0991 78.0925 30.068 78.059C29.1451 77.0967 28.1244 76.2352 27.0228 75.4886C25.9375 74.7562 24.7659 74.1634 23.5351 73.7239C22.7294 73.4086 23.22 72.2119 24.0123 72.5683Z" fill="#393939"/>
<path d="M44.3103 98.1724C44.3203 98.3472 44.2881 98.5219 44.2165 98.6814C44.1449 98.8409 44.0361 98.9805 43.8993 99.0883C43.7626 99.196 43.602 99.2687 43.4313 99.3001C43.2606 99.3315 43.085 99.3207 42.9193 99.2686C42.6176 99.1746 42.3028 99.0846 41.9751 98.9986C41.235 98.809 40.4848 98.6628 39.7281 98.5606C39.484 98.5264 39.2593 98.408 39.0919 98.2255C38.9246 98.043 38.825 97.8077 38.81 97.5595L38.3461 90.3116C38.3276 90.0327 38.4169 89.7574 38.5953 89.5436C38.7737 89.3298 39.0273 89.1942 39.3027 89.1652C40.6345 89.0361 41.9774 89.2351 43.2163 89.7451C43.4012 89.8229 43.5606 89.9518 43.6761 90.117C43.7917 90.2821 43.8587 90.4769 43.8695 90.6788C44.0143 93.1772 44.1612 95.675 44.3103 98.1724Z" fill="white"/>
<path d="M89.2129 111.495C95.5692 104.169 87.7207 91.6131 79.1367 91.8334V96.9634C67.7246 98.5429 70.4108 113.605 79.9702 114.243L82.9453 114.208L89.2129 111.495Z" fill="white"/>
<path d="M81.901 97.0768V92.1936C81.0028 91.9338 80.0708 91.8124 79.1367 91.8334V96.9634C67.7246 98.5429 70.4108 113.605 79.9702 114.243L81.6785 114.223C72.9927 112.594 70.9212 98.5974 81.901 97.0768Z" fill="#E5E5E5"/>
<path d="M82.9484 114.477C81.9694 114.733 80.9588 114.831 79.9524 114.874C78.7923 114.817 77.6526 114.544 76.5916 114.067C72.302 112.164 69.9041 106.895 71.2212 102.356C72.1998 98.7449 75.4986 96.6232 79.0322 96.2161L78.387 96.9623V91.8323C78.3876 91.636 78.4639 91.4476 78.5997 91.307C78.7355 91.1664 78.9202 91.0847 79.1146 91.079C86.2756 90.9835 92.2425 98.369 92.1189 105.325C92.0654 107.682 91.1077 110.053 89.4235 111.683C89.3723 111.734 89.3038 111.763 89.2319 111.765C89.16 111.767 89.09 111.742 89.0358 111.694C88.9817 111.646 88.9475 111.58 88.94 111.507C88.9325 111.435 88.9524 111.363 88.9955 111.305C89.6311 110.435 90.1255 109.469 90.4604 108.443C92.7074 101.477 86.4206 92.6029 79.1526 92.5846L79.8797 91.8318V96.9618C79.879 97.1436 79.8134 97.319 79.6951 97.456C79.5767 97.5929 79.4133 97.6822 79.235 97.7075C77.3021 98.0261 75.3734 98.7767 74.0905 100.288C70.7505 104.107 72.723 110.759 77.1576 112.829C78.0537 113.26 79.0195 113.525 80.0086 113.611C80.7459 113.611 82.0379 113.715 82.9388 113.935C83.2095 113.991 83.2101 114.413 82.9452 114.475L82.9484 114.477Z" fill="#393939"/>
<path d="M77.6874 96.4772C79.7151 96.2585 81.7534 96.6139 83.635 97.3175C83.7142 97.3465 83.7794 97.4049 83.8175 97.4807C83.8556 97.5565 83.8637 97.6441 83.8402 97.7257C83.8166 97.8074 83.7632 97.8769 83.6907 97.9202C83.6182 97.9635 83.5321 97.9774 83.4499 97.959C81.5967 97.5562 79.6921 97.5086 77.9426 97.959C76.9004 98.1826 76.6292 96.6203 77.6874 96.4745V96.4772Z" fill="#393939"/>
<path d="M16.5577 93.2481L19.2659 93.3329C22.3614 93.4301 24.9786 95.7289 25.4409 98.8198C25.9304 102.091 24.7727 105.873 22.2528 108.349C21.2794 109.313 20.0126 109.917 18.6568 110.066C17.301 110.214 15.9353 109.897 14.7799 109.166C11.1585 106.866 9.66694 102.281 10.0671 95.9816C10.2902 92.4646 11.9225 89.1495 14.6612 86.9636C15.0071 86.6861 15.3694 86.43 15.7461 86.1968L16.5577 93.2481Z" fill="white"/>
<path d="M25.4409 98.8198C25.3087 97.9413 24.9956 97.1004 24.5218 96.3515C24.8963 99.3129 23.8295 102.686 21.5595 104.912C20.6617 105.798 19.4945 106.355 18.2457 106.491C16.9968 106.627 15.7389 106.336 14.674 105.663C11.4742 103.635 10.0842 99.6693 10.2993 94.239C10.1831 94.8139 10.1056 95.3961 10.0671 95.9816C9.66694 102.281 11.1585 106.866 14.7799 109.166C15.9353 109.897 17.301 110.214 18.6568 110.066C20.0126 109.917 21.2794 109.313 22.2528 108.349C24.7732 105.873 25.9304 102.091 25.4409 98.8198Z" fill="#E5E5E5"/>
<path d="M17.9969 110.858C16.7175 110.858 15.4644 110.492 14.3824 109.803C10.5935 107.397 8.89063 102.729 9.32238 95.9337C9.56366 92.1392 11.3404 88.6545 14.1984 86.3725C14.568 86.0764 14.955 85.803 15.3572 85.5539C15.4641 85.4879 15.5857 85.4502 15.7108 85.4442C15.8359 85.4382 15.9605 85.464 16.0731 85.5194C16.1857 85.5747 16.2827 85.6578 16.3551 85.7609C16.4276 85.8641 16.4731 85.9839 16.4876 86.1095L17.2243 92.5155L19.2889 92.5803C22.7664 92.6883 25.6645 95.2668 26.1786 98.7072C26.72 102.325 25.3836 106.321 22.7728 108.889C21.4966 110.15 19.7825 110.856 17.9969 110.858ZM15.1491 87.534L15.1239 87.554C12.5971 89.5715 11.0258 92.6608 10.8118 96.032C10.4175 102.236 11.8866 106.442 15.1769 108.53C16.1903 109.173 17.3887 109.451 18.5783 109.321C19.7679 109.19 20.8791 108.658 21.7322 107.812C24.0092 105.575 25.175 102.09 24.7036 98.9345C24.2965 96.2129 21.9997 94.175 19.2429 94.088L16.5342 93.9989C16.3553 93.9932 16.1844 93.9228 16.0526 93.8005C15.9209 93.6781 15.8372 93.512 15.8167 93.3326L15.1491 87.534Z" fill="#393939"/>
<path d="M17.4849 94.0937C16.2469 94.1866 14.9993 93.8512 13.8276 93.4457C13.6559 93.3863 13.6789 93.1174 13.8549 93.0855C14.4606 92.9543 15.0662 92.8539 15.6739 92.7664C16.2754 92.6709 16.8819 92.6114 17.4903 92.5882C17.5877 92.5854 17.6848 92.6021 17.7759 92.6373C17.867 92.6724 17.9503 92.7253 18.0212 92.7929C18.092 92.8606 18.149 92.9416 18.1888 93.0315C18.2286 93.1214 18.2505 93.2183 18.2532 93.3167C18.2676 93.7557 17.907 94.0899 17.487 94.0942L17.4849 94.0937Z" fill="#393939"/>
<path d="M87.5715 138.154C85.0228 142.456 87.0788 158.154 78.7076 166.48C77.752 167.424 76.586 168.123 75.3074 168.518C74.0288 168.914 72.6749 168.993 71.3594 168.751C64.8057 167.528 57.81 161.937 53.5364 155.413C53.4915 155.347 53.4465 155.281 53.4048 155.215C52.9652 154.534 52.6047 153.804 52.3305 153.04V153.034C51.7458 151.407 51.5724 149.648 51.895 147.928C52.9934 142.054 58.9035 139.957 62.502 141.168C62.5164 141.105 62.5314 141.041 62.5464 140.981C62.6123 140.716 62.678 140.454 62.7432 140.195C66.1137 126.899 70.864 119.999 80.3191 121.732C81.7311 121.989 83.2532 122.443 84.8853 123.094L87.5715 138.154Z" fill="white"/>
<path d="M87.5716 138.155C85.0228 142.456 87.0788 158.154 78.7077 166.48C77.6727 167.505 76.3909 168.239 74.9889 168.61C79.3165 166.126 77.4809 160.308 73.2576 155.154C73.4219 155.28 73.5861 155.401 73.753 155.521C74.5978 156.126 75.8363 156.641 76.5826 155.916C77.1176 155.389 77.0481 154.509 76.8689 153.78C76.0605 150.517 73.8162 147.767 71.1658 145.734C68.5512 143.736 65.537 142.345 62.5464 140.982C62.502 140.964 62.457 140.943 62.4121 140.922C62.5229 140.681 62.6331 140.436 62.7433 140.196C62.8182 140.03 62.8925 139.864 62.9701 139.698C68.3736 140.587 72.9773 144.007 77.4124 147.242C77.818 147.54 78.2775 147.85 78.7729 147.782C79.3079 147.709 79.6862 147.224 79.9339 146.745C80.6267 145.408 80.7487 143.86 81.0681 142.387C81.6202 139.849 82.7726 137.495 83.6944 135.073C84.6162 132.651 85.3149 130.036 84.9062 127.472C84.4974 124.909 82.7336 122.421 80.2174 121.878L80.3191 121.73C81.7311 121.987 83.2532 122.441 84.8853 123.092L87.5716 138.155Z" fill="#E5E5E5"/>
<path d="M87.8385 138.316C87.1611 140.119 87.1381 142.131 86.952 144.045C86.7834 145.989 86.6342 148.095 86.3635 150.026C85.668 155.415 84.2909 160.966 80.8974 165.321C80.0012 166.428 79.0634 167.506 77.8446 168.278C76.001 169.462 73.746 169.968 71.5851 169.658C66.8237 168.836 62.587 166.215 59.0127 163.06C57.4901 161.708 56.0829 160.228 54.8059 158.638C54.0505 157.72 53.3663 156.737 52.7039 155.75C52.2037 154.933 51.6216 153.982 51.4494 153.033L51.5029 153.337C50.8949 151.669 50.7096 149.875 50.9636 148.117C51.3798 145.42 52.8291 143.024 55.112 141.534C57.359 140.086 60.1897 139.495 62.786 140.31L61.6347 140.952C62.3302 138.135 63.107 135.323 64.169 132.587C66.2887 126.99 69.9571 121.139 76.482 120.679C79.4823 120.463 82.4339 121.323 85.0238 122.746C85.0997 122.792 85.1569 122.864 85.1853 122.949C85.2137 123.034 85.2113 123.126 85.1787 123.209C85.1461 123.292 85.0854 123.361 85.0072 123.403C84.9291 123.445 84.8387 123.458 84.752 123.44C83.3691 123.102 82.0123 122.766 80.6539 122.551C78.011 122.109 75.2403 122.145 72.8681 123.455C68.0734 126.218 66.0661 132.206 64.4803 137.259C64.0775 138.62 63.7158 139.998 63.374 141.382C63.3444 141.502 63.2908 141.615 63.2165 141.714C63.1421 141.812 63.0486 141.894 62.9417 141.955C62.8348 142.016 62.7167 142.054 62.5947 142.066C62.4727 142.079 62.3494 142.067 62.2323 142.03C58.4049 140.87 53.9788 143.429 52.9634 147.322C52.8907 147.629 52.7622 148.078 52.72 148.391C52.5072 149.853 52.6592 151.346 53.1624 152.733C53.197 152.831 53.2151 152.933 53.2159 153.037V153.043L53.1624 152.741C53.5621 153.929 54.2859 154.967 54.9932 155.986C56.4113 157.959 58.0215 159.783 59.7996 161.432C62.7421 164.102 66.2105 166.434 70.0106 167.541C72.3277 168.31 74.8508 168.22 76.9175 166.823C83.0165 162.203 84.0892 152.967 85.1249 145.837C85.4219 143.893 85.7466 141.753 86.3774 139.889C86.601 139.237 86.8755 138.581 87.3067 137.999C87.3515 137.932 87.4199 137.885 87.4979 137.868C87.5759 137.851 87.6575 137.864 87.726 137.906C87.7944 137.947 87.8446 138.013 87.8661 138.091C87.8876 138.169 87.8789 138.252 87.8417 138.323L87.8385 138.316Z" fill="#393939"/>
<path d="M60.0667 140.095C64.8774 140.665 69.0349 143.532 72.1962 147.048C72.233 147.087 72.2531 147.139 72.2524 147.192C72.2516 147.246 72.23 147.297 72.1922 147.335C72.1545 147.372 72.1035 147.394 72.0504 147.394C71.9973 147.394 71.9463 147.373 71.9084 147.335C70.2173 145.79 68.3726 144.39 66.3343 143.371C64.3328 142.368 62.1613 141.747 59.9453 141.597C58.9288 141.516 59.0427 140.009 60.0667 140.095Z" fill="#393939"/>
<path d="M72.5027 157.277C72.867 158.897 72.7654 160.69 71.8607 162.076C70.574 164.049 67.9092 164.748 65.614 164.287C63.3189 163.827 61.3196 162.419 59.5151 160.913C57.3769 159.132 55.3984 157.165 53.6028 155.033C53.5787 155.16 53.5578 155.286 53.537 155.411C53.492 155.345 53.4471 155.278 53.4054 155.212C52.9657 154.531 52.6052 153.802 52.3311 153.037V153.031C51.2744 149.374 53.8713 146.311 57.0289 145.769C57.6795 145.657 58.345 145.687 58.9982 145.786C63.8721 146.519 69.5067 150.573 73.2581 155.152C72.2976 154.42 71.4025 153.605 70.5831 152.715C71.3535 154.177 72.1384 155.662 72.5027 157.277Z" fill="#AFAFB2"/>
<path d="M74.9888 168.61C73.8043 168.928 72.5646 168.977 71.3593 168.752C71.1089 168.706 70.858 168.652 70.6076 168.59C70.4471 168.553 70.2866 168.511 70.1261 168.469C69.9769 168.43 69.8276 168.388 69.6784 168.343C69.5179 168.298 69.3574 168.246 69.1969 168.195C68.4583 167.957 67.7338 167.676 67.0269 167.355C66.9317 167.313 66.8359 167.267 66.7407 167.225C65.3548 166.572 64.0259 165.802 62.7683 164.924L62.4724 164.716C61.4651 164 60.4986 163.228 59.5776 162.402C59.4556 162.294 59.3331 162.186 59.2137 162.074C58.9837 161.863 58.7569 161.649 58.5332 161.432C58.3957 161.3 58.2588 161.167 58.1245 161.032C57.9062 160.816 57.6922 160.596 57.4825 160.372C57.3482 160.23 57.2107 160.086 57.0796 159.94C56.9486 159.794 56.8255 159.663 56.7003 159.521C56.5602 159.365 56.4227 159.208 56.2884 159.048C56.0974 158.832 55.9096 158.609 55.7272 158.386C55.5993 158.229 55.4709 158.069 55.3452 157.91C55.1456 157.66 54.9514 157.407 54.7636 157.154C54.6379 156.992 54.5159 156.826 54.3993 156.66C54.3847 156.644 54.3718 156.627 54.3608 156.609C54.2265 156.422 54.0933 156.231 53.9606 156.04C53.9524 156.03 53.9454 156.02 53.9397 156.009C53.8113 155.823 53.6829 155.631 53.5577 155.443C53.5518 155.431 53.5428 155.422 53.5369 155.41C53.5577 155.284 53.5786 155.157 53.6027 155.032C55.3983 157.164 57.3768 159.132 59.515 160.912C61.3206 162.419 63.3172 163.825 65.6139 164.286C67.9107 164.748 70.5739 164.048 71.8606 162.075C72.7648 160.689 72.8664 158.894 72.5026 157.276C72.1388 155.658 71.3534 154.177 70.5809 152.716C71.4003 153.606 72.2954 154.421 73.2559 155.153C77.4808 160.308 79.3164 166.128 74.9888 168.61Z" fill="#808091"/>
<path d="M72.853 169.643C72.3062 169.643 71.7605 169.592 71.2229 169.492C64.7633 168.287 57.3509 162.714 52.7798 155.625C52.3086 154.895 51.9223 154.113 51.6285 153.295C51.6172 153.263 51.6081 153.231 51.6012 153.198C51.1031 151.429 51.3428 149.626 52.2791 148.117C53.2763 146.508 55.0076 145.353 56.9031 145.028C57.5675 144.914 58.2893 144.92 59.1089 145.043C66.7979 146.201 76.7189 155.465 78.0645 162.749C78.607 165.684 77.6707 167.938 75.3574 169.265C75.3015 169.297 75.2418 169.321 75.1797 169.338C74.4204 169.54 73.6384 169.643 72.853 169.643ZM53.0489 152.829C53.301 153.522 53.6302 154.184 54.0301 154.803C58.3925 161.568 65.4112 166.876 71.4952 168.011C72.5602 168.208 73.6549 168.173 74.7052 167.906C76.3765 166.907 77.0137 165.266 76.5996 163.025C75.3718 156.38 65.9376 147.594 58.8911 146.533C58.2293 146.432 57.6606 146.425 57.1561 146.513C55.6715 146.768 54.3206 147.666 53.547 148.916C53.0414 149.732 52.5444 151.072 53.05 152.822C53.0494 152.824 53.0491 152.826 53.0489 152.829Z" fill="#393939"/>
<path d="M52.6564 154.595C52.4895 154.595 52.3276 154.538 52.1963 154.434C52.065 154.331 51.972 154.185 51.9321 154.022C51.8922 153.858 51.9077 153.686 51.9761 153.532C52.0446 153.379 52.162 153.253 52.3097 153.175L63.9727 147.012C64.0602 146.956 64.1582 146.919 64.2607 146.903C64.3631 146.887 64.4677 146.893 64.5678 146.92C64.6679 146.947 64.7614 146.995 64.8423 147.06C64.9232 147.125 64.9898 147.207 65.0379 147.3C65.0859 147.392 65.1144 147.494 65.1215 147.598C65.1286 147.703 65.1142 147.808 65.0792 147.906C65.0441 148.004 64.9892 148.094 64.9179 148.17C64.8466 148.246 64.7605 148.306 64.665 148.347L53.002 154.509C52.8953 154.565 52.7767 154.595 52.6564 154.595Z" fill="#393939"/>
<path d="M55.9863 159.456C55.8164 159.456 55.6516 159.398 55.519 159.29C55.3865 159.183 55.2941 159.033 55.2573 158.866C55.2204 158.699 55.2412 158.524 55.3163 158.37C55.3914 158.216 55.5162 158.093 55.6701 158.02L69.9466 151.299C70.1252 151.219 70.3276 151.213 70.5105 151.282C70.6933 151.352 70.8419 151.491 70.9244 151.669C71.007 151.848 71.0169 152.052 70.952 152.238C70.8871 152.424 70.7526 152.577 70.5773 152.664L56.3014 159.385C56.2027 159.432 56.0952 159.456 55.9863 159.456Z" fill="#393939"/>
<path d="M60.323 163.805C60.154 163.805 59.99 163.747 59.8579 163.64C59.7257 163.534 59.6332 163.386 59.5955 163.219C59.5578 163.053 59.5771 162.879 59.6502 162.725C59.7234 162.571 59.8461 162.447 59.9982 162.373L73.8355 155.637C73.924 155.591 74.0208 155.563 74.1202 155.555C74.2195 155.548 74.3193 155.56 74.4137 155.592C74.5082 155.624 74.5953 155.675 74.6701 155.741C74.7448 155.808 74.8056 155.889 74.8489 155.979C74.8922 156.07 74.9171 156.168 74.9221 156.269C74.9271 156.369 74.9122 156.469 74.8782 156.564C74.8442 156.658 74.7917 156.745 74.724 156.819C74.6563 156.892 74.5747 156.952 74.4839 156.993L60.6466 163.73C60.5457 163.779 60.4351 163.805 60.323 163.805Z" fill="#393939"/>
<path d="M67.1666 168.173C66.9983 168.173 66.835 168.115 66.7032 168.01C66.5713 167.904 66.4787 167.757 66.4402 167.592C66.4017 167.426 66.4197 167.253 66.4913 167.099C66.5628 166.945 66.6837 166.821 66.8343 166.745L76.8923 161.703C76.9801 161.659 77.0757 161.633 77.1735 161.626C77.2713 161.62 77.3695 161.632 77.4624 161.664C77.5553 161.696 77.6411 161.745 77.7149 161.81C77.7888 161.875 77.8492 161.955 77.8928 162.043C77.9363 162.132 77.9622 162.228 77.9688 162.327C77.9754 162.426 77.9627 162.525 77.9314 162.619C77.9002 162.712 77.8509 162.799 77.7864 162.873C77.7219 162.948 77.6436 163.009 77.5557 163.053L67.4977 168.095C67.3948 168.146 67.2814 168.173 67.1666 168.173Z" fill="#393939"/>
<path d="M85.7745 148.222C85.5857 148.221 85.4042 148.149 85.2663 148.018C85.1284 147.888 85.0443 147.71 85.0308 147.52C84.7125 142.666 80.6315 137.217 75.3275 134.565C73.1105 133.456 68.8273 131.973 65.0507 134.494C64.9691 134.552 64.8768 134.593 64.7794 134.614C64.682 134.635 64.5813 134.636 64.4834 134.617C64.3855 134.599 64.2924 134.56 64.2094 134.504C64.1264 134.449 64.0554 134.377 64.0004 134.293C63.9454 134.209 63.9076 134.115 63.8892 134.016C63.8709 133.917 63.8723 133.816 63.8935 133.717C63.9146 133.619 63.9551 133.526 64.0124 133.444C64.0698 133.362 64.1428 133.292 64.2274 133.238C67.4882 131.061 71.6639 131.052 75.9904 133.215C81.7401 136.091 86.1682 142.065 86.5197 147.421C86.5321 147.62 86.4659 147.816 86.3356 147.966C86.2053 148.116 86.0215 148.208 85.8242 148.222H85.7745Z" fill="#393939"/>
</svg>
