<svg width="44" height="44" viewBox="0 0 44 44" fill="none" xmlns="http://www.w3.org/2000/svg">
<path fill-rule="evenodd" clip-rule="evenodd" d="M21.5728 8.16659C22.3783 7.36114 23.6842 7.36114 24.4897 8.16659L36.8647 20.5416C37.6701 21.347 37.6701 22.653 36.8647 23.4584L24.4897 35.8334C23.6842 36.6389 22.3783 36.6389 21.5728 35.8334C20.7674 35.028 20.7674 33.722 21.5728 32.9166L32.4894 22L21.5728 11.0834C20.7674 10.278 20.7674 8.97205 21.5728 8.16659Z" fill="white"/>
<path fill-rule="evenodd" clip-rule="evenodd" d="M6.53125 22C6.53125 20.8609 7.45466 19.9375 8.59375 19.9375H33.6875C34.8266 19.9375 35.75 20.8609 35.75 22C35.75 23.1391 34.8266 24.0625 33.6875 24.0625H8.59375C7.45466 24.0625 6.53125 23.1391 6.53125 22Z" fill="white"/>
</svg>
