<?xml version="1.0" standalone="no"?>
<!DOCTYPE svg PUBLIC "-//W3C//DTD SVG 1.1//EN" "http://www.w3.org/Graphics/SVG/1.1/DTD/svg11.dtd">
<svg t="1712543093936" class="icon" viewBox="0 0 1024 1024" version="1.1"
    xmlns="http://www.w3.org/2000/svg" p-id="4631" xmlns:xlink="http://www.w3.org/1999/xlink"
    width="200" height="200" fill="currentColor">
    <path
        d="M968.077546 971.198561L853.162786 626.658939l-40.419706-26.912362-17.088838 17.088838V454.337963c0-0.716299-0.204657-1.330269-0.204657-2.046567-0.204657-3.581493-0.409313-7.162986-0.511642-10.846807 0.204657-2.455881 0.716299-4.707105 0.716299-7.265314 0-175.697812-243.029879-358.353952-265.030479-374.82882-22.102928-16.474868-44.205856 0-44.205856 0s-265.030479 199.02868-265.030478 374.82882c0 2.455881 0.511642 4.809433 0.716298 7.265314-0.204657 3.683821-0.409313 7.469971-0.61397 11.153792 0 0.61397-0.204657 1.125612-0.204657 1.739582v162.497452l-17.088837-17.088838-40.21505 26.912362L49.168782 971.198561l229.727191-114.91476v-58.941141c16.270211 21.898271 35.610273 41.238333 57.406215 57.713201v29.982212L508.623164 971.198561l172.320975-86.160488v-29.982212c21.795943-16.474868 41.136005-35.81493 57.406216-57.713201v58.941141L968.077546 971.198561z m-459.454382-459.454382c-63.443589 0-114.91476-51.47117-114.91476-114.91476S445.179574 282.016988 508.623164 282.016988s114.91476 51.47117 114.914759 114.812431c-0.102328 63.545918-51.47117 114.91476-114.914759 114.91476z"
        p-id="4632"></path>
</svg>