<svg width="44" height="44" viewBox="0 0 44 44" fill="currentColor" xmlns="http://www.w3.org/2000/svg">
<path d="M35.3341 8.37547C31.662 4.80047 26.8022 2.75 22 2.75C17.1978 2.75 12.338 4.80047 8.66594 8.37547C4.85117 12.0888 2.75 16.9297 2.75 22C2.75 24.292 3.50195 27.2499 5.57562 32.7895C7.6493 38.329 11.7734 40.6484 13.5154 41.0274C14.0147 41.1366 14.5999 41.25 15.125 41.25C16.0298 41.2508 16.9189 41.0137 17.7031 40.5625L18.9062 39.875C20.2013 39.117 20.5795 37.4576 19.8344 36.1496L12.3647 23.0381C12.1867 22.7244 11.9482 22.4491 11.6631 22.2281C11.3779 22.0072 11.0518 21.8451 10.7035 21.7511C10.3553 21.6571 9.99185 21.6331 9.63427 21.6805C9.27669 21.728 8.93207 21.8459 8.62039 22.0275L7.44391 22.715C6.99173 22.9799 6.58544 23.3162 6.24078 23.711C6.198 23.7612 6.14169 23.798 6.07855 23.8171C6.01542 23.8362 5.94813 23.8367 5.88472 23.8186C5.8213 23.8005 5.76444 23.7645 5.72091 23.7149C5.67738 23.6654 5.64902 23.6044 5.63922 23.5391C5.5526 23.0305 5.50605 22.5159 5.5 22C5.5 17.6765 7.30469 13.5369 10.5841 10.346C13.75 7.26602 17.9085 5.5 22 5.5C26.0915 5.5 30.25 7.26602 33.4159 10.346C36.6953 13.5369 38.5 17.6765 38.5 22C38.4922 22.516 38.444 23.0307 38.3556 23.5391C38.3458 23.6044 38.3175 23.6654 38.2739 23.7149C38.2304 23.7645 38.1735 23.8005 38.1101 23.8186C38.0467 23.8367 37.9794 23.8362 37.9163 23.8171C37.8532 23.798 37.7968 23.7612 37.7541 23.711C37.4094 23.3162 37.0031 22.9799 36.5509 22.715L35.3745 22.0275C35.0628 21.8459 34.7182 21.728 34.3606 21.6805C34.003 21.6331 33.6396 21.6571 33.2913 21.7511C32.943 21.8451 32.6169 22.0072 32.3318 22.2281C32.0466 22.4491 31.8081 22.7244 31.6302 23.0381L24.1656 36.1496C23.4205 37.4576 23.7987 39.117 25.0938 39.875L26.2969 40.5625C27.0811 41.0137 27.9702 41.2508 28.875 41.25C29.4001 41.25 29.9853 41.1366 30.4846 41.0274C32.2266 40.6484 36.3516 38.3281 38.4244 32.7895C40.4972 27.2508 41.25 24.292 41.25 22C41.25 16.9297 39.1488 12.0888 35.3341 8.37547Z" fill="currentColor"/>
</svg>
