<svg width="56" height="56" viewBox="0 0 56 56" fill="none" xmlns="http://www.w3.org/2000/svg">
<g clip-path="url(#clip0_223_1156)">
<path d="M56 42.0001C56 43.6503 55.3444 45.2329 54.1776 46.3998C53.0107 47.5667 51.428 48.2223 49.7778 48.2223H6.22222C4.57199 48.2223 2.98934 47.5667 1.82245 46.3998C0.655554 45.2329 0 43.6503 0 42.0001V14.0001C0 12.3498 0.655554 10.7672 1.82245 9.60028C2.98934 8.43339 4.57199 7.77783 6.22222 7.77783H49.7778C51.428 7.77783 53.0107 8.43339 54.1776 9.60028C55.3444 10.7672 56 12.3498 56 14.0001V42.0001Z" fill="#DE2910"/>
<path d="M17.3227 13.9642L18.4676 14.518L19.3839 13.6376L19.2112 14.8976L20.3312 15.498L19.0805 15.722L18.8565 16.9727L18.2561 15.8527L16.9961 16.0254L17.8765 15.1091L17.3227 13.9642ZM24.5794 18.5391L24.0256 19.6825L24.9061 20.6002L23.6476 20.426L23.0472 21.5476L22.8232 20.2954L21.571 20.0714L22.6925 19.4709L22.5183 18.2125L23.4361 19.0929L24.5794 18.5391ZM23.0907 24.4176L23.5076 25.6185L24.7785 25.6449L23.7659 26.4118L24.1345 27.6298L23.0907 26.9034L22.047 27.6298L22.4141 26.4118L21.4014 25.6449L22.6723 25.6185L23.0907 24.4176ZM17.3227 29.5198L18.4676 30.0736L19.3839 29.1931L19.2112 30.4531L20.3312 31.0536L19.0805 31.2776L18.8565 32.5282L18.2561 31.4082L16.9961 31.5809L17.8765 30.6647L17.3227 29.5198ZM10.889 17.0349L12.3341 21.1898L16.7301 21.28L13.2254 23.9369L14.4994 28.1462L10.889 25.634L7.27852 28.1462L8.55252 23.9369L5.04785 21.28L9.44385 21.1898L10.889 17.0349Z" fill="#FFDE02"/>
</g>
<defs>
<clipPath id="clip0_223_1156">
<rect width="56" height="56" fill="white"/>
</clipPath>
</defs>
</svg>
